<svg width="1162.5699218749999px" height="270.835009765625px" xmlns="http://www.w3.org/2000/svg" viewBox="-331.28496093749993 -60.417504882812494 1162.5699218749999 270.835009765625" style="background: none;" preserveAspectRatio="xMidYMid"><defs><linearGradient id="editing-shiny-gradient" x1="0.04322727117869957" x2="0.9567727288213004" y1="0.2966316784620999" y2="0.7033683215379001" gradientUnits="objectBoundingBox"><stop offset="0.0" stop-color="#e6261f"></stop><stop offset="0.5" stop-color="#eb7532"></stop><stop offset="1.0" stop-color="#f7d038"></stop></linearGradient><linearGradient id="editing-shiny-gradient2" x1="0" x2="0" y1="0" y2="1"><stop offset="0.2" stop-color="#fff" stop-opacity="0.8"></stop><stop offset="0.8" stop-color="#fff" stop-opacity="0"></stop></linearGradient><filter id="editing-shiny2" x="-100%" y="-100%" width="300%" height="300%"><feMorphology operator="erode" radius="2"></feMorphology></filter><filter id="editing-shiny" x="-100%" y="-100%" width="300%" height="300%"><feFlood flood-color="#fff" result="flood"></feFlood><feConvolveMatrix in="SourceGraphic" result="conv" order="8,8" divisor="1" kernelMatrix="0 0 0 0 0 0 0 0 0 0 0 1 1 0 0 0 0 0 0 1 1 0 0 0 0 0 1 0 0 1 0 0 0 0 1 0 0 1 0 0 0 1 0 0 0 0 1 0 0 1 1 0 0 1 1 0 0 0 0 1 1 0 0 0 "></feConvolveMatrix><feOffset dx="0" dy="4" in="conv" result="offset"></feOffset><feComposite operator="in" in="flood" in2="offset" result="comp"></feComposite><feGaussianBlur in="offset" stdDeviation="3" result="shadow"></feGaussianBlur><feColorMatrix in="shadow" type="matrix" values="0.7 0 0 0 0  0 0.7 0 0 0  0 0 0.7 0 0  0 0 0 0.3 0" result="dark-shadow"></feColorMatrix><feOffset dx="0" dy="4" in="dark-shadow" result="offset-shadow"></feOffset><feOffset dx="0" dy="2" in="conv" result="offset-2"></feOffset><feComposite operator="out" in="offset" in2="offset-2" result="edge-diff"></feComposite><feGaussianBlur in="edge-diff" stdDeviation="1" result="edge-blur"></feGaussianBlur><feColorMatrix in="edge-blur" result="edge-shadow" type="matrix" values="0 0 0 0 0  0 0 0 0 0  0 0 0 0 0  0 0 0 0.5 0"></feColorMatrix><feComposite operator="in" in="edge-shadow" in2="offset" result="edge-shadow-in"></feComposite><feOffset dx="0" dy="1" in="edge-shadow-in" result="edge-shadow-final"></feOffset><feMerge result="out"><feMergeNode in="offset-shadow"></feMergeNode><feMergeNode in="comp"></feMergeNode><feMergeNode in="edge-shadow-final"></feMergeNode><feMergeNode in="SourceGraphic"></feMergeNode></feMerge></filter></defs><g filter="url(#editing-shiny)"><g transform="translate(-168.319997549057, 128.52000045776367)"><path d="M23.28-70.56L23.28-70.56L23.28-70.56Q25.32-71.76 29.46-72.84L29.46-72.84L29.46-72.84Q33.60-73.92 37.80-73.92L37.80-73.92L37.80-73.92Q43.80-73.92 48.42-72.18L48.42-72.18L48.42-72.18Q53.04-70.44 54.36-66.72L54.36-66.72L54.36-66.72Q56.52-60.48 59.04-52.20L59.04-52.20L59.04-52.20Q61.56-43.92 64.08-35.10L64.08-35.10L64.08-35.10Q66.60-26.28 69-17.70L69-17.70L69-17.70Q71.40-9.12 73.20-2.52L73.20-2.52L73.20-2.52Q71.76-0.84 68.88 0.18L68.88 0.18L68.88 0.18Q66 1.20 62.04 1.20L62.04 1.20L62.04 1.20Q59.16 1.20 57.18 0.72L57.18 0.72L57.18 0.72Q55.20 0.24 53.94-0.72L53.94-0.72L53.94-0.72Q52.68-1.68 51.90-3.24L51.90-3.24L51.90-3.24Q51.12-4.80 50.52-6.84L50.52-6.84L48.36-15.12L26.64-15.12L26.64-15.12Q25.68-11.52 24.72-7.68L24.72-7.68L24.72-7.68Q23.76-3.84 22.80-0.24L22.80-0.24L22.80-0.24Q21.12 0.36 19.26 0.78L19.26 0.78L19.26 0.78Q17.40 1.20 14.76 1.20L14.76 1.20L14.76 1.20Q8.64 1.20 5.70-0.90L5.70-0.90L5.70-0.90Q2.76-3 2.76-6.72L2.76-6.72L2.76-6.72Q2.76-8.40 3.24-10.08L3.24-10.08L3.24-10.08Q3.72-11.76 4.32-14.04L4.32-14.04L4.32-14.04Q5.16-17.28 6.66-22.08L6.66-22.08L6.66-22.08Q8.16-26.88 9.96-32.46L9.96-32.46L9.96-32.46Q11.76-38.04 13.80-43.92L13.80-43.92L13.80-43.92Q15.84-49.80 17.64-55.02L17.64-55.02L17.64-55.02Q19.44-60.24 20.94-64.32L20.94-64.32L20.94-64.32Q22.44-68.40 23.28-70.56ZM38.40-55.08L37.68-55.08L37.68-55.08Q36-50.04 33.90-43.86L33.90-43.86L33.90-43.86Q31.80-37.68 30.12-31.32L30.12-31.32L45-31.32L45-31.32Q43.32-37.80 41.58-43.98L41.58-43.98L41.58-43.98Q39.84-50.16 38.40-55.08L38.40-55.08ZM109.32-60.12L109.32-60.12L109.32-60.12Q116.16-60.12 121.74-58.38L121.74-58.38L121.74-58.38Q127.32-56.64 131.16-53.88L131.16-53.88L131.16-53.88Q133.56-52.20 134.94-50.16L134.94-50.16L134.94-50.16Q136.32-48.12 136.32-44.88L136.32-44.88L136.32-2.88L136.32-2.88Q136.32 3.48 133.92 8.10L133.92 8.10L133.92 8.10Q131.52 12.72 127.38 15.78L127.38 15.78L127.38 15.78Q123.24 18.84 117.66 20.28L117.66 20.28L117.66 20.28Q112.08 21.72 105.72 21.72L105.72 21.72L105.72 21.72Q94.80 21.72 88.56 18.78L88.56 18.78L88.56 18.78Q82.32 15.84 82.32 9.24L82.32 9.24L82.32 9.24Q82.32 6.48 83.46 4.38L83.46 4.38L83.46 4.38Q84.60 2.28 86.04 1.20L86.04 1.20L86.04 1.20Q89.52 3.12 93.90 4.44L93.90 4.44L93.90 4.44Q98.28 5.76 102.96 5.76L102.96 5.76L102.96 5.76Q109.44 5.76 113.28 3.60L113.28 3.60L113.28 3.60Q117.12 1.44 117.12-3.36L117.12-3.36L117.12-5.28L117.12-5.28Q112.20-3.12 105.12-3.12L105.12-3.12L105.12-3.12Q99.72-3.12 94.86-4.74L94.86-4.74L94.86-4.74Q90-6.36 86.34-9.78L86.34-9.78L86.34-9.78Q82.68-13.20 80.46-18.60L80.46-18.60L80.46-18.60Q78.24-24 78.24-31.44L78.24-31.44L78.24-31.44Q78.24-38.76 80.58-44.16L80.58-44.16L80.58-44.16Q82.92-49.56 87.06-53.10L87.06-53.10L87.06-53.10Q91.20-56.64 96.90-58.38L96.90-58.38L96.90-58.38Q102.60-60.12 109.32-60.12ZM116.76-20.64L116.76-42.72L116.76-42.72Q115.92-43.20 114.30-43.68L114.30-43.68L114.30-43.68Q112.68-44.16 110.28-44.16L110.28-44.16L110.28-44.16Q104.40-44.16 101.46-40.86L101.46-40.86L101.46-40.86Q98.52-37.56 98.52-31.44L98.52-31.44L98.52-31.44Q98.52-24.48 101.46-21.42L101.46-21.42L101.46-21.42Q104.40-18.36 108.96-18.36L108.96-18.36L108.96-18.36Q113.88-18.36 116.76-20.64L116.76-20.64ZM177.36-60.12L177.36-60.12L177.36-60.12Q184.20-60.12 189.78-58.38L189.78-58.38L189.78-58.38Q195.36-56.64 199.20-53.88L199.20-53.88L199.20-53.88Q201.60-52.20 202.98-50.16L202.98-50.16L202.98-50.16Q204.36-48.12 204.36-44.88L204.36-44.88L204.36-2.88L204.36-2.88Q204.36 3.48 201.96 8.10L201.96 8.10L201.96 8.10Q199.56 12.72 195.42 15.78L195.42 15.78L195.42 15.78Q191.28 18.84 185.70 20.28L185.70 20.28L185.70 20.28Q180.12 21.72 173.76 21.72L173.76 21.72L173.76 21.72Q162.84 21.72 156.60 18.78L156.60 18.78L156.60 18.78Q150.36 15.84 150.36 9.24L150.36 9.24L150.36 9.24Q150.36 6.48 151.50 4.38L151.50 4.38L151.50 4.38Q152.64 2.28 154.08 1.20L154.08 1.20L154.08 1.20Q157.56 3.12 161.94 4.44L161.94 4.44L161.94 4.44Q166.32 5.76 171 5.76L171 5.76L171 5.76Q177.48 5.76 181.32 3.60L181.32 3.60L181.32 3.60Q185.16 1.44 185.16-3.36L185.16-3.36L185.16-5.28L185.16-5.28Q180.24-3.12 173.16-3.12L173.16-3.12L173.16-3.12Q167.76-3.12 162.90-4.74L162.90-4.74L162.90-4.74Q158.04-6.36 154.38-9.78L154.38-9.78L154.38-9.78Q150.72-13.20 148.50-18.60L148.50-18.60L148.50-18.60Q146.28-24 146.28-31.44L146.28-31.44L146.28-31.44Q146.28-38.76 148.62-44.16L148.62-44.16L148.62-44.16Q150.96-49.56 155.10-53.10L155.10-53.10L155.10-53.10Q159.24-56.64 164.94-58.38L164.94-58.38L164.94-58.38Q170.64-60.12 177.36-60.12ZM184.80-20.64L184.80-42.72L184.80-42.72Q183.96-43.20 182.34-43.68L182.34-43.68L182.34-43.68Q180.72-44.16 178.32-44.16L178.32-44.16L178.32-44.16Q172.44-44.16 169.50-40.86L169.50-40.86L169.50-40.86Q166.56-37.56 166.56-31.44L166.56-31.44L166.56-31.44Q166.56-24.48 169.50-21.42L169.50-21.42L169.50-21.42Q172.44-18.36 177-18.36L177-18.36L177-18.36Q181.92-18.36 184.80-20.64L184.80-20.64ZM237.36-41.04L237.36-0.12L237.36-0.12Q236.16 0.24 233.58 0.60L233.58 0.60L233.58 0.60Q231 0.96 228.24 0.96L228.24 0.96L228.24 0.96Q225.60 0.96 223.50 0.60L223.50 0.60L223.50 0.60Q221.40 0.24 219.96-0.84L219.96-0.84L219.96-0.84Q218.52-1.92 217.74-3.78L217.74-3.78L217.74-3.78Q216.96-5.64 216.96-8.64L216.96-8.64L216.96-44.64L216.96-44.64Q216.96-47.40 217.98-49.38L217.98-49.38L217.98-49.38Q219-51.36 220.92-52.92L220.92-52.92L220.92-52.92Q222.84-54.48 225.66-55.74L225.66-55.74L225.66-55.74Q228.48-57 231.72-57.96L231.72-57.96L231.72-57.96Q234.96-58.92 238.44-59.46L238.44-59.46L238.44-59.46Q241.92-60 245.40-60L245.40-60L245.40-60Q251.16-60 254.52-57.78L254.52-57.78L254.52-57.78Q257.88-55.56 257.88-50.52L257.88-50.52L257.88-50.52Q257.88-48.84 257.40-47.22L257.40-47.22L257.40-47.22Q256.92-45.60 256.20-44.28L256.20-44.28L256.20-44.28Q253.68-44.28 251.04-44.04L251.04-44.04L251.04-44.04Q248.40-43.80 245.88-43.32L245.88-43.32L245.88-43.32Q243.36-42.84 241.14-42.30L241.14-42.30L241.14-42.30Q238.92-41.76 237.36-41.04L237.36-41.04ZM294.84 1.92L294.84 1.92L294.84 1.92Q287.76 1.92 281.70-0.06L281.70-0.06L281.70-0.06Q275.64-2.04 271.14-6L271.14-6L271.14-6Q266.64-9.96 264.06-15.96L264.06-15.96L264.06-15.96Q261.48-21.96 261.48-30L261.48-30L261.48-30Q261.48-37.92 264.06-43.62L264.06-43.62L264.06-43.62Q266.64-49.32 270.84-52.98L270.84-52.98L270.84-52.98Q275.04-56.64 280.44-58.38L280.44-58.38L280.44-58.38Q285.84-60.12 291.48-60.12L291.48-60.12L291.48-60.12Q297.84-60.12 303.06-58.20L303.06-58.20L303.06-58.20Q308.28-56.28 312.06-52.92L312.06-52.92L312.06-52.92Q315.84-49.56 317.94-44.88L317.94-44.88L317.94-44.88Q320.04-40.20 320.04-34.68L320.04-34.68L320.04-34.68Q320.04-30.60 317.76-28.44L317.76-28.44L317.76-28.44Q315.48-26.28 311.40-25.68L311.40-25.68L281.76-21.24L281.76-21.24Q283.08-17.28 287.16-15.30L287.16-15.30L287.16-15.30Q291.24-13.32 296.52-13.32L296.52-13.32L296.52-13.32Q301.44-13.32 305.82-14.58L305.82-14.58L305.82-14.58Q310.20-15.84 312.96-17.52L312.96-17.52L312.96-17.52Q314.88-16.32 316.20-14.16L316.20-14.16L316.20-14.16Q317.52-12 317.52-9.60L317.52-9.60L317.52-9.60Q317.52-4.20 312.48-1.56L312.48-1.56L312.48-1.56Q308.64 0.48 303.84 1.20L303.84 1.20L303.84 1.20Q299.04 1.92 294.84 1.92ZM291.48-45.24L291.48-45.24L291.48-45.24Q288.60-45.24 286.50-44.28L286.50-44.28L286.50-44.28Q284.40-43.32 283.08-41.82L283.08-41.82L283.08-41.82Q281.76-40.32 281.10-38.46L281.10-38.46L281.10-38.46Q280.44-36.60 280.32-34.68L280.32-34.68L300.84-38.04L300.84-38.04Q300.48-40.44 298.20-42.84L298.20-42.84L298.20-42.84Q295.92-45.24 291.48-45.24ZM379.08-17.40L379.08-17.40L379.08-17.40Q379.08-8.28 372.24-3.12L372.24-3.12L372.24-3.12Q365.40 2.04 352.08 2.04L352.08 2.04L352.08 2.04Q347.04 2.04 342.72 1.32L342.72 1.32L342.72 1.32Q338.40 0.60 335.34-0.90L335.34-0.90L335.34-0.90Q332.28-2.40 330.54-4.68L330.54-4.68L330.54-4.68Q328.80-6.96 328.80-10.08L328.80-10.08L328.80-10.08Q328.80-12.96 330.00-14.94L330.00-14.94L330.00-14.94Q331.20-16.92 332.88-18.24L332.88-18.24L332.88-18.24Q336.36-16.32 340.86-14.82L340.86-14.82L340.86-14.82Q345.36-13.32 351.24-13.32L351.24-13.32L351.24-13.32Q354.96-13.32 356.94-14.40L356.94-14.40L356.94-14.40Q358.92-15.48 358.92-17.28L358.92-17.28L358.92-17.28Q358.92-18.96 357.48-19.92L357.48-19.92L357.48-19.92Q356.04-20.88 352.68-21.48L352.68-21.48L349.08-22.20L349.08-22.20Q338.64-24.24 333.54-28.62L333.54-28.62L333.54-28.62Q328.44-33 328.44-41.16L328.44-41.16L328.44-41.16Q328.44-45.60 330.36-49.20L330.36-49.20L330.36-49.20Q332.28-52.80 335.76-55.20L335.76-55.20L335.76-55.20Q339.24-57.60 344.10-58.92L344.10-58.92L344.10-58.92Q348.96-60.24 354.84-60.24L354.84-60.24L354.84-60.24Q359.28-60.24 363.18-59.58L363.18-59.58L363.18-59.58Q367.08-58.92 369.96-57.60L369.96-57.60L369.96-57.60Q372.84-56.28 374.52-54.18L374.52-54.18L374.52-54.18Q376.20-52.08 376.20-49.20L376.20-49.20L376.20-49.20Q376.20-46.44 375.18-44.46L375.18-44.46L375.18-44.46Q374.16-42.48 372.60-41.16L372.60-41.16L372.60-41.16Q371.64-41.76 369.72-42.42L369.72-42.42L369.72-42.42Q367.80-43.08 365.52-43.62L365.52-43.62L365.52-43.62Q363.24-44.16 360.90-44.52L360.90-44.52L360.90-44.52Q358.56-44.88 356.64-44.88L356.64-44.88L356.64-44.88Q352.68-44.88 350.52-43.98L350.52-43.98L350.52-43.98Q348.36-43.08 348.36-41.16L348.36-41.16L348.36-41.16Q348.36-39.84 349.56-39L349.56-39L349.56-39Q350.76-38.16 354.12-37.44L354.12-37.44L357.84-36.60L357.84-36.60Q369.36-33.96 374.22-29.34L374.22-29.34L374.22-29.34Q379.08-24.72 379.08-17.40ZM438.12-17.40L438.12-17.40L438.12-17.40Q438.12-8.28 431.28-3.12L431.28-3.12L431.28-3.12Q424.44 2.04 411.12 2.04L411.12 2.04L411.12 2.04Q406.08 2.04 401.76 1.32L401.76 1.32L401.76 1.32Q397.44 0.60 394.38-0.90L394.38-0.90L394.38-0.90Q391.32-2.40 389.58-4.68L389.58-4.68L389.58-4.68Q387.84-6.96 387.84-10.08L387.84-10.08L387.84-10.08Q387.84-12.96 389.04-14.94L389.04-14.94L389.04-14.94Q390.24-16.92 391.92-18.24L391.92-18.24L391.92-18.24Q395.40-16.32 399.90-14.82L399.90-14.82L399.90-14.82Q404.40-13.32 410.28-13.32L410.28-13.32L410.28-13.32Q414.00-13.32 415.98-14.40L415.98-14.40L415.98-14.40Q417.96-15.48 417.96-17.28L417.96-17.28L417.96-17.28Q417.96-18.96 416.52-19.92L416.52-19.92L416.52-19.92Q415.08-20.88 411.72-21.48L411.72-21.48L408.12-22.20L408.12-22.20Q397.68-24.24 392.58-28.62L392.58-28.62L392.58-28.62Q387.48-33 387.48-41.16L387.48-41.16L387.48-41.16Q387.48-45.60 389.40-49.20L389.40-49.20L389.40-49.20Q391.32-52.80 394.80-55.20L394.80-55.20L394.80-55.20Q398.28-57.60 403.14-58.92L403.14-58.92L403.14-58.92Q408.00-60.24 413.88-60.24L413.88-60.24L413.88-60.24Q418.32-60.24 422.22-59.58L422.22-59.58L422.22-59.58Q426.12-58.92 429.00-57.60L429.00-57.60L429.00-57.60Q431.88-56.28 433.56-54.18L433.56-54.18L433.56-54.18Q435.24-52.08 435.24-49.20L435.24-49.20L435.24-49.20Q435.24-46.44 434.22-44.46L434.22-44.46L434.22-44.46Q433.20-42.48 431.64-41.16L431.64-41.16L431.64-41.16Q430.68-41.76 428.76-42.42L428.76-42.42L428.76-42.42Q426.84-43.08 424.56-43.62L424.56-43.62L424.56-43.62Q422.28-44.16 419.94-44.52L419.94-44.52L419.94-44.52Q417.60-44.88 415.68-44.88L415.68-44.88L415.68-44.88Q411.72-44.88 409.56-43.98L409.56-43.98L409.56-43.98Q407.40-43.08 407.40-41.16L407.40-41.16L407.40-41.16Q407.40-39.84 408.60-39L408.60-39L408.60-39Q409.80-38.16 413.16-37.44L413.16-37.44L416.88-36.60L416.88-36.60Q428.40-33.96 433.26-29.34L433.26-29.34L433.26-29.34Q438.12-24.72 438.12-17.40ZM447.48-74.52L447.48-74.52L447.48-74.52Q447.48-79.08 450.54-82.20L450.54-82.20L450.54-82.20Q453.60-85.32 458.64-85.32L458.64-85.32L458.64-85.32Q463.68-85.32 466.74-82.20L466.74-82.20L466.74-82.20Q469.80-79.08 469.80-74.52L469.80-74.52L469.80-74.52Q469.80-69.96 466.74-66.84L466.74-66.84L466.74-66.84Q463.68-63.72 458.64-63.72L458.64-63.72L458.64-63.72Q453.60-63.72 450.54-66.84L450.54-66.84L450.54-66.84Q447.48-69.96 447.48-74.52ZM468.84-48.96L468.84-0.12L468.84-0.12Q467.52 0.12 464.94 0.54L464.94 0.54L464.94 0.54Q462.36 0.96 459.72 0.96L459.72 0.96L459.72 0.96Q457.08 0.96 454.98 0.60L454.98 0.60L454.98 0.60Q452.88 0.24 451.44-0.84L451.44-0.84L451.44-0.84Q450.00-1.92 449.22-3.78L449.22-3.78L449.22-3.78Q448.44-5.64 448.44-8.64L448.44-8.64L448.44-57.48L448.44-57.48Q449.76-57.72 452.34-58.14L452.34-58.14L452.34-58.14Q454.92-58.56 457.56-58.56L457.56-58.56L457.56-58.56Q460.20-58.56 462.30-58.20L462.30-58.20L462.30-58.20Q464.40-57.84 465.84-56.76L465.84-56.76L465.84-56.76Q467.28-55.68 468.06-53.82L468.06-53.82L468.06-53.82Q468.84-51.96 468.84-48.96L468.84-48.96ZM520.80-1.56L520.80-1.56L520.80-1.56Q519.12-0.24 515.88 0.60L515.88 0.60L515.88 0.60Q512.64 1.44 508.56 1.44L508.56 1.44L508.56 1.44Q503.88 1.44 500.46 0.24L500.46 0.24L500.46 0.24Q497.04-0.96 495.72-3.60L495.72-3.60L495.72-3.60Q494.64-5.64 493.14-9.30L493.14-9.30L493.14-9.30Q491.64-12.96 489.96-17.46L489.96-17.46L489.96-17.46Q488.28-21.96 486.48-27.12L486.48-27.12L486.48-27.12Q484.68-32.28 483.06-37.32L483.06-37.32L483.06-37.32Q481.44-42.36 480.12-47.04L480.12-47.04L480.12-47.04Q478.80-51.72 477.96-55.32L477.96-55.32L477.96-55.32Q479.64-57 482.46-58.26L482.46-58.26L482.46-58.26Q485.28-59.52 488.64-59.52L488.64-59.52L488.64-59.52Q492.84-59.52 495.54-57.78L495.54-57.78L495.54-57.78Q498.24-56.04 499.56-51.24L499.56-51.24L504.24-32.88L504.24-32.88Q505.56-27.48 506.76-23.10L506.76-23.10L506.76-23.10Q507.96-18.72 508.56-16.32L508.56-16.32L509.16-16.32L509.16-16.32Q511.44-25.20 513.96-36L513.96-36L513.96-36Q516.48-46.80 518.52-57.24L518.52-57.24L518.52-57.24Q520.56-58.32 523.14-58.92L523.14-58.92L523.14-58.92Q525.72-59.52 528.12-59.52L528.12-59.52L528.12-59.52Q532.32-59.52 535.20-57.72L535.20-57.72L535.20-57.72Q538.08-55.92 538.08-51.48L538.08-51.48L538.08-51.48Q538.08-49.56 537.18-45.90L537.18-45.90L537.18-45.90Q536.28-42.24 534.90-37.62L534.90-37.62L534.90-37.62Q533.52-33 531.66-27.84L531.66-27.84L531.66-27.84Q529.80-22.68 527.88-17.76L527.88-17.76L527.88-17.76Q525.96-12.84 524.10-8.58L524.10-8.58L524.10-8.58Q522.24-4.32 520.80-1.56ZM577.44 1.92L577.44 1.92L577.44 1.92Q570.36 1.92 564.30-0.06L564.30-0.06L564.30-0.06Q558.24-2.04 553.74-6L553.74-6L553.74-6Q549.24-9.96 546.66-15.96L546.66-15.96L546.66-15.96Q544.08-21.96 544.08-30L544.08-30L544.08-30Q544.08-37.92 546.66-43.62L546.66-43.62L546.66-43.62Q549.24-49.32 553.44-52.98L553.44-52.98L553.44-52.98Q557.64-56.64 563.04-58.38L563.04-58.38L563.04-58.38Q568.44-60.12 574.08-60.12L574.08-60.12L574.08-60.12Q580.44-60.12 585.66-58.20L585.66-58.20L585.66-58.20Q590.88-56.28 594.66-52.92L594.66-52.92L594.66-52.92Q598.44-49.56 600.54-44.88L600.54-44.88L600.54-44.88Q602.64-40.20 602.64-34.68L602.64-34.68L602.64-34.68Q602.64-30.60 600.36-28.44L600.36-28.44L600.36-28.44Q598.08-26.28 594-25.68L594-25.68L564.36-21.24L564.36-21.24Q565.68-17.28 569.76-15.30L569.76-15.30L569.76-15.30Q573.84-13.32 579.12-13.32L579.12-13.32L579.12-13.32Q584.04-13.32 588.42-14.58L588.42-14.58L588.42-14.58Q592.80-15.84 595.56-17.52L595.56-17.52L595.56-17.52Q597.48-16.32 598.80-14.16L598.80-14.16L598.80-14.16Q600.12-12 600.12-9.60L600.12-9.60L600.12-9.60Q600.12-4.20 595.08-1.56L595.08-1.56L595.08-1.56Q591.24 0.48 586.44 1.20L586.44 1.20L586.44 1.20Q581.64 1.92 577.44 1.92ZM574.08-45.24L574.08-45.24L574.08-45.24Q571.20-45.24 569.10-44.28L569.10-44.28L569.10-44.28Q567-43.32 565.68-41.82L565.68-41.82L565.68-41.82Q564.36-40.32 563.70-38.46L563.70-38.46L563.70-38.46Q563.04-36.60 562.92-34.68L562.92-34.68L583.44-38.04L583.44-38.04Q583.08-40.44 580.80-42.84L580.80-42.84L580.80-42.84Q578.52-45.24 574.08-45.24ZM653.52-70.56L653.52-70.56L653.52-70.56Q655.56-71.76 659.70-72.84L659.70-72.84L659.70-72.84Q663.84-73.92 668.04-73.92L668.04-73.92L668.04-73.92Q674.04-73.92 678.66-72.18L678.66-72.18L678.66-72.18Q683.28-70.44 684.60-66.72L684.60-66.72L684.60-66.72Q686.76-60.48 689.28-52.20L689.28-52.20L689.28-52.20Q691.80-43.92 694.32-35.10L694.32-35.10L694.32-35.10Q696.84-26.28 699.24-17.70L699.24-17.70L699.24-17.70Q701.64-9.12 703.44-2.52L703.44-2.52L703.44-2.52Q702-0.84 699.12 0.18L699.12 0.18L699.12 0.18Q696.24 1.20 692.28 1.20L692.28 1.20L692.28 1.20Q689.40 1.20 687.42 0.72L687.42 0.72L687.42 0.72Q685.44 0.24 684.18-0.72L684.18-0.72L684.18-0.72Q682.92-1.68 682.14-3.24L682.14-3.24L682.14-3.24Q681.36-4.80 680.76-6.84L680.76-6.84L678.60-15.12L656.88-15.12L656.88-15.12Q655.92-11.52 654.96-7.68L654.96-7.68L654.96-7.68Q654-3.84 653.04-0.24L653.04-0.24L653.04-0.24Q651.36 0.36 649.50 0.78L649.50 0.78L649.50 0.78Q647.64 1.20 645 1.20L645 1.20L645 1.20Q638.88 1.20 635.94-0.90L635.94-0.90L635.94-0.90Q633-3 633-6.72L633-6.72L633-6.72Q633-8.40 633.48-10.08L633.48-10.08L633.48-10.08Q633.96-11.76 634.56-14.04L634.56-14.04L634.56-14.04Q635.40-17.28 636.90-22.08L636.90-22.08L636.90-22.08Q638.40-26.88 640.20-32.46L640.20-32.46L640.20-32.46Q642-38.04 644.04-43.92L644.04-43.92L644.04-43.92Q646.08-49.80 647.88-55.02L647.88-55.02L647.88-55.02Q649.68-60.24 651.18-64.32L651.18-64.32L651.18-64.32Q652.68-68.40 653.52-70.56ZM668.64-55.08L667.92-55.08L667.92-55.08Q666.24-50.04 664.14-43.86L664.14-43.86L664.14-43.86Q662.04-37.68 660.36-31.32L660.36-31.32L675.24-31.32L675.24-31.32Q673.56-37.80 671.82-43.98L671.82-43.98L671.82-43.98Q670.08-50.16 668.64-55.08L668.64-55.08ZM708.24-29.16L708.24-29.16L708.24-29.16Q708.24-37.08 710.64-42.90L710.64-42.90L710.64-42.90Q713.04-48.72 717.30-52.56L717.30-52.56L717.30-52.56Q721.56-56.40 727.26-58.26L727.26-58.26L727.26-58.26Q732.96-60.12 739.56-60.12L739.56-60.12L739.56-60.12Q741.96-60.12 744.24-59.70L744.24-59.70L744.24-59.70Q746.52-59.28 747.96-58.68L747.96-58.68L747.96-78.12L747.96-78.12Q749.16-78.48 751.80-78.90L751.80-78.90L751.80-78.90Q754.44-79.32 757.20-79.32L757.20-79.32L757.20-79.32Q759.84-79.32 761.94-78.96L761.94-78.96L761.94-78.96Q764.04-78.60 765.48-77.52L765.48-77.52L765.48-77.52Q766.92-76.44 767.64-74.58L767.64-74.58L767.64-74.58Q768.36-72.72 768.36-69.72L768.36-69.72L768.36-12.84L768.36-12.84Q768.36-7.20 763.08-3.84L763.08-3.84L763.08-3.84Q759.60-1.56 754.08 0.18L754.08 0.18L754.08 0.18Q748.56 1.92 741.36 1.92L741.36 1.92L741.36 1.92Q733.56 1.92 727.38-0.24L727.38-0.24L727.38-0.24Q721.20-2.40 716.94-6.48L716.94-6.48L716.94-6.48Q712.68-10.56 710.46-16.26L710.46-16.26L710.46-16.26Q708.24-21.96 708.24-29.16ZM742.32-44.16L742.32-44.16L742.32-44.16Q735.84-44.16 732.36-40.44L732.36-40.44L732.36-40.44Q728.88-36.72 728.88-29.16L728.88-29.16L728.88-29.16Q728.88-21.72 732.12-17.94L732.12-17.94L732.12-17.94Q735.36-14.16 741.48-14.16L741.48-14.16L741.48-14.16Q743.64-14.16 745.38-14.82L745.38-14.82L745.38-14.82Q747.12-15.48 748.08-16.32L748.08-16.32L748.08-42.72L748.08-42.72Q745.68-44.16 742.32-44.16ZM806.04-12.96L806.04-12.96L806.04-12.96Q808.08-12.96 810.54-13.38L810.54-13.38L810.54-13.38Q813.00-13.80 814.20-14.52L814.20-14.52L814.20-24.12L805.56-23.40L805.56-23.40Q802.20-23.16 800.04-21.96L800.04-21.96L800.04-21.96Q797.88-20.76 797.88-18.36L797.88-18.36L797.88-18.36Q797.88-15.96 799.74-14.46L799.74-14.46L799.74-14.46Q801.60-12.96 806.04-12.96ZM805.08-60.12L805.08-60.12L805.08-60.12Q811.56-60.12 816.90-58.80L816.90-58.80L816.90-58.80Q822.24-57.48 826.02-54.78L826.02-54.78L826.02-54.78Q829.80-52.08 831.84-47.94L831.84-47.94L831.84-47.94Q833.88-43.80 833.88-38.16L833.88-38.16L833.88-11.28L833.88-11.28Q833.88-8.16 832.14-6.18L832.14-6.18L832.14-6.18Q830.40-4.20 828.00-2.76L828.00-2.76L828.00-2.76Q820.20 1.92 806.04 1.92L806.04 1.92L806.04 1.92Q799.68 1.92 794.58 0.72L794.58 0.72L794.58 0.72Q789.48-0.48 785.82-2.88L785.82-2.88L785.82-2.88Q782.16-5.28 780.18-9L780.18-9L780.18-9Q778.20-12.72 778.20-17.64L778.20-17.64L778.20-17.64Q778.20-25.92 783.12-30.36L783.12-30.36L783.12-30.36Q788.04-34.80 798.36-35.88L798.36-35.88L814.08-37.56L814.08-38.40L814.08-38.40Q814.08-41.88 811.02-43.38L811.02-43.38L811.02-43.38Q807.96-44.88 802.20-44.88L802.20-44.88L802.20-44.88Q797.64-44.88 793.32-43.92L793.32-43.92L793.32-43.92Q789.00-42.96 785.52-41.52L785.52-41.52L785.52-41.52Q783.96-42.60 782.88-44.82L782.88-44.82L782.88-44.82Q781.80-47.04 781.80-49.44L781.80-49.44L781.80-49.44Q781.80-52.56 783.30-54.42L783.30-54.42L783.30-54.42Q784.80-56.28 787.92-57.60L787.92-57.60L787.92-57.60Q791.40-58.92 796.14-59.52L796.14-59.52L796.14-59.52Q800.88-60.12 805.08-60.12Z" fill="url(#editing-shiny-gradient)"></path></g></g><g filter="url(#editing-shiny2)"><g transform="translate(-168.319997549057, 128.52000045776367)"><path d="M23.28-70.56L23.28-70.56L23.28-70.56Q25.32-71.76 29.46-72.84L29.46-72.84L29.46-72.84Q33.60-73.92 37.80-73.92L37.80-73.92L37.80-73.92Q43.80-73.92 48.42-72.18L48.42-72.18L48.42-72.18Q53.04-70.44 54.36-66.72L54.36-66.72L54.36-66.72Q56.52-60.48 59.04-52.20L59.04-52.20L59.04-52.20Q61.56-43.92 64.08-35.10L64.08-35.10L64.08-35.10Q66.60-26.28 69-17.70L69-17.70L69-17.70Q71.40-9.12 73.20-2.52L73.20-2.52L73.20-2.52Q71.76-0.84 68.88 0.18L68.88 0.18L68.88 0.18Q66 1.20 62.04 1.20L62.04 1.20L62.04 1.20Q59.16 1.20 57.18 0.72L57.18 0.72L57.18 0.72Q55.20 0.24 53.94-0.72L53.94-0.72L53.94-0.72Q52.68-1.68 51.90-3.24L51.90-3.24L51.90-3.24Q51.12-4.80 50.52-6.84L50.52-6.84L48.36-15.12L26.64-15.12L26.64-15.12Q25.68-11.52 24.72-7.68L24.72-7.68L24.72-7.68Q23.76-3.84 22.80-0.24L22.80-0.24L22.80-0.24Q21.12 0.36 19.26 0.78L19.26 0.78L19.26 0.78Q17.40 1.20 14.76 1.20L14.76 1.20L14.76 1.20Q8.64 1.20 5.70-0.90L5.70-0.90L5.70-0.90Q2.76-3 2.76-6.72L2.76-6.72L2.76-6.72Q2.76-8.40 3.24-10.08L3.24-10.08L3.24-10.08Q3.72-11.76 4.32-14.04L4.32-14.04L4.32-14.04Q5.16-17.28 6.66-22.08L6.66-22.08L6.66-22.08Q8.16-26.88 9.96-32.46L9.96-32.46L9.96-32.46Q11.76-38.04 13.80-43.92L13.80-43.92L13.80-43.92Q15.84-49.80 17.64-55.02L17.64-55.02L17.64-55.02Q19.44-60.24 20.94-64.32L20.94-64.32L20.94-64.32Q22.44-68.40 23.28-70.56ZM38.40-55.08L37.68-55.08L37.68-55.08Q36-50.04 33.90-43.86L33.90-43.86L33.90-43.86Q31.80-37.68 30.12-31.32L30.12-31.32L45-31.32L45-31.32Q43.32-37.80 41.58-43.98L41.58-43.98L41.58-43.98Q39.84-50.16 38.40-55.08L38.40-55.08ZM109.32-60.12L109.32-60.12L109.32-60.12Q116.16-60.12 121.74-58.38L121.74-58.38L121.74-58.38Q127.32-56.64 131.16-53.88L131.16-53.88L131.16-53.88Q133.56-52.20 134.94-50.16L134.94-50.16L134.94-50.16Q136.32-48.12 136.32-44.88L136.32-44.88L136.32-2.88L136.32-2.88Q136.32 3.48 133.92 8.10L133.92 8.10L133.92 8.10Q131.52 12.72 127.38 15.78L127.38 15.78L127.38 15.78Q123.24 18.84 117.66 20.28L117.66 20.28L117.66 20.28Q112.08 21.72 105.72 21.72L105.72 21.72L105.72 21.72Q94.80 21.72 88.56 18.78L88.56 18.78L88.56 18.78Q82.32 15.84 82.32 9.24L82.32 9.24L82.32 9.24Q82.32 6.48 83.46 4.38L83.46 4.38L83.46 4.38Q84.60 2.28 86.04 1.20L86.04 1.20L86.04 1.20Q89.52 3.12 93.90 4.44L93.90 4.44L93.90 4.44Q98.28 5.76 102.96 5.76L102.96 5.76L102.96 5.76Q109.44 5.76 113.28 3.60L113.28 3.60L113.28 3.60Q117.12 1.44 117.12-3.36L117.12-3.36L117.12-5.28L117.12-5.28Q112.20-3.12 105.12-3.12L105.12-3.12L105.12-3.12Q99.72-3.12 94.86-4.74L94.86-4.74L94.86-4.74Q90-6.36 86.34-9.78L86.34-9.78L86.34-9.78Q82.68-13.20 80.46-18.60L80.46-18.60L80.46-18.60Q78.24-24 78.24-31.44L78.24-31.44L78.24-31.44Q78.24-38.76 80.58-44.16L80.58-44.16L80.58-44.16Q82.92-49.56 87.06-53.10L87.06-53.10L87.06-53.10Q91.20-56.64 96.90-58.38L96.90-58.38L96.90-58.38Q102.60-60.12 109.32-60.12ZM116.76-20.64L116.76-42.72L116.76-42.72Q115.92-43.20 114.30-43.68L114.30-43.68L114.30-43.68Q112.68-44.16 110.28-44.16L110.28-44.16L110.28-44.16Q104.40-44.16 101.46-40.86L101.46-40.86L101.46-40.86Q98.52-37.56 98.52-31.44L98.52-31.44L98.52-31.44Q98.52-24.48 101.46-21.42L101.46-21.42L101.46-21.42Q104.40-18.36 108.96-18.36L108.96-18.36L108.96-18.36Q113.88-18.36 116.76-20.64L116.76-20.64ZM177.36-60.12L177.36-60.12L177.36-60.12Q184.20-60.12 189.78-58.38L189.78-58.38L189.78-58.38Q195.36-56.64 199.20-53.88L199.20-53.88L199.20-53.88Q201.60-52.20 202.98-50.16L202.98-50.16L202.98-50.16Q204.36-48.12 204.36-44.88L204.36-44.88L204.36-2.88L204.36-2.88Q204.36 3.48 201.96 8.10L201.96 8.10L201.96 8.10Q199.56 12.72 195.42 15.78L195.42 15.78L195.42 15.78Q191.28 18.84 185.70 20.28L185.70 20.28L185.70 20.28Q180.12 21.72 173.76 21.72L173.76 21.72L173.76 21.72Q162.84 21.72 156.60 18.78L156.60 18.78L156.60 18.78Q150.36 15.84 150.36 9.24L150.36 9.24L150.36 9.24Q150.36 6.48 151.50 4.38L151.50 4.38L151.50 4.38Q152.64 2.28 154.08 1.20L154.08 1.20L154.08 1.20Q157.56 3.12 161.94 4.44L161.94 4.44L161.94 4.44Q166.32 5.76 171 5.76L171 5.76L171 5.76Q177.48 5.76 181.32 3.60L181.32 3.60L181.32 3.60Q185.16 1.44 185.16-3.36L185.16-3.36L185.16-5.28L185.16-5.28Q180.24-3.12 173.16-3.12L173.16-3.12L173.16-3.12Q167.76-3.12 162.90-4.74L162.90-4.74L162.90-4.74Q158.04-6.36 154.38-9.78L154.38-9.78L154.38-9.78Q150.72-13.20 148.50-18.60L148.50-18.60L148.50-18.60Q146.28-24 146.28-31.44L146.28-31.44L146.28-31.44Q146.28-38.76 148.62-44.16L148.62-44.16L148.62-44.16Q150.96-49.56 155.10-53.10L155.10-53.10L155.10-53.10Q159.24-56.64 164.94-58.38L164.94-58.38L164.94-58.38Q170.64-60.12 177.36-60.12ZM184.80-20.64L184.80-42.72L184.80-42.72Q183.96-43.20 182.34-43.68L182.34-43.68L182.34-43.68Q180.72-44.16 178.32-44.16L178.32-44.16L178.32-44.16Q172.44-44.16 169.50-40.86L169.50-40.86L169.50-40.86Q166.56-37.56 166.56-31.44L166.56-31.44L166.56-31.44Q166.56-24.48 169.50-21.42L169.50-21.42L169.50-21.42Q172.44-18.36 177-18.36L177-18.36L177-18.36Q181.92-18.36 184.80-20.64L184.80-20.64ZM237.36-41.04L237.36-0.12L237.36-0.12Q236.16 0.24 233.58 0.60L233.58 0.60L233.58 0.60Q231 0.96 228.24 0.96L228.24 0.96L228.24 0.96Q225.60 0.96 223.50 0.60L223.50 0.60L223.50 0.60Q221.40 0.24 219.96-0.84L219.96-0.84L219.96-0.84Q218.52-1.92 217.74-3.78L217.74-3.78L217.74-3.78Q216.96-5.64 216.96-8.64L216.96-8.64L216.96-44.64L216.96-44.64Q216.96-47.40 217.98-49.38L217.98-49.38L217.98-49.38Q219-51.36 220.92-52.92L220.92-52.92L220.92-52.92Q222.84-54.48 225.66-55.74L225.66-55.74L225.66-55.74Q228.48-57 231.72-57.96L231.72-57.96L231.72-57.96Q234.96-58.92 238.44-59.46L238.44-59.46L238.44-59.46Q241.92-60 245.40-60L245.40-60L245.40-60Q251.16-60 254.52-57.78L254.52-57.78L254.52-57.78Q257.88-55.56 257.88-50.52L257.88-50.52L257.88-50.52Q257.88-48.84 257.40-47.22L257.40-47.22L257.40-47.22Q256.92-45.60 256.20-44.28L256.20-44.28L256.20-44.28Q253.68-44.28 251.04-44.04L251.04-44.04L251.04-44.04Q248.40-43.80 245.88-43.32L245.88-43.32L245.88-43.32Q243.36-42.84 241.14-42.30L241.14-42.30L241.14-42.30Q238.92-41.76 237.36-41.04L237.36-41.04ZM294.84 1.92L294.84 1.92L294.84 1.92Q287.76 1.92 281.70-0.06L281.70-0.06L281.70-0.06Q275.64-2.04 271.14-6L271.14-6L271.14-6Q266.64-9.96 264.06-15.96L264.06-15.96L264.06-15.96Q261.48-21.96 261.48-30L261.48-30L261.48-30Q261.48-37.92 264.06-43.62L264.06-43.62L264.06-43.62Q266.64-49.32 270.84-52.98L270.84-52.98L270.84-52.98Q275.04-56.64 280.44-58.38L280.44-58.38L280.44-58.38Q285.84-60.12 291.48-60.12L291.48-60.12L291.48-60.12Q297.84-60.12 303.06-58.20L303.06-58.20L303.06-58.20Q308.28-56.28 312.06-52.92L312.06-52.92L312.06-52.92Q315.84-49.56 317.94-44.88L317.94-44.88L317.94-44.88Q320.04-40.20 320.04-34.68L320.04-34.68L320.04-34.68Q320.04-30.60 317.76-28.44L317.76-28.44L317.76-28.44Q315.48-26.28 311.40-25.68L311.40-25.68L281.76-21.24L281.76-21.24Q283.08-17.28 287.16-15.30L287.16-15.30L287.16-15.30Q291.24-13.32 296.52-13.32L296.52-13.32L296.52-13.32Q301.44-13.32 305.82-14.58L305.82-14.58L305.82-14.58Q310.20-15.84 312.96-17.52L312.96-17.52L312.96-17.52Q314.88-16.32 316.20-14.16L316.20-14.16L316.20-14.16Q317.52-12 317.52-9.60L317.52-9.60L317.52-9.60Q317.52-4.20 312.48-1.56L312.48-1.56L312.48-1.56Q308.64 0.48 303.84 1.20L303.84 1.20L303.84 1.20Q299.04 1.92 294.84 1.92ZM291.48-45.24L291.48-45.24L291.48-45.24Q288.60-45.24 286.50-44.28L286.50-44.28L286.50-44.28Q284.40-43.32 283.08-41.82L283.08-41.82L283.08-41.82Q281.76-40.32 281.10-38.46L281.10-38.46L281.10-38.46Q280.44-36.60 280.32-34.68L280.32-34.68L300.84-38.04L300.84-38.04Q300.48-40.44 298.20-42.84L298.20-42.84L298.20-42.84Q295.92-45.24 291.48-45.24ZM379.08-17.40L379.08-17.40L379.08-17.40Q379.08-8.28 372.24-3.12L372.24-3.12L372.24-3.12Q365.40 2.04 352.08 2.04L352.08 2.04L352.08 2.04Q347.04 2.04 342.72 1.32L342.72 1.32L342.72 1.32Q338.40 0.60 335.34-0.90L335.34-0.90L335.34-0.90Q332.28-2.40 330.54-4.68L330.54-4.68L330.54-4.68Q328.80-6.96 328.80-10.08L328.80-10.08L328.80-10.08Q328.80-12.96 330.00-14.94L330.00-14.94L330.00-14.94Q331.20-16.92 332.88-18.24L332.88-18.24L332.88-18.24Q336.36-16.32 340.86-14.82L340.86-14.82L340.86-14.82Q345.36-13.32 351.24-13.32L351.24-13.32L351.24-13.32Q354.96-13.32 356.94-14.40L356.94-14.40L356.94-14.40Q358.92-15.48 358.92-17.28L358.92-17.28L358.92-17.28Q358.92-18.96 357.48-19.92L357.48-19.92L357.48-19.92Q356.04-20.88 352.68-21.48L352.68-21.48L349.08-22.20L349.08-22.20Q338.64-24.24 333.54-28.62L333.54-28.62L333.54-28.62Q328.44-33 328.44-41.16L328.44-41.16L328.44-41.16Q328.44-45.60 330.36-49.20L330.36-49.20L330.36-49.20Q332.28-52.80 335.76-55.20L335.76-55.20L335.76-55.20Q339.24-57.60 344.10-58.92L344.10-58.92L344.10-58.92Q348.96-60.24 354.84-60.24L354.84-60.24L354.84-60.24Q359.28-60.24 363.18-59.58L363.18-59.58L363.18-59.58Q367.08-58.92 369.96-57.60L369.96-57.60L369.96-57.60Q372.84-56.28 374.52-54.18L374.52-54.18L374.52-54.18Q376.20-52.08 376.20-49.20L376.20-49.20L376.20-49.20Q376.20-46.44 375.18-44.46L375.18-44.46L375.18-44.46Q374.16-42.48 372.60-41.16L372.60-41.16L372.60-41.16Q371.64-41.76 369.72-42.42L369.72-42.42L369.72-42.42Q367.80-43.08 365.52-43.62L365.52-43.62L365.52-43.62Q363.24-44.16 360.90-44.52L360.90-44.52L360.90-44.52Q358.56-44.88 356.64-44.88L356.64-44.88L356.64-44.88Q352.68-44.88 350.52-43.98L350.52-43.98L350.52-43.98Q348.36-43.08 348.36-41.16L348.36-41.16L348.36-41.16Q348.36-39.84 349.56-39L349.56-39L349.56-39Q350.76-38.16 354.12-37.44L354.12-37.44L357.84-36.60L357.84-36.60Q369.36-33.96 374.22-29.34L374.22-29.34L374.22-29.34Q379.08-24.72 379.08-17.40ZM438.12-17.40L438.12-17.40L438.12-17.40Q438.12-8.28 431.28-3.12L431.28-3.12L431.28-3.12Q424.44 2.04 411.12 2.04L411.12 2.04L411.12 2.04Q406.08 2.04 401.76 1.32L401.76 1.32L401.76 1.32Q397.44 0.60 394.38-0.90L394.38-0.90L394.38-0.90Q391.32-2.40 389.58-4.68L389.58-4.68L389.58-4.68Q387.84-6.96 387.84-10.08L387.84-10.08L387.84-10.08Q387.84-12.96 389.04-14.94L389.04-14.94L389.04-14.94Q390.24-16.92 391.92-18.24L391.92-18.24L391.92-18.24Q395.40-16.32 399.90-14.82L399.90-14.82L399.90-14.82Q404.40-13.32 410.28-13.32L410.28-13.32L410.28-13.32Q414.00-13.32 415.98-14.40L415.98-14.40L415.98-14.40Q417.96-15.48 417.96-17.28L417.96-17.28L417.96-17.28Q417.96-18.96 416.52-19.92L416.52-19.92L416.52-19.92Q415.08-20.88 411.72-21.48L411.72-21.48L408.12-22.20L408.12-22.20Q397.68-24.24 392.58-28.62L392.58-28.62L392.58-28.62Q387.48-33 387.48-41.16L387.48-41.16L387.48-41.16Q387.48-45.60 389.40-49.20L389.40-49.20L389.40-49.20Q391.32-52.80 394.80-55.20L394.80-55.20L394.80-55.20Q398.28-57.60 403.14-58.92L403.14-58.92L403.14-58.92Q408.00-60.24 413.88-60.24L413.88-60.24L413.88-60.24Q418.32-60.24 422.22-59.58L422.22-59.58L422.22-59.58Q426.12-58.92 429.00-57.60L429.00-57.60L429.00-57.60Q431.88-56.28 433.56-54.18L433.56-54.18L433.56-54.18Q435.24-52.08 435.24-49.20L435.24-49.20L435.24-49.20Q435.24-46.44 434.22-44.46L434.22-44.46L434.22-44.46Q433.20-42.48 431.64-41.16L431.64-41.16L431.64-41.16Q430.68-41.76 428.76-42.42L428.76-42.42L428.76-42.42Q426.84-43.08 424.56-43.62L424.56-43.62L424.56-43.62Q422.28-44.16 419.94-44.52L419.94-44.52L419.94-44.52Q417.60-44.88 415.68-44.88L415.68-44.88L415.68-44.88Q411.72-44.88 409.56-43.98L409.56-43.98L409.56-43.98Q407.40-43.08 407.40-41.16L407.40-41.16L407.40-41.16Q407.40-39.84 408.60-39L408.60-39L408.60-39Q409.80-38.16 413.16-37.44L413.16-37.44L416.88-36.60L416.88-36.60Q428.40-33.96 433.26-29.34L433.26-29.34L433.26-29.34Q438.12-24.72 438.12-17.40ZM447.48-74.52L447.48-74.52L447.48-74.52Q447.48-79.08 450.54-82.20L450.54-82.20L450.54-82.20Q453.60-85.32 458.64-85.32L458.64-85.32L458.64-85.32Q463.68-85.32 466.74-82.20L466.74-82.20L466.74-82.20Q469.80-79.08 469.80-74.52L469.80-74.52L469.80-74.52Q469.80-69.96 466.74-66.84L466.74-66.84L466.74-66.84Q463.68-63.72 458.64-63.72L458.64-63.72L458.64-63.72Q453.60-63.72 450.54-66.84L450.54-66.84L450.54-66.84Q447.48-69.96 447.48-74.52ZM468.84-48.96L468.84-0.12L468.84-0.12Q467.52 0.12 464.94 0.54L464.94 0.54L464.94 0.54Q462.36 0.96 459.72 0.96L459.72 0.96L459.72 0.96Q457.08 0.96 454.98 0.60L454.98 0.60L454.98 0.60Q452.88 0.24 451.44-0.84L451.44-0.84L451.44-0.84Q450.00-1.92 449.22-3.78L449.22-3.78L449.22-3.78Q448.44-5.64 448.44-8.64L448.44-8.64L448.44-57.48L448.44-57.48Q449.76-57.72 452.34-58.14L452.34-58.14L452.34-58.14Q454.92-58.56 457.56-58.56L457.56-58.56L457.56-58.56Q460.20-58.56 462.30-58.20L462.30-58.20L462.30-58.20Q464.40-57.84 465.84-56.76L465.84-56.76L465.84-56.76Q467.28-55.68 468.06-53.82L468.06-53.82L468.06-53.82Q468.84-51.96 468.84-48.96L468.84-48.96ZM520.80-1.56L520.80-1.56L520.80-1.56Q519.12-0.24 515.88 0.60L515.88 0.60L515.88 0.60Q512.64 1.44 508.56 1.44L508.56 1.44L508.56 1.44Q503.88 1.44 500.46 0.24L500.46 0.24L500.46 0.24Q497.04-0.96 495.72-3.60L495.72-3.60L495.72-3.60Q494.64-5.64 493.14-9.30L493.14-9.30L493.14-9.30Q491.64-12.96 489.96-17.46L489.96-17.46L489.96-17.46Q488.28-21.96 486.48-27.12L486.48-27.12L486.48-27.12Q484.68-32.28 483.06-37.32L483.06-37.32L483.06-37.32Q481.44-42.36 480.12-47.04L480.12-47.04L480.12-47.04Q478.80-51.72 477.96-55.32L477.96-55.32L477.96-55.32Q479.64-57 482.46-58.26L482.46-58.26L482.46-58.26Q485.28-59.52 488.64-59.52L488.64-59.52L488.64-59.52Q492.84-59.52 495.54-57.78L495.54-57.78L495.54-57.78Q498.24-56.04 499.56-51.24L499.56-51.24L504.24-32.88L504.24-32.88Q505.56-27.48 506.76-23.10L506.76-23.10L506.76-23.10Q507.96-18.72 508.56-16.32L508.56-16.32L509.16-16.32L509.16-16.32Q511.44-25.20 513.96-36L513.96-36L513.96-36Q516.48-46.80 518.52-57.24L518.52-57.24L518.52-57.24Q520.56-58.32 523.14-58.92L523.14-58.92L523.14-58.92Q525.72-59.52 528.12-59.52L528.12-59.52L528.12-59.52Q532.32-59.52 535.20-57.72L535.20-57.72L535.20-57.72Q538.08-55.92 538.08-51.48L538.08-51.48L538.08-51.48Q538.08-49.56 537.18-45.90L537.18-45.90L537.18-45.90Q536.28-42.24 534.90-37.62L534.90-37.62L534.90-37.62Q533.52-33 531.66-27.84L531.66-27.84L531.66-27.84Q529.80-22.68 527.88-17.76L527.88-17.76L527.88-17.76Q525.96-12.84 524.10-8.58L524.10-8.58L524.10-8.58Q522.24-4.32 520.80-1.56ZM577.44 1.92L577.44 1.92L577.44 1.92Q570.36 1.92 564.30-0.06L564.30-0.06L564.30-0.06Q558.24-2.04 553.74-6L553.74-6L553.74-6Q549.24-9.96 546.66-15.96L546.66-15.96L546.66-15.96Q544.08-21.96 544.08-30L544.08-30L544.08-30Q544.08-37.92 546.66-43.62L546.66-43.62L546.66-43.62Q549.24-49.32 553.44-52.98L553.44-52.98L553.44-52.98Q557.64-56.64 563.04-58.38L563.04-58.38L563.04-58.38Q568.44-60.12 574.08-60.12L574.08-60.12L574.08-60.12Q580.44-60.12 585.66-58.20L585.66-58.20L585.66-58.20Q590.88-56.28 594.66-52.92L594.66-52.92L594.66-52.92Q598.44-49.56 600.54-44.88L600.54-44.88L600.54-44.88Q602.64-40.20 602.64-34.68L602.64-34.68L602.64-34.68Q602.64-30.60 600.36-28.44L600.36-28.44L600.36-28.44Q598.08-26.28 594-25.68L594-25.68L564.36-21.24L564.36-21.24Q565.68-17.28 569.76-15.30L569.76-15.30L569.76-15.30Q573.84-13.32 579.12-13.32L579.12-13.32L579.12-13.32Q584.04-13.32 588.42-14.58L588.42-14.58L588.42-14.58Q592.80-15.84 595.56-17.52L595.56-17.52L595.56-17.52Q597.48-16.32 598.80-14.16L598.80-14.16L598.80-14.16Q600.12-12 600.12-9.60L600.12-9.60L600.12-9.60Q600.12-4.20 595.08-1.56L595.08-1.56L595.08-1.56Q591.24 0.48 586.44 1.20L586.44 1.20L586.44 1.20Q581.64 1.92 577.44 1.92ZM574.08-45.24L574.08-45.24L574.08-45.24Q571.20-45.24 569.10-44.28L569.10-44.28L569.10-44.28Q567-43.32 565.68-41.82L565.68-41.82L565.68-41.82Q564.36-40.32 563.70-38.46L563.70-38.46L563.70-38.46Q563.04-36.60 562.92-34.68L562.92-34.68L583.44-38.04L583.44-38.04Q583.08-40.44 580.80-42.84L580.80-42.84L580.80-42.84Q578.52-45.24 574.08-45.24ZM653.52-70.56L653.52-70.56L653.52-70.56Q655.56-71.76 659.70-72.84L659.70-72.84L659.70-72.84Q663.84-73.92 668.04-73.92L668.04-73.92L668.04-73.92Q674.04-73.92 678.66-72.18L678.66-72.18L678.66-72.18Q683.28-70.44 684.60-66.72L684.60-66.72L684.60-66.72Q686.76-60.48 689.28-52.20L689.28-52.20L689.28-52.20Q691.80-43.92 694.32-35.10L694.32-35.10L694.32-35.10Q696.84-26.28 699.24-17.70L699.24-17.70L699.24-17.70Q701.64-9.12 703.44-2.52L703.44-2.52L703.44-2.52Q702-0.84 699.12 0.18L699.12 0.18L699.12 0.18Q696.24 1.20 692.28 1.20L692.28 1.20L692.28 1.20Q689.40 1.20 687.42 0.72L687.42 0.72L687.42 0.72Q685.44 0.24 684.18-0.72L684.18-0.72L684.18-0.72Q682.92-1.68 682.14-3.24L682.14-3.24L682.14-3.24Q681.36-4.80 680.76-6.84L680.76-6.84L678.60-15.12L656.88-15.12L656.88-15.12Q655.92-11.52 654.96-7.68L654.96-7.68L654.96-7.68Q654-3.84 653.04-0.24L653.04-0.24L653.04-0.24Q651.36 0.36 649.50 0.78L649.50 0.78L649.50 0.78Q647.64 1.20 645 1.20L645 1.20L645 1.20Q638.88 1.20 635.94-0.90L635.94-0.90L635.94-0.90Q633-3 633-6.72L633-6.72L633-6.72Q633-8.40 633.48-10.08L633.48-10.08L633.48-10.08Q633.96-11.76 634.56-14.04L634.56-14.04L634.56-14.04Q635.40-17.28 636.90-22.08L636.90-22.08L636.90-22.08Q638.40-26.88 640.20-32.46L640.20-32.46L640.20-32.46Q642-38.04 644.04-43.92L644.04-43.92L644.04-43.92Q646.08-49.80 647.88-55.02L647.88-55.02L647.88-55.02Q649.68-60.24 651.18-64.32L651.18-64.32L651.18-64.32Q652.68-68.40 653.52-70.56ZM668.64-55.08L667.92-55.08L667.92-55.08Q666.24-50.04 664.14-43.86L664.14-43.86L664.14-43.86Q662.04-37.68 660.36-31.32L660.36-31.32L675.24-31.32L675.24-31.32Q673.56-37.80 671.82-43.98L671.82-43.98L671.82-43.98Q670.08-50.16 668.64-55.08L668.64-55.08ZM708.24-29.16L708.24-29.16L708.24-29.16Q708.24-37.08 710.64-42.90L710.64-42.90L710.64-42.90Q713.04-48.72 717.30-52.56L717.30-52.56L717.30-52.56Q721.56-56.40 727.26-58.26L727.26-58.26L727.26-58.26Q732.96-60.12 739.56-60.12L739.56-60.12L739.56-60.12Q741.96-60.12 744.24-59.70L744.24-59.70L744.24-59.70Q746.52-59.28 747.96-58.68L747.96-58.68L747.96-78.12L747.96-78.12Q749.16-78.48 751.80-78.90L751.80-78.90L751.80-78.90Q754.44-79.32 757.20-79.32L757.20-79.32L757.20-79.32Q759.84-79.32 761.94-78.96L761.94-78.96L761.94-78.96Q764.04-78.60 765.48-77.52L765.48-77.52L765.48-77.52Q766.92-76.44 767.64-74.58L767.64-74.58L767.64-74.58Q768.36-72.72 768.36-69.72L768.36-69.72L768.36-12.84L768.36-12.84Q768.36-7.20 763.08-3.84L763.08-3.84L763.08-3.84Q759.60-1.56 754.08 0.18L754.08 0.18L754.08 0.18Q748.56 1.92 741.36 1.92L741.36 1.92L741.36 1.92Q733.56 1.92 727.38-0.24L727.38-0.24L727.38-0.24Q721.20-2.40 716.94-6.48L716.94-6.48L716.94-6.48Q712.68-10.56 710.46-16.26L710.46-16.26L710.46-16.26Q708.24-21.96 708.24-29.16ZM742.32-44.16L742.32-44.16L742.32-44.16Q735.84-44.16 732.36-40.44L732.36-40.44L732.36-40.44Q728.88-36.72 728.88-29.16L728.88-29.16L728.88-29.16Q728.88-21.72 732.12-17.94L732.12-17.94L732.12-17.94Q735.36-14.16 741.48-14.16L741.48-14.16L741.48-14.16Q743.64-14.16 745.38-14.82L745.38-14.82L745.38-14.82Q747.12-15.48 748.08-16.32L748.08-16.32L748.08-42.72L748.08-42.72Q745.68-44.16 742.32-44.16ZM806.04-12.96L806.04-12.96L806.04-12.96Q808.08-12.96 810.54-13.38L810.54-13.38L810.54-13.38Q813.00-13.80 814.20-14.52L814.20-14.52L814.20-24.12L805.56-23.40L805.56-23.40Q802.20-23.16 800.04-21.96L800.04-21.96L800.04-21.96Q797.88-20.76 797.88-18.36L797.88-18.36L797.88-18.36Q797.88-15.96 799.74-14.46L799.74-14.46L799.74-14.46Q801.60-12.96 806.04-12.96ZM805.08-60.12L805.08-60.12L805.08-60.12Q811.56-60.12 816.90-58.80L816.90-58.80L816.90-58.80Q822.24-57.48 826.02-54.78L826.02-54.78L826.02-54.78Q829.80-52.08 831.84-47.94L831.84-47.94L831.84-47.94Q833.88-43.80 833.88-38.16L833.88-38.16L833.88-11.28L833.88-11.28Q833.88-8.16 832.14-6.18L832.14-6.18L832.14-6.18Q830.40-4.20 828.00-2.76L828.00-2.76L828.00-2.76Q820.20 1.92 806.04 1.92L806.04 1.92L806.04 1.92Q799.68 1.92 794.58 0.72L794.58 0.72L794.58 0.72Q789.48-0.48 785.82-2.88L785.82-2.88L785.82-2.88Q782.16-5.28 780.18-9L780.18-9L780.18-9Q778.20-12.72 778.20-17.64L778.20-17.64L778.20-17.64Q778.20-25.92 783.12-30.36L783.12-30.36L783.12-30.36Q788.04-34.80 798.36-35.88L798.36-35.88L814.08-37.56L814.08-38.40L814.08-38.40Q814.08-41.88 811.02-43.38L811.02-43.38L811.02-43.38Q807.96-44.88 802.20-44.88L802.20-44.88L802.20-44.88Q797.64-44.88 793.32-43.92L793.32-43.92L793.32-43.92Q789.00-42.96 785.52-41.52L785.52-41.52L785.52-41.52Q783.96-42.60 782.88-44.82L782.88-44.82L782.88-44.82Q781.80-47.04 781.80-49.44L781.80-49.44L781.80-49.44Q781.80-52.56 783.30-54.42L783.30-54.42L783.30-54.42Q784.80-56.28 787.92-57.60L787.92-57.60L787.92-57.60Q791.40-58.92 796.14-59.52L796.14-59.52L796.14-59.52Q800.88-60.12 805.08-60.12Z" fill="url(#editing-shiny-gradient2)"></path></g></g><style>text {
  font-size: 64px;
  font-family: Arial Black;
  dominant-baseline: central;
  text-anchor: middle;
}</style></svg>