<svg width="979.31005859375px" height="270.835009765625px" xmlns="http://www.w3.org/2000/svg" viewBox="-239.655029296875 -60.417504882812494 979.31005859375 270.835009765625" style="background: none;" preserveAspectRatio="xMidYMid"><defs><linearGradient id="editing-shiny-gradient" x1="0.04322727117869957" x2="0.9567727288213004" y1="0.2966316784620999" y2="0.7033683215379001" gradientUnits="objectBoundingBox"><stop offset="0.0" stop-color="#f7d038"></stop><stop offset="0.5" stop-color="#a3e048"></stop><stop offset="1.0" stop-color="#49da9a"></stop></linearGradient><linearGradient id="editing-shiny-gradient2" x1="0" x2="0" y1="0" y2="1"><stop offset="0.2" stop-color="#fff" stop-opacity="0.8"></stop><stop offset="0.8" stop-color="#fff" stop-opacity="0"></stop></linearGradient><filter id="editing-shiny2" x="-100%" y="-100%" width="300%" height="300%"><feMorphology operator="erode" radius="2"></feMorphology></filter><filter id="editing-shiny" x="-100%" y="-100%" width="300%" height="300%"><feFlood flood-color="#fff" result="flood"></feFlood><feConvolveMatrix in="SourceGraphic" result="conv" order="8,8" divisor="1" kernelMatrix="0 0 0 0 0 0 0 0 0 0 0 1 1 0 0 0 0 0 0 1 1 0 0 0 0 0 1 0 0 1 0 0 0 0 1 0 0 1 0 0 0 1 0 0 0 0 1 0 0 1 1 0 0 1 1 0 0 0 0 1 1 0 0 0 "></feConvolveMatrix><feOffset dx="0" dy="4" in="conv" result="offset"></feOffset><feComposite operator="in" in="flood" in2="offset" result="comp"></feComposite><feGaussianBlur in="offset" stdDeviation="3" result="shadow"></feGaussianBlur><feColorMatrix in="shadow" type="matrix" values="0.7 0 0 0 0  0 0.7 0 0 0  0 0 0.7 0 0  0 0 0 0.3 0" result="dark-shadow"></feColorMatrix><feOffset dx="0" dy="4" in="dark-shadow" result="offset-shadow"></feOffset><feOffset dx="0" dy="2" in="conv" result="offset-2"></feOffset><feComposite operator="out" in="offset" in2="offset-2" result="edge-diff"></feComposite><feGaussianBlur in="edge-diff" stdDeviation="1" result="edge-blur"></feGaussianBlur><feColorMatrix in="edge-blur" result="edge-shadow" type="matrix" values="0 0 0 0 0  0 0 0 0 0  0 0 0 0 0  0 0 0 0.5 0"></feColorMatrix><feComposite operator="in" in="edge-shadow" in2="offset" result="edge-shadow-in"></feComposite><feOffset dx="0" dy="1" in="edge-shadow-in" result="edge-shadow-final"></feOffset><feMerge result="out"><feMergeNode in="offset-shadow"></feMergeNode><feMergeNode in="comp"></feMergeNode><feMergeNode in="edge-shadow-final"></feMergeNode><feMergeNode in="SourceGraphic"></feMergeNode></feMerge></filter></defs><g filter="url(#editing-shiny)"><g transform="translate(-104.78001117706299, 122.58000183105469)"><path d="M72.84-63.84L72.84-0.48L72.84-0.48Q71.52-0.12 68.70 0.24L68.70 0.24L68.70 0.24Q65.88 0.60 63.12 0.60L63.12 0.60L63.12 0.60Q60.36 0.60 58.26 0.18L58.26 0.18L58.26 0.18Q56.16-0.24 54.72-1.32L54.72-1.32L54.72-1.32Q53.28-2.40 52.56-4.32L52.56-4.32L52.56-4.32Q51.84-6.24 51.84-9.36L51.84-9.36L51.84-28.08L28.80-28.08L28.80-0.48L28.80-0.48Q27.48-0.12 24.66 0.24L24.66 0.24L24.66 0.24Q21.84 0.60 19.08 0.60L19.08 0.60L19.08 0.60Q16.32 0.60 14.22 0.18L14.22 0.18L14.22 0.18Q12.12-0.24 10.68-1.32L10.68-1.32L10.68-1.32Q9.24-2.40 8.52-4.32L8.52-4.32L8.52-4.32Q7.80-6.24 7.80-9.36L7.80-9.36L7.80-72.72L7.80-72.72Q9.12-72.96 12-73.38L12-73.38L12-73.38Q14.88-73.80 17.52-73.80L17.52-73.80L17.52-73.80Q20.28-73.80 22.38-73.38L22.38-73.38L22.38-73.38Q24.48-72.96 25.92-71.88L25.92-71.88L25.92-71.88Q27.36-70.80 28.08-68.88L28.08-68.88L28.08-68.88Q28.80-66.96 28.80-63.84L28.80-63.84L28.80-44.64L51.84-44.64L51.84-72.72L51.84-72.72Q53.16-72.96 56.04-73.38L56.04-73.38L56.04-73.38Q58.92-73.80 61.56-73.80L61.56-73.80L61.56-73.80Q64.32-73.80 66.42-73.38L66.42-73.38L66.42-73.38Q68.52-72.96 69.96-71.88L69.96-71.88L69.96-71.88Q71.40-70.80 72.12-68.88L72.12-68.88L72.12-68.88Q72.84-66.96 72.84-63.84L72.84-63.84ZM111.84-12.96L111.84-12.96L111.84-12.96Q113.88-12.96 116.34-13.38L116.34-13.38L116.34-13.38Q118.80-13.80 120-14.52L120-14.52L120-24.12L111.36-23.40L111.36-23.40Q108-23.16 105.84-21.96L105.84-21.96L105.84-21.96Q103.68-20.76 103.68-18.36L103.68-18.36L103.68-18.36Q103.68-15.96 105.54-14.46L105.54-14.46L105.54-14.46Q107.40-12.96 111.84-12.96ZM110.88-60.12L110.88-60.12L110.88-60.12Q117.36-60.12 122.70-58.80L122.70-58.80L122.70-58.80Q128.04-57.48 131.82-54.78L131.82-54.78L131.82-54.78Q135.60-52.08 137.64-47.94L137.64-47.94L137.64-47.94Q139.68-43.80 139.68-38.16L139.68-38.16L139.68-11.28L139.68-11.28Q139.68-8.16 137.94-6.18L137.94-6.18L137.94-6.18Q136.20-4.20 133.80-2.76L133.80-2.76L133.80-2.76Q126 1.92 111.84 1.92L111.84 1.92L111.84 1.92Q105.48 1.92 100.38 0.72L100.38 0.72L100.38 0.72Q95.28-0.48 91.62-2.88L91.62-2.88L91.62-2.88Q87.96-5.28 85.98-9L85.98-9L85.98-9Q84-12.72 84-17.64L84-17.64L84-17.64Q84-25.92 88.92-30.36L88.92-30.36L88.92-30.36Q93.84-34.80 104.16-35.88L104.16-35.88L119.88-37.56L119.88-38.40L119.88-38.40Q119.88-41.88 116.82-43.38L116.82-43.38L116.82-43.38Q113.76-44.88 108-44.88L108-44.88L108-44.88Q103.44-44.88 99.12-43.92L99.12-43.92L99.12-43.92Q94.80-42.96 91.32-41.52L91.32-41.52L91.32-41.52Q89.76-42.60 88.68-44.82L88.68-44.82L88.68-44.82Q87.60-47.04 87.60-49.44L87.60-49.44L87.60-49.44Q87.60-52.56 89.10-54.42L89.10-54.42L89.10-54.42Q90.60-56.28 93.72-57.60L93.72-57.60L93.72-57.60Q97.20-58.92 101.94-59.52L101.94-59.52L101.94-59.52Q106.68-60.12 110.88-60.12ZM178.92-60.12L178.92-60.12L178.92-60.12Q186.12-60.12 192.30-58.26L192.30-58.26L192.30-58.26Q198.48-56.40 202.92-52.56L202.92-52.56L202.92-52.56Q207.36-48.72 209.88-42.90L209.88-42.90L209.88-42.90Q212.40-37.08 212.40-29.04L212.40-29.04L212.40-29.04Q212.40-21.36 210.24-15.60L210.24-15.60L210.24-15.60Q208.08-9.84 204.12-5.94L204.12-5.94L204.12-5.94Q200.16-2.04 194.58-0.12L194.58-0.12L194.58-0.12Q189 1.80 182.16 1.80L182.16 1.80L182.16 1.80Q177 1.80 172.56 0.24L172.56 0.24L172.56 20.16L172.56 20.16Q171.36 20.52 168.72 20.94L168.72 20.94L168.72 20.94Q166.08 21.36 163.32 21.36L163.32 21.36L163.32 21.36Q160.68 21.36 158.58 21L158.58 21L158.58 21Q156.48 20.64 155.04 19.56L155.04 19.56L155.04 19.56Q153.60 18.48 152.88 16.62L152.88 16.62L152.88 16.62Q152.16 14.76 152.16 11.76L152.16 11.76L152.16-45.84L152.16-45.84Q152.16-49.08 153.54-51.12L153.54-51.12L153.54-51.12Q154.92-53.16 157.32-54.84L157.32-54.84L157.32-54.84Q161.04-57.24 166.56-58.68L166.56-58.68L166.56-58.68Q172.08-60.12 178.92-60.12ZM179.16-14.28L179.16-14.28L179.16-14.28Q191.52-14.28 191.52-29.04L191.52-29.04L191.52-29.04Q191.52-36.72 188.46-40.44L188.46-40.44L188.46-40.44Q185.40-44.16 179.64-44.16L179.64-44.16L179.64-44.16Q177.36-44.16 175.56-43.62L175.56-43.62L175.56-43.62Q173.76-43.08 172.44-42.36L172.44-42.36L172.44-15.96L172.44-15.96Q173.88-15.24 175.56-14.76L175.56-14.76L175.56-14.76Q177.24-14.28 179.16-14.28ZM249.12-60.12L249.12-60.12L249.12-60.12Q256.32-60.12 262.50-58.26L262.50-58.26L262.50-58.26Q268.68-56.40 273.12-52.56L273.12-52.56L273.12-52.56Q277.56-48.72 280.08-42.90L280.08-42.90L280.08-42.90Q282.60-37.08 282.60-29.04L282.60-29.04L282.60-29.04Q282.60-21.36 280.44-15.60L280.44-15.60L280.44-15.60Q278.28-9.84 274.32-5.94L274.32-5.94L274.32-5.94Q270.36-2.04 264.78-0.12L264.78-0.12L264.78-0.12Q259.20 1.80 252.36 1.80L252.36 1.80L252.36 1.80Q247.20 1.80 242.76 0.24L242.76 0.24L242.76 20.16L242.76 20.16Q241.56 20.52 238.92 20.94L238.92 20.94L238.92 20.94Q236.28 21.36 233.52 21.36L233.52 21.36L233.52 21.36Q230.88 21.36 228.78 21L228.78 21L228.78 21Q226.68 20.64 225.24 19.56L225.24 19.56L225.24 19.56Q223.80 18.48 223.08 16.62L223.08 16.62L223.08 16.62Q222.36 14.76 222.36 11.76L222.36 11.76L222.36-45.84L222.36-45.84Q222.36-49.08 223.74-51.12L223.74-51.12L223.74-51.12Q225.12-53.16 227.52-54.84L227.52-54.84L227.52-54.84Q231.24-57.24 236.76-58.68L236.76-58.68L236.76-58.68Q242.28-60.12 249.12-60.12ZM249.36-14.28L249.36-14.28L249.36-14.28Q261.72-14.28 261.72-29.04L261.72-29.04L261.72-29.04Q261.72-36.72 258.66-40.44L258.66-40.44L258.66-40.44Q255.60-44.16 249.84-44.16L249.84-44.16L249.84-44.16Q247.56-44.16 245.76-43.62L245.76-43.62L245.76-43.62Q243.96-43.08 242.64-42.36L242.64-42.36L242.64-15.96L242.64-15.96Q244.08-15.24 245.76-14.76L245.76-14.76L245.76-14.76Q247.44-14.28 249.36-14.28ZM300.12-14.88L300.12-14.88L300.12-14.88Q298.80-17.88 297.30-21.60L297.30-21.60L297.30-21.60Q295.80-25.32 294.18-30.12L294.18-30.12L294.18-30.12Q292.56-34.92 290.82-41.10L290.82-41.10L290.82-41.10Q289.08-47.28 287.16-55.32L287.16-55.32L287.16-55.32Q288.84-57 291.66-58.26L291.66-58.26L291.66-58.26Q294.48-59.52 297.84-59.52L297.84-59.52L297.84-59.52Q302.04-59.52 304.80-57.78L304.80-57.78L304.80-57.78Q307.56-56.04 308.88-51.24L308.88-51.24L318.36-18.24L318.84-18.24L318.84-18.24Q320.28-22.32 321.66-27.12L321.66-27.12L321.66-27.12Q323.04-31.92 324.36-37.02L324.36-37.02L324.36-37.02Q325.68-42.12 326.82-47.22L326.82-47.22L326.82-47.22Q327.96-52.32 328.80-57.24L328.80-57.24L328.80-57.24Q333.12-59.52 338.28-59.52L338.28-59.52L338.28-59.52Q342.48-59.52 345.24-57.72L345.24-57.72L345.24-57.72Q348-55.92 348-51.48L348-51.48L348-51.48Q348-48.24 347.16-43.98L347.16-43.98L347.16-43.98Q346.32-39.72 344.94-34.92L344.94-34.92L344.94-34.92Q343.56-30.12 341.70-25.02L341.70-25.02L341.70-25.02Q339.84-19.92 337.80-15L337.80-15L337.80-15Q335.76-10.08 333.60-5.70L333.60-5.70L333.60-5.70Q331.44-1.32 329.40 2.16L329.40 2.16L329.40 2.16Q326.04 8.04 323.16 11.76L323.16 11.76L323.16 11.76Q320.28 15.48 317.64 17.58L317.64 17.58L317.64 17.58Q315 19.68 312.36 20.46L312.36 20.46L312.36 20.46Q309.72 21.24 306.84 21.24L306.84 21.24L306.84 21.24Q301.80 21.24 298.68 18.24L298.68 18.24L298.68 18.24Q295.56 15.24 294.96 10.44L294.96 10.44L294.96 10.44Q298.80 7.44 302.64 3.78L302.64 3.78L302.64 3.78Q306.48 0.12 309.60-3.72L309.60-3.72L309.60-3.72Q307.56-4.32 305.22-6.54L305.22-6.54L305.22-6.54Q302.88-8.76 300.12-14.88ZM447.72-63.84L447.72-0.48L447.72-0.48Q446.40-0.12 443.58 0.24L443.58 0.24L443.58 0.24Q440.76 0.60 438 0.60L438 0.60L438 0.60Q435.24 0.60 433.14 0.18L433.14 0.18L433.14 0.18Q431.04-0.24 429.60-1.32L429.60-1.32L429.60-1.32Q428.16-2.40 427.44-4.32L427.44-4.32L427.44-4.32Q426.72-6.24 426.72-9.36L426.72-9.36L426.72-28.08L403.68-28.08L403.68-0.48L403.68-0.48Q402.36-0.12 399.54 0.24L399.54 0.24L399.54 0.24Q396.72 0.60 393.96 0.60L393.96 0.60L393.96 0.60Q391.20 0.60 389.10 0.18L389.10 0.18L389.10 0.18Q387-0.24 385.56-1.32L385.56-1.32L385.56-1.32Q384.12-2.40 383.40-4.32L383.40-4.32L383.40-4.32Q382.68-6.24 382.68-9.36L382.68-9.36L382.68-72.72L382.68-72.72Q384-72.96 386.88-73.38L386.88-73.38L386.88-73.38Q389.76-73.80 392.40-73.80L392.40-73.80L392.40-73.80Q395.16-73.80 397.26-73.38L397.26-73.38L397.26-73.38Q399.36-72.96 400.80-71.88L400.80-71.88L400.80-71.88Q402.24-70.80 402.96-68.88L402.96-68.88L402.96-68.88Q403.68-66.96 403.68-63.84L403.68-63.84L403.68-44.64L426.72-44.64L426.72-72.72L426.72-72.72Q428.04-72.96 430.92-73.38L430.92-73.38L430.92-73.38Q433.80-73.80 436.44-73.80L436.44-73.80L436.44-73.80Q439.20-73.80 441.30-73.38L441.30-73.38L441.30-73.38Q443.40-72.96 444.84-71.88L444.84-71.88L444.84-71.88Q446.28-70.80 447-68.88L447-68.88L447-68.88Q447.72-66.96 447.72-63.84L447.72-63.84ZM486.72-12.96L486.72-12.96L486.72-12.96Q488.76-12.96 491.22-13.38L491.22-13.38L491.22-13.38Q493.68-13.80 494.88-14.52L494.88-14.52L494.88-24.12L486.24-23.40L486.24-23.40Q482.88-23.16 480.72-21.96L480.72-21.96L480.72-21.96Q478.56-20.76 478.56-18.36L478.56-18.36L478.56-18.36Q478.56-15.96 480.42-14.46L480.42-14.46L480.42-14.46Q482.28-12.96 486.72-12.96ZM485.76-60.12L485.76-60.12L485.76-60.12Q492.24-60.12 497.58-58.80L497.58-58.80L497.58-58.80Q502.92-57.48 506.70-54.78L506.70-54.78L506.70-54.78Q510.48-52.08 512.52-47.94L512.52-47.94L512.52-47.94Q514.56-43.80 514.56-38.16L514.56-38.16L514.56-11.28L514.56-11.28Q514.56-8.16 512.82-6.18L512.82-6.18L512.82-6.18Q511.08-4.20 508.68-2.76L508.68-2.76L508.68-2.76Q500.88 1.92 486.72 1.92L486.72 1.92L486.72 1.92Q480.36 1.92 475.26 0.72L475.26 0.72L475.26 0.72Q470.16-0.48 466.50-2.88L466.50-2.88L466.50-2.88Q462.84-5.28 460.86-9L460.86-9L460.86-9Q458.88-12.72 458.88-17.64L458.88-17.64L458.88-17.64Q458.88-25.92 463.80-30.36L463.80-30.36L463.80-30.36Q468.72-34.80 479.04-35.88L479.04-35.88L494.76-37.56L494.76-38.40L494.76-38.40Q494.76-41.88 491.70-43.38L491.70-43.38L491.70-43.38Q488.64-44.88 482.88-44.88L482.88-44.88L482.88-44.88Q478.32-44.88 474-43.92L474-43.92L474-43.92Q469.68-42.96 466.20-41.52L466.20-41.52L466.20-41.52Q464.64-42.60 463.56-44.82L463.56-44.82L463.56-44.82Q462.48-47.04 462.48-49.44L462.48-49.44L462.48-49.44Q462.48-52.56 463.98-54.42L463.98-54.42L463.98-54.42Q465.48-56.28 468.60-57.60L468.60-57.60L468.60-57.60Q472.08-58.92 476.82-59.52L476.82-59.52L476.82-59.52Q481.56-60.12 485.76-60.12ZM576.24-17.40L576.24-17.40L576.24-17.40Q576.24-8.28 569.40-3.12L569.40-3.12L569.40-3.12Q562.56 2.04 549.24 2.04L549.24 2.04L549.24 2.04Q544.20 2.04 539.88 1.32L539.88 1.32L539.88 1.32Q535.56 0.60 532.50-0.90L532.50-0.90L532.50-0.90Q529.44-2.40 527.70-4.68L527.70-4.68L527.70-4.68Q525.96-6.96 525.96-10.08L525.96-10.08L525.96-10.08Q525.96-12.96 527.16-14.94L527.16-14.94L527.16-14.94Q528.36-16.92 530.04-18.24L530.04-18.24L530.04-18.24Q533.52-16.32 538.02-14.82L538.02-14.82L538.02-14.82Q542.52-13.32 548.40-13.32L548.40-13.32L548.40-13.32Q552.12-13.32 554.10-14.40L554.10-14.40L554.10-14.40Q556.08-15.48 556.08-17.28L556.08-17.28L556.08-17.28Q556.08-18.96 554.64-19.92L554.64-19.92L554.64-19.92Q553.20-20.88 549.84-21.48L549.84-21.48L546.24-22.20L546.24-22.20Q535.80-24.24 530.70-28.62L530.70-28.62L530.70-28.62Q525.60-33 525.60-41.16L525.60-41.16L525.60-41.16Q525.60-45.60 527.52-49.20L527.52-49.20L527.52-49.20Q529.44-52.80 532.92-55.20L532.92-55.20L532.92-55.20Q536.40-57.60 541.26-58.92L541.26-58.92L541.26-58.92Q546.12-60.24 552-60.24L552-60.24L552-60.24Q556.44-60.24 560.34-59.58L560.34-59.58L560.34-59.58Q564.24-58.92 567.12-57.60L567.12-57.60L567.12-57.60Q570-56.28 571.68-54.18L571.68-54.18L571.68-54.18Q573.36-52.08 573.36-49.20L573.36-49.20L573.36-49.20Q573.36-46.44 572.34-44.46L572.34-44.46L572.34-44.46Q571.32-42.48 569.76-41.16L569.76-41.16L569.76-41.16Q568.80-41.76 566.88-42.42L566.88-42.42L566.88-42.42Q564.96-43.08 562.68-43.62L562.68-43.62L562.68-43.62Q560.40-44.16 558.06-44.52L558.06-44.52L558.06-44.52Q555.72-44.88 553.80-44.88L553.80-44.88L553.80-44.88Q549.84-44.88 547.68-43.98L547.68-43.98L547.68-43.98Q545.52-43.08 545.52-41.16L545.52-41.16L545.52-41.16Q545.52-39.84 546.72-39L546.72-39L546.72-39Q547.92-38.16 551.28-37.44L551.28-37.44L555-36.60L555-36.60Q566.52-33.96 571.38-29.34L571.38-29.34L571.38-29.34Q576.24-24.72 576.24-17.40ZM635.28-17.40L635.28-17.40L635.28-17.40Q635.28-8.28 628.44-3.12L628.44-3.12L628.44-3.12Q621.60 2.04 608.28 2.04L608.28 2.04L608.28 2.04Q603.24 2.04 598.92 1.32L598.92 1.32L598.92 1.32Q594.60 0.60 591.54-0.90L591.54-0.90L591.54-0.90Q588.48-2.40 586.74-4.68L586.74-4.68L586.74-4.68Q585.00-6.96 585.00-10.08L585.00-10.08L585.00-10.08Q585.00-12.96 586.20-14.94L586.20-14.94L586.20-14.94Q587.40-16.92 589.08-18.24L589.08-18.24L589.08-18.24Q592.56-16.32 597.06-14.82L597.06-14.82L597.06-14.82Q601.56-13.32 607.44-13.32L607.44-13.32L607.44-13.32Q611.16-13.32 613.14-14.40L613.14-14.40L613.14-14.40Q615.12-15.48 615.12-17.28L615.12-17.28L615.12-17.28Q615.12-18.96 613.68-19.92L613.68-19.92L613.68-19.92Q612.24-20.88 608.88-21.48L608.88-21.48L605.28-22.20L605.28-22.20Q594.84-24.24 589.74-28.62L589.74-28.62L589.74-28.62Q584.64-33 584.64-41.16L584.64-41.16L584.64-41.16Q584.64-45.60 586.56-49.20L586.56-49.20L586.56-49.20Q588.48-52.80 591.96-55.20L591.96-55.20L591.96-55.20Q595.44-57.60 600.30-58.92L600.30-58.92L600.30-58.92Q605.16-60.24 611.04-60.24L611.04-60.24L611.04-60.24Q615.48-60.24 619.38-59.58L619.38-59.58L619.38-59.58Q623.28-58.92 626.16-57.60L626.16-57.60L626.16-57.60Q629.04-56.28 630.72-54.18L630.72-54.18L630.72-54.18Q632.40-52.08 632.40-49.20L632.40-49.20L632.40-49.20Q632.40-46.44 631.38-44.46L631.38-44.46L631.38-44.46Q630.36-42.48 628.80-41.16L628.80-41.16L628.80-41.16Q627.84-41.76 625.92-42.42L625.92-42.42L625.92-42.42Q624.00-43.08 621.72-43.62L621.72-43.62L621.72-43.62Q619.44-44.16 617.10-44.52L617.10-44.52L617.10-44.52Q614.76-44.88 612.84-44.88L612.84-44.88L612.84-44.88Q608.88-44.88 606.72-43.98L606.72-43.98L606.72-43.98Q604.56-43.08 604.56-41.16L604.56-41.16L604.56-41.16Q604.56-39.84 605.76-39L605.76-39L605.76-39Q606.96-38.16 610.32-37.44L610.32-37.44L614.04-36.60L614.04-36.60Q625.56-33.96 630.42-29.34L630.42-29.34L630.42-29.34Q635.28-24.72 635.28-17.40ZM676.56 1.92L676.56 1.92L676.56 1.92Q669.48 1.92 663.42-0.06L663.42-0.06L663.42-0.06Q657.36-2.04 652.86-6L652.86-6L652.86-6Q648.36-9.96 645.78-15.96L645.78-15.96L645.78-15.96Q643.20-21.96 643.20-30L643.20-30L643.20-30Q643.20-37.92 645.78-43.62L645.78-43.62L645.78-43.62Q648.36-49.32 652.56-52.98L652.56-52.98L652.56-52.98Q656.76-56.64 662.16-58.38L662.16-58.38L662.16-58.38Q667.56-60.12 673.20-60.12L673.20-60.12L673.20-60.12Q679.56-60.12 684.78-58.20L684.78-58.20L684.78-58.20Q690.00-56.28 693.78-52.92L693.78-52.92L693.78-52.92Q697.56-49.56 699.66-44.88L699.66-44.88L699.66-44.88Q701.76-40.20 701.76-34.68L701.76-34.68L701.76-34.68Q701.76-30.60 699.48-28.44L699.48-28.44L699.48-28.44Q697.20-26.28 693.12-25.68L693.12-25.68L663.48-21.24L663.48-21.24Q664.80-17.28 668.88-15.30L668.88-15.30L668.88-15.30Q672.96-13.32 678.24-13.32L678.24-13.32L678.24-13.32Q683.16-13.32 687.54-14.58L687.54-14.58L687.54-14.58Q691.92-15.84 694.68-17.52L694.68-17.52L694.68-17.52Q696.60-16.32 697.92-14.16L697.92-14.16L697.92-14.16Q699.24-12 699.24-9.60L699.24-9.60L699.24-9.60Q699.24-4.20 694.20-1.56L694.20-1.56L694.20-1.56Q690.36 0.48 685.56 1.20L685.56 1.20L685.56 1.20Q680.76 1.92 676.56 1.92ZM673.20-45.24L673.20-45.24L673.20-45.24Q670.32-45.24 668.22-44.28L668.22-44.28L668.22-44.28Q666.12-43.32 664.80-41.82L664.80-41.82L664.80-41.82Q663.48-40.32 662.82-38.46L662.82-38.46L662.82-38.46Q662.16-36.60 662.04-34.68L662.04-34.68L682.56-38.04L682.56-38.04Q682.20-40.44 679.92-42.84L679.92-42.84L679.92-42.84Q677.64-45.24 673.20-45.24Z" fill="url(#editing-shiny-gradient)"></path></g></g><g filter="url(#editing-shiny2)"><g transform="translate(-104.78001117706299, 122.58000183105469)"><path d="M72.84-63.84L72.84-0.48L72.84-0.48Q71.52-0.12 68.70 0.24L68.70 0.24L68.70 0.24Q65.88 0.60 63.12 0.60L63.12 0.60L63.12 0.60Q60.36 0.60 58.26 0.18L58.26 0.18L58.26 0.18Q56.16-0.24 54.72-1.32L54.72-1.32L54.72-1.32Q53.28-2.40 52.56-4.32L52.56-4.32L52.56-4.32Q51.84-6.24 51.84-9.36L51.84-9.36L51.84-28.08L28.80-28.08L28.80-0.48L28.80-0.48Q27.48-0.12 24.66 0.24L24.66 0.24L24.66 0.24Q21.84 0.60 19.08 0.60L19.08 0.60L19.08 0.60Q16.32 0.60 14.22 0.18L14.22 0.18L14.22 0.18Q12.12-0.24 10.68-1.32L10.68-1.32L10.68-1.32Q9.24-2.40 8.52-4.32L8.52-4.32L8.52-4.32Q7.80-6.24 7.80-9.36L7.80-9.36L7.80-72.72L7.80-72.72Q9.12-72.96 12-73.38L12-73.38L12-73.38Q14.88-73.80 17.52-73.80L17.52-73.80L17.52-73.80Q20.28-73.80 22.38-73.38L22.38-73.38L22.38-73.38Q24.48-72.96 25.92-71.88L25.92-71.88L25.92-71.88Q27.36-70.80 28.08-68.88L28.08-68.88L28.08-68.88Q28.80-66.96 28.80-63.84L28.80-63.84L28.80-44.64L51.84-44.64L51.84-72.72L51.84-72.72Q53.16-72.96 56.04-73.38L56.04-73.38L56.04-73.38Q58.92-73.80 61.56-73.80L61.56-73.80L61.56-73.80Q64.32-73.80 66.42-73.38L66.42-73.38L66.42-73.38Q68.52-72.96 69.96-71.88L69.96-71.88L69.96-71.88Q71.40-70.80 72.12-68.88L72.12-68.88L72.12-68.88Q72.84-66.96 72.84-63.84L72.84-63.84ZM111.84-12.96L111.84-12.96L111.84-12.96Q113.88-12.96 116.34-13.38L116.34-13.38L116.34-13.38Q118.80-13.80 120-14.52L120-14.52L120-24.12L111.36-23.40L111.36-23.40Q108-23.16 105.84-21.96L105.84-21.96L105.84-21.96Q103.68-20.76 103.68-18.36L103.68-18.36L103.68-18.36Q103.68-15.96 105.54-14.46L105.54-14.46L105.54-14.46Q107.40-12.96 111.84-12.96ZM110.88-60.12L110.88-60.12L110.88-60.12Q117.36-60.12 122.70-58.80L122.70-58.80L122.70-58.80Q128.04-57.48 131.82-54.78L131.82-54.78L131.82-54.78Q135.60-52.08 137.64-47.94L137.64-47.94L137.64-47.94Q139.68-43.80 139.68-38.16L139.68-38.16L139.68-11.28L139.68-11.28Q139.68-8.16 137.94-6.18L137.94-6.18L137.94-6.18Q136.20-4.20 133.80-2.76L133.80-2.76L133.80-2.76Q126 1.92 111.84 1.92L111.84 1.92L111.84 1.92Q105.48 1.92 100.38 0.72L100.38 0.72L100.38 0.72Q95.28-0.48 91.62-2.88L91.62-2.88L91.62-2.88Q87.96-5.28 85.98-9L85.98-9L85.98-9Q84-12.72 84-17.64L84-17.64L84-17.64Q84-25.92 88.92-30.36L88.92-30.36L88.92-30.36Q93.84-34.80 104.16-35.88L104.16-35.88L119.88-37.56L119.88-38.40L119.88-38.40Q119.88-41.88 116.82-43.38L116.82-43.38L116.82-43.38Q113.76-44.88 108-44.88L108-44.88L108-44.88Q103.44-44.88 99.12-43.92L99.12-43.92L99.12-43.92Q94.80-42.96 91.32-41.52L91.32-41.52L91.32-41.52Q89.76-42.60 88.68-44.82L88.68-44.82L88.68-44.82Q87.60-47.04 87.60-49.44L87.60-49.44L87.60-49.44Q87.60-52.56 89.10-54.42L89.10-54.42L89.10-54.42Q90.60-56.28 93.72-57.60L93.72-57.60L93.72-57.60Q97.20-58.92 101.94-59.52L101.94-59.52L101.94-59.52Q106.68-60.12 110.88-60.12ZM178.92-60.12L178.92-60.12L178.92-60.12Q186.12-60.12 192.30-58.26L192.30-58.26L192.30-58.26Q198.48-56.40 202.92-52.56L202.92-52.56L202.92-52.56Q207.36-48.72 209.88-42.90L209.88-42.90L209.88-42.90Q212.40-37.08 212.40-29.04L212.40-29.04L212.40-29.04Q212.40-21.36 210.24-15.60L210.24-15.60L210.24-15.60Q208.08-9.84 204.12-5.94L204.12-5.94L204.12-5.94Q200.16-2.04 194.58-0.12L194.58-0.12L194.58-0.12Q189 1.80 182.16 1.80L182.16 1.80L182.16 1.80Q177 1.80 172.56 0.24L172.56 0.24L172.56 20.16L172.56 20.16Q171.36 20.52 168.72 20.94L168.72 20.94L168.72 20.94Q166.08 21.36 163.32 21.36L163.32 21.36L163.32 21.36Q160.68 21.36 158.58 21L158.58 21L158.58 21Q156.48 20.64 155.04 19.56L155.04 19.56L155.04 19.56Q153.60 18.48 152.88 16.62L152.88 16.62L152.88 16.62Q152.16 14.76 152.16 11.76L152.16 11.76L152.16-45.84L152.16-45.84Q152.16-49.08 153.54-51.12L153.54-51.12L153.54-51.12Q154.92-53.16 157.32-54.84L157.32-54.84L157.32-54.84Q161.04-57.24 166.56-58.68L166.56-58.68L166.56-58.68Q172.08-60.12 178.92-60.12ZM179.16-14.28L179.16-14.28L179.16-14.28Q191.52-14.28 191.52-29.04L191.52-29.04L191.52-29.04Q191.52-36.72 188.46-40.44L188.46-40.44L188.46-40.44Q185.40-44.16 179.64-44.16L179.64-44.16L179.64-44.16Q177.36-44.16 175.56-43.62L175.56-43.62L175.56-43.62Q173.76-43.08 172.44-42.36L172.44-42.36L172.44-15.96L172.44-15.96Q173.88-15.24 175.56-14.76L175.56-14.76L175.56-14.76Q177.24-14.28 179.16-14.28ZM249.12-60.12L249.12-60.12L249.12-60.12Q256.32-60.12 262.50-58.26L262.50-58.26L262.50-58.26Q268.68-56.40 273.12-52.56L273.12-52.56L273.12-52.56Q277.56-48.72 280.08-42.90L280.08-42.90L280.08-42.90Q282.60-37.08 282.60-29.04L282.60-29.04L282.60-29.04Q282.60-21.36 280.44-15.60L280.44-15.60L280.44-15.60Q278.28-9.84 274.32-5.94L274.32-5.94L274.32-5.94Q270.36-2.04 264.78-0.12L264.78-0.12L264.78-0.12Q259.20 1.80 252.36 1.80L252.36 1.80L252.36 1.80Q247.20 1.80 242.76 0.24L242.76 0.24L242.76 20.16L242.76 20.16Q241.56 20.52 238.92 20.94L238.92 20.94L238.92 20.94Q236.28 21.36 233.52 21.36L233.52 21.36L233.52 21.36Q230.88 21.36 228.78 21L228.78 21L228.78 21Q226.68 20.64 225.24 19.56L225.24 19.56L225.24 19.56Q223.80 18.48 223.08 16.62L223.08 16.62L223.08 16.62Q222.36 14.76 222.36 11.76L222.36 11.76L222.36-45.84L222.36-45.84Q222.36-49.08 223.74-51.12L223.74-51.12L223.74-51.12Q225.12-53.16 227.52-54.84L227.52-54.84L227.52-54.84Q231.24-57.24 236.76-58.68L236.76-58.68L236.76-58.68Q242.28-60.12 249.12-60.12ZM249.36-14.28L249.36-14.28L249.36-14.28Q261.72-14.28 261.72-29.04L261.72-29.04L261.72-29.04Q261.72-36.72 258.66-40.44L258.66-40.44L258.66-40.44Q255.60-44.16 249.84-44.16L249.84-44.16L249.84-44.16Q247.56-44.16 245.76-43.62L245.76-43.62L245.76-43.62Q243.96-43.08 242.64-42.36L242.64-42.36L242.64-15.96L242.64-15.96Q244.08-15.24 245.76-14.76L245.76-14.76L245.76-14.76Q247.44-14.28 249.36-14.28ZM300.12-14.88L300.12-14.88L300.12-14.88Q298.80-17.88 297.30-21.60L297.30-21.60L297.30-21.60Q295.80-25.32 294.18-30.12L294.18-30.12L294.18-30.12Q292.56-34.92 290.82-41.10L290.82-41.10L290.82-41.10Q289.08-47.28 287.16-55.32L287.16-55.32L287.16-55.32Q288.84-57 291.66-58.26L291.66-58.26L291.66-58.26Q294.48-59.52 297.84-59.52L297.84-59.52L297.84-59.52Q302.04-59.52 304.80-57.78L304.80-57.78L304.80-57.78Q307.56-56.04 308.88-51.24L308.88-51.24L318.36-18.24L318.84-18.24L318.84-18.24Q320.28-22.32 321.66-27.12L321.66-27.12L321.66-27.12Q323.04-31.92 324.36-37.02L324.36-37.02L324.36-37.02Q325.68-42.12 326.82-47.22L326.82-47.22L326.82-47.22Q327.96-52.32 328.80-57.24L328.80-57.24L328.80-57.24Q333.12-59.52 338.28-59.52L338.28-59.52L338.28-59.52Q342.48-59.52 345.24-57.72L345.24-57.72L345.24-57.72Q348-55.92 348-51.48L348-51.48L348-51.48Q348-48.24 347.16-43.98L347.16-43.98L347.16-43.98Q346.32-39.72 344.94-34.92L344.94-34.92L344.94-34.92Q343.56-30.12 341.70-25.02L341.70-25.02L341.70-25.02Q339.84-19.92 337.80-15L337.80-15L337.80-15Q335.76-10.08 333.60-5.70L333.60-5.70L333.60-5.70Q331.44-1.32 329.40 2.16L329.40 2.16L329.40 2.16Q326.04 8.04 323.16 11.76L323.16 11.76L323.16 11.76Q320.28 15.48 317.64 17.58L317.64 17.58L317.64 17.58Q315 19.68 312.36 20.46L312.36 20.46L312.36 20.46Q309.72 21.24 306.84 21.24L306.84 21.24L306.84 21.24Q301.80 21.24 298.68 18.24L298.68 18.24L298.68 18.24Q295.56 15.24 294.96 10.44L294.96 10.44L294.96 10.44Q298.80 7.44 302.64 3.78L302.64 3.78L302.64 3.78Q306.48 0.12 309.60-3.72L309.60-3.72L309.60-3.72Q307.56-4.32 305.22-6.54L305.22-6.54L305.22-6.54Q302.88-8.76 300.12-14.88ZM447.72-63.84L447.72-0.48L447.72-0.48Q446.40-0.12 443.58 0.24L443.58 0.24L443.58 0.24Q440.76 0.60 438 0.60L438 0.60L438 0.60Q435.24 0.60 433.14 0.18L433.14 0.18L433.14 0.18Q431.04-0.24 429.60-1.32L429.60-1.32L429.60-1.32Q428.16-2.40 427.44-4.32L427.44-4.32L427.44-4.32Q426.72-6.24 426.72-9.36L426.72-9.36L426.72-28.08L403.68-28.08L403.68-0.48L403.68-0.48Q402.36-0.12 399.54 0.24L399.54 0.24L399.54 0.24Q396.72 0.60 393.96 0.60L393.96 0.60L393.96 0.60Q391.20 0.60 389.10 0.18L389.10 0.18L389.10 0.18Q387-0.24 385.56-1.32L385.56-1.32L385.56-1.32Q384.12-2.40 383.40-4.32L383.40-4.32L383.40-4.32Q382.68-6.24 382.68-9.36L382.68-9.36L382.68-72.72L382.68-72.72Q384-72.96 386.88-73.38L386.88-73.38L386.88-73.38Q389.76-73.80 392.40-73.80L392.40-73.80L392.40-73.80Q395.16-73.80 397.26-73.38L397.26-73.38L397.26-73.38Q399.36-72.96 400.80-71.88L400.80-71.88L400.80-71.88Q402.24-70.80 402.96-68.88L402.96-68.88L402.96-68.88Q403.68-66.96 403.68-63.84L403.68-63.84L403.68-44.64L426.72-44.64L426.72-72.72L426.72-72.72Q428.04-72.96 430.92-73.38L430.92-73.38L430.92-73.38Q433.80-73.80 436.44-73.80L436.44-73.80L436.44-73.80Q439.20-73.80 441.30-73.38L441.30-73.38L441.30-73.38Q443.40-72.96 444.84-71.88L444.84-71.88L444.84-71.88Q446.28-70.80 447-68.88L447-68.88L447-68.88Q447.72-66.96 447.72-63.84L447.72-63.84ZM486.72-12.96L486.72-12.96L486.72-12.96Q488.76-12.96 491.22-13.38L491.22-13.38L491.22-13.38Q493.68-13.80 494.88-14.52L494.88-14.52L494.88-24.12L486.24-23.40L486.24-23.40Q482.88-23.16 480.72-21.96L480.72-21.96L480.72-21.96Q478.56-20.76 478.56-18.36L478.56-18.36L478.56-18.36Q478.56-15.96 480.42-14.46L480.42-14.46L480.42-14.46Q482.28-12.96 486.72-12.96ZM485.76-60.12L485.76-60.12L485.76-60.12Q492.24-60.12 497.58-58.80L497.58-58.80L497.58-58.80Q502.92-57.48 506.70-54.78L506.70-54.78L506.70-54.78Q510.48-52.08 512.52-47.94L512.52-47.94L512.52-47.94Q514.56-43.80 514.56-38.16L514.56-38.16L514.56-11.28L514.56-11.28Q514.56-8.16 512.82-6.18L512.82-6.18L512.82-6.18Q511.08-4.20 508.68-2.76L508.68-2.76L508.68-2.76Q500.88 1.92 486.72 1.92L486.72 1.92L486.72 1.92Q480.36 1.92 475.26 0.72L475.26 0.72L475.26 0.72Q470.16-0.48 466.50-2.88L466.50-2.88L466.50-2.88Q462.84-5.28 460.86-9L460.86-9L460.86-9Q458.88-12.72 458.88-17.64L458.88-17.64L458.88-17.64Q458.88-25.92 463.80-30.36L463.80-30.36L463.80-30.36Q468.72-34.80 479.04-35.88L479.04-35.88L494.76-37.56L494.76-38.40L494.76-38.40Q494.76-41.88 491.70-43.38L491.70-43.38L491.70-43.38Q488.64-44.88 482.88-44.88L482.88-44.88L482.88-44.88Q478.32-44.88 474-43.92L474-43.92L474-43.92Q469.68-42.96 466.20-41.52L466.20-41.52L466.20-41.52Q464.64-42.60 463.56-44.82L463.56-44.82L463.56-44.82Q462.48-47.04 462.48-49.44L462.48-49.44L462.48-49.44Q462.48-52.56 463.98-54.42L463.98-54.42L463.98-54.42Q465.48-56.28 468.60-57.60L468.60-57.60L468.60-57.60Q472.08-58.92 476.82-59.52L476.82-59.52L476.82-59.52Q481.56-60.12 485.76-60.12ZM576.24-17.40L576.24-17.40L576.24-17.40Q576.24-8.28 569.40-3.12L569.40-3.12L569.40-3.12Q562.56 2.04 549.24 2.04L549.24 2.04L549.24 2.04Q544.20 2.04 539.88 1.32L539.88 1.32L539.88 1.32Q535.56 0.60 532.50-0.90L532.50-0.90L532.50-0.90Q529.44-2.40 527.70-4.68L527.70-4.68L527.70-4.68Q525.96-6.96 525.96-10.08L525.96-10.08L525.96-10.08Q525.96-12.96 527.16-14.94L527.16-14.94L527.16-14.94Q528.36-16.92 530.04-18.24L530.04-18.24L530.04-18.24Q533.52-16.32 538.02-14.82L538.02-14.82L538.02-14.82Q542.52-13.32 548.40-13.32L548.40-13.32L548.40-13.32Q552.12-13.32 554.10-14.40L554.10-14.40L554.10-14.40Q556.08-15.48 556.08-17.28L556.08-17.28L556.08-17.28Q556.08-18.96 554.64-19.92L554.64-19.92L554.64-19.92Q553.20-20.88 549.84-21.48L549.84-21.48L546.24-22.20L546.24-22.20Q535.80-24.24 530.70-28.62L530.70-28.62L530.70-28.62Q525.60-33 525.60-41.16L525.60-41.16L525.60-41.16Q525.60-45.60 527.52-49.20L527.52-49.20L527.52-49.20Q529.44-52.80 532.92-55.20L532.92-55.20L532.92-55.20Q536.40-57.60 541.26-58.92L541.26-58.92L541.26-58.92Q546.12-60.24 552-60.24L552-60.24L552-60.24Q556.44-60.24 560.34-59.58L560.34-59.58L560.34-59.58Q564.24-58.92 567.12-57.60L567.12-57.60L567.12-57.60Q570-56.28 571.68-54.18L571.68-54.18L571.68-54.18Q573.36-52.08 573.36-49.20L573.36-49.20L573.36-49.20Q573.36-46.44 572.34-44.46L572.34-44.46L572.34-44.46Q571.32-42.48 569.76-41.16L569.76-41.16L569.76-41.16Q568.80-41.76 566.88-42.42L566.88-42.42L566.88-42.42Q564.96-43.08 562.68-43.62L562.68-43.62L562.68-43.62Q560.40-44.16 558.06-44.52L558.06-44.52L558.06-44.52Q555.72-44.88 553.80-44.88L553.80-44.88L553.80-44.88Q549.84-44.88 547.68-43.98L547.68-43.98L547.68-43.98Q545.52-43.08 545.52-41.16L545.52-41.16L545.52-41.16Q545.52-39.84 546.72-39L546.72-39L546.72-39Q547.92-38.16 551.28-37.44L551.28-37.44L555-36.60L555-36.60Q566.52-33.96 571.38-29.34L571.38-29.34L571.38-29.34Q576.24-24.72 576.24-17.40ZM635.28-17.40L635.28-17.40L635.28-17.40Q635.28-8.28 628.44-3.12L628.44-3.12L628.44-3.12Q621.60 2.04 608.28 2.04L608.28 2.04L608.28 2.04Q603.24 2.04 598.92 1.32L598.92 1.32L598.92 1.32Q594.60 0.60 591.54-0.90L591.54-0.90L591.54-0.90Q588.48-2.40 586.74-4.68L586.74-4.68L586.74-4.68Q585.00-6.96 585.00-10.08L585.00-10.08L585.00-10.08Q585.00-12.96 586.20-14.94L586.20-14.94L586.20-14.94Q587.40-16.92 589.08-18.24L589.08-18.24L589.08-18.24Q592.56-16.32 597.06-14.82L597.06-14.82L597.06-14.82Q601.56-13.32 607.44-13.32L607.44-13.32L607.44-13.32Q611.16-13.32 613.14-14.40L613.14-14.40L613.14-14.40Q615.12-15.48 615.12-17.28L615.12-17.28L615.12-17.28Q615.12-18.96 613.68-19.92L613.68-19.92L613.68-19.92Q612.24-20.88 608.88-21.48L608.88-21.48L605.28-22.20L605.28-22.20Q594.84-24.24 589.74-28.62L589.74-28.62L589.74-28.62Q584.64-33 584.64-41.16L584.64-41.16L584.64-41.16Q584.64-45.60 586.56-49.20L586.56-49.20L586.56-49.20Q588.48-52.80 591.96-55.20L591.96-55.20L591.96-55.20Q595.44-57.60 600.30-58.92L600.30-58.92L600.30-58.92Q605.16-60.24 611.04-60.24L611.04-60.24L611.04-60.24Q615.48-60.24 619.38-59.58L619.38-59.58L619.38-59.58Q623.28-58.92 626.16-57.60L626.16-57.60L626.16-57.60Q629.04-56.28 630.72-54.18L630.72-54.18L630.72-54.18Q632.40-52.08 632.40-49.20L632.40-49.20L632.40-49.20Q632.40-46.44 631.38-44.46L631.38-44.46L631.38-44.46Q630.36-42.48 628.80-41.16L628.80-41.16L628.80-41.16Q627.84-41.76 625.92-42.42L625.92-42.42L625.92-42.42Q624.00-43.08 621.72-43.62L621.72-43.62L621.72-43.62Q619.44-44.16 617.10-44.52L617.10-44.52L617.10-44.52Q614.76-44.88 612.84-44.88L612.84-44.88L612.84-44.88Q608.88-44.88 606.72-43.98L606.72-43.98L606.72-43.98Q604.56-43.08 604.56-41.16L604.56-41.16L604.56-41.16Q604.56-39.84 605.76-39L605.76-39L605.76-39Q606.96-38.16 610.32-37.44L610.32-37.44L614.04-36.60L614.04-36.60Q625.56-33.96 630.42-29.34L630.42-29.34L630.42-29.34Q635.28-24.72 635.28-17.40ZM676.56 1.92L676.56 1.92L676.56 1.92Q669.48 1.92 663.42-0.06L663.42-0.06L663.42-0.06Q657.36-2.04 652.86-6L652.86-6L652.86-6Q648.36-9.96 645.78-15.96L645.78-15.96L645.78-15.96Q643.20-21.96 643.20-30L643.20-30L643.20-30Q643.20-37.92 645.78-43.62L645.78-43.62L645.78-43.62Q648.36-49.32 652.56-52.98L652.56-52.98L652.56-52.98Q656.76-56.64 662.16-58.38L662.16-58.38L662.16-58.38Q667.56-60.12 673.20-60.12L673.20-60.12L673.20-60.12Q679.56-60.12 684.78-58.20L684.78-58.20L684.78-58.20Q690.00-56.28 693.78-52.92L693.78-52.92L693.78-52.92Q697.56-49.56 699.66-44.88L699.66-44.88L699.66-44.88Q701.76-40.20 701.76-34.68L701.76-34.68L701.76-34.68Q701.76-30.60 699.48-28.44L699.48-28.44L699.48-28.44Q697.20-26.28 693.12-25.68L693.12-25.68L663.48-21.24L663.48-21.24Q664.80-17.28 668.88-15.30L668.88-15.30L668.88-15.30Q672.96-13.32 678.24-13.32L678.24-13.32L678.24-13.32Q683.16-13.32 687.54-14.58L687.54-14.58L687.54-14.58Q691.92-15.84 694.68-17.52L694.68-17.52L694.68-17.52Q696.60-16.32 697.92-14.16L697.92-14.16L697.92-14.16Q699.24-12 699.24-9.60L699.24-9.60L699.24-9.60Q699.24-4.20 694.20-1.56L694.20-1.56L694.20-1.56Q690.36 0.48 685.56 1.20L685.56 1.20L685.56 1.20Q680.76 1.92 676.56 1.92ZM673.20-45.24L673.20-45.24L673.20-45.24Q670.32-45.24 668.22-44.28L668.22-44.28L668.22-44.28Q666.12-43.32 664.80-41.82L664.80-41.82L664.80-41.82Q663.48-40.32 662.82-38.46L662.82-38.46L662.82-38.46Q662.16-36.60 662.04-34.68L662.04-34.68L682.56-38.04L682.56-38.04Q682.20-40.44 679.92-42.84L679.92-42.84L679.92-42.84Q677.64-45.24 673.20-45.24Z" fill="url(#editing-shiny-gradient2)"></path></g></g><style>text {
  font-size: 64px;
  font-family: Arial Black;
  dominant-baseline: central;
  text-anchor: middle;
}</style></svg>