<svg width="875.992578125px" height="270.835009765625px" xmlns="http://www.w3.org/2000/svg" viewBox="-187.9962890625 -60.417504882812494 875.992578125 270.835009765625" style="background: none;" preserveAspectRatio="xMidYMid"><defs><linearGradient id="editing-shiny-gradient" x1="0.002739052315863355" x2="0.9972609476841366" y1="0.5522642316338267" y2="0.4477357683661733" gradientUnits="objectBoundingBox"><stop offset="0.0" stop-color="#f4074a"></stop><stop offset="0.5" stop-color="#ff4f81"></stop><stop offset="1.0" stop-color="#b84592"></stop></linearGradient><linearGradient id="editing-shiny-gradient2" x1="0" x2="0" y1="0" y2="1"><stop offset="0.2" stop-color="#fff" stop-opacity="0.8"></stop><stop offset="0.8" stop-color="#fff" stop-opacity="0"></stop></linearGradient><filter id="editing-shiny2" x="-100%" y="-100%" width="300%" height="300%"><feMorphology operator="erode" radius="2"></feMorphology></filter><filter id="editing-shiny" x="-100%" y="-100%" width="300%" height="300%"><feFlood flood-color="#fff" result="flood"></feFlood><feConvolveMatrix in="SourceGraphic" result="conv" order="8,8" divisor="1" kernelMatrix="0 0 0 0 0 0 0 0 0 0 0 1 1 0 0 0 0 0 0 1 1 0 0 0 0 0 1 0 0 1 0 0 0 0 1 0 0 1 0 0 0 1 0 0 0 0 1 0 0 1 1 0 0 1 1 0 0 0 0 1 1 0 0 0 "></feConvolveMatrix><feOffset dx="0" dy="4" in="conv" result="offset"></feOffset><feComposite operator="in" in="flood" in2="offset" result="comp"></feComposite><feGaussianBlur in="offset" stdDeviation="3" result="shadow"></feGaussianBlur><feColorMatrix in="shadow" type="matrix" values="0.7 0 0 0 0  0 0.7 0 0 0  0 0 0.7 0 0  0 0 0 0.3 0" result="dark-shadow"></feColorMatrix><feOffset dx="0" dy="4" in="dark-shadow" result="offset-shadow"></feOffset><feOffset dx="0" dy="2" in="conv" result="offset-2"></feOffset><feComposite operator="out" in="offset" in2="offset-2" result="edge-diff"></feComposite><feGaussianBlur in="edge-diff" stdDeviation="1" result="edge-blur"></feGaussianBlur><feColorMatrix in="edge-blur" result="edge-shadow" type="matrix" values="0 0 0 0 0  0 0 0 0 0  0 0 0 0 0  0 0 0 0.5 0"></feColorMatrix><feComposite operator="in" in="edge-shadow" in2="offset" result="edge-shadow-in"></feComposite><feOffset dx="0" dy="1" in="edge-shadow-in" result="edge-shadow-final"></feOffset><feMerge result="out"><feMergeNode in="offset-shadow"></feMergeNode><feMergeNode in="comp"></feMergeNode><feMergeNode in="edge-shadow-final"></feMergeNode><feMergeNode in="SourceGraphic"></feMergeNode></feMerge></filter></defs><g filter="url(#editing-shiny)"><g transform="translate(-65.47999286651611, 128.52000045776367)"><path d="M51.12 0.36L18.96 0.36L18.96 0.36Q13.80 0.36 10.80-2.64L10.80-2.64L10.80-2.64Q7.80-5.64 7.80-10.80L7.80-10.80L7.80-72.84L7.80-72.84Q9.12-73.08 12-73.50L12-73.50L12-73.50Q14.88-73.92 17.52-73.92L17.52-73.92L17.52-73.92Q20.28-73.92 22.38-73.50L22.38-73.50L22.38-73.50Q24.48-73.08 25.92-72L25.92-72L25.92-72Q27.36-70.92 28.08-69L28.08-69L28.08-69Q28.80-67.08 28.80-63.96L28.80-63.96L28.80-16.56L56.28-16.56L56.28-16.56Q57.12-15.24 57.84-13.02L57.84-13.02L57.84-13.02Q58.56-10.80 58.56-8.40L58.56-8.40L58.56-8.40Q58.56-3.60 56.52-1.62L56.52-1.62L56.52-1.62Q54.48 0.36 51.12 0.36L51.12 0.36ZM126.96-29.16L126.96-29.16L126.96-29.16Q126.96-21.72 124.68-15.90L124.68-15.90L124.68-15.90Q122.40-10.08 118.26-6.12L118.26-6.12L118.26-6.12Q114.12-2.16 108.36-0.12L108.36-0.12L108.36-0.12Q102.60 1.92 95.52 1.92L95.52 1.92L95.52 1.92Q88.44 1.92 82.68-0.24L82.68-0.24L82.68-0.24Q76.92-2.40 72.78-6.42L72.78-6.42L72.78-6.42Q68.64-10.44 66.36-16.20L66.36-16.20L66.36-16.20Q64.08-21.96 64.08-29.16L64.08-29.16L64.08-29.16Q64.08-36.24 66.36-42L66.36-42L66.36-42Q68.64-47.76 72.78-51.78L72.78-51.78L72.78-51.78Q76.92-55.80 82.68-57.96L82.68-57.96L82.68-57.96Q88.44-60.12 95.52-60.12L95.52-60.12L95.52-60.12Q102.60-60.12 108.36-57.90L108.36-57.90L108.36-57.90Q114.12-55.68 118.26-51.66L118.26-51.66L118.26-51.66Q122.40-47.64 124.68-41.88L124.68-41.88L124.68-41.88Q126.96-36.12 126.96-29.16ZM84.96-29.16L84.96-29.16L84.96-29.16Q84.96-21.84 87.78-17.94L87.78-17.94L87.78-17.94Q90.60-14.04 95.64-14.04L95.64-14.04L95.64-14.04Q100.68-14.04 103.38-18L103.38-18L103.38-18Q106.08-21.96 106.08-29.16L106.08-29.16L106.08-29.16Q106.08-36.36 103.32-40.26L103.32-40.26L103.32-40.26Q100.56-44.16 95.52-44.16L95.52-44.16L95.52-44.16Q90.48-44.16 87.72-40.26L87.72-40.26L87.72-40.26Q84.96-36.36 84.96-29.16ZM174.36-1.56L174.36-1.56L174.36-1.56Q172.68-0.24 169.44 0.60L169.44 0.60L169.44 0.60Q166.20 1.44 162.12 1.44L162.12 1.44L162.12 1.44Q157.44 1.44 154.02 0.24L154.02 0.24L154.02 0.24Q150.60-0.96 149.28-3.60L149.28-3.60L149.28-3.60Q148.20-5.64 146.70-9.30L146.70-9.30L146.70-9.30Q145.20-12.96 143.52-17.46L143.52-17.46L143.52-17.46Q141.84-21.96 140.04-27.12L140.04-27.12L140.04-27.12Q138.24-32.28 136.62-37.32L136.62-37.32L136.62-37.32Q135.00-42.36 133.68-47.04L133.68-47.04L133.68-47.04Q132.36-51.72 131.52-55.32L131.52-55.32L131.52-55.32Q133.20-57 136.02-58.26L136.02-58.26L136.02-58.26Q138.84-59.52 142.20-59.52L142.20-59.52L142.20-59.52Q146.40-59.52 149.10-57.78L149.10-57.78L149.10-57.78Q151.80-56.04 153.12-51.24L153.12-51.24L157.80-32.88L157.80-32.88Q159.12-27.48 160.32-23.10L160.32-23.10L160.32-23.10Q161.52-18.72 162.12-16.32L162.12-16.32L162.72-16.32L162.72-16.32Q165.00-25.20 167.52-36L167.52-36L167.52-36Q170.04-46.80 172.08-57.24L172.08-57.24L172.08-57.24Q174.12-58.32 176.70-58.92L176.70-58.92L176.70-58.92Q179.28-59.52 181.68-59.52L181.68-59.52L181.68-59.52Q185.88-59.52 188.76-57.72L188.76-57.72L188.76-57.72Q191.64-55.92 191.64-51.48L191.64-51.48L191.64-51.48Q191.64-49.56 190.74-45.90L190.74-45.90L190.74-45.90Q189.84-42.24 188.46-37.62L188.46-37.62L188.46-37.62Q187.08-33 185.22-27.84L185.22-27.84L185.22-27.84Q183.36-22.68 181.44-17.76L181.44-17.76L181.44-17.76Q179.52-12.84 177.66-8.58L177.66-8.58L177.66-8.58Q175.80-4.32 174.36-1.56ZM200.28-74.52L200.28-74.52L200.28-74.52Q200.28-79.08 203.34-82.20L203.34-82.20L203.34-82.20Q206.40-85.32 211.44-85.32L211.44-85.32L211.44-85.32Q216.48-85.32 219.54-82.20L219.54-82.20L219.54-82.20Q222.60-79.08 222.60-74.52L222.60-74.52L222.60-74.52Q222.60-69.96 219.54-66.84L219.54-66.84L219.54-66.84Q216.48-63.72 211.44-63.72L211.44-63.72L211.44-63.72Q206.40-63.72 203.34-66.84L203.34-66.84L203.34-66.84Q200.28-69.96 200.28-74.52ZM221.64-48.96L221.64-0.12L221.64-0.12Q220.32 0.12 217.74 0.54L217.74 0.54L217.74 0.54Q215.16 0.96 212.52 0.96L212.52 0.96L212.52 0.96Q209.88 0.96 207.78 0.60L207.78 0.60L207.78 0.60Q205.68 0.24 204.24-0.84L204.24-0.84L204.24-0.84Q202.80-1.92 202.02-3.78L202.02-3.78L202.02-3.78Q201.24-5.64 201.24-8.64L201.24-8.64L201.24-57.48L201.24-57.48Q202.56-57.72 205.14-58.14L205.14-58.14L205.14-58.14Q207.72-58.56 210.36-58.56L210.36-58.56L210.36-58.56Q213.00-58.56 215.10-58.20L215.10-58.20L215.10-58.20Q217.20-57.84 218.64-56.76L218.64-56.76L218.64-56.76Q220.08-55.68 220.86-53.82L220.86-53.82L220.86-53.82Q221.64-51.96 221.64-48.96L221.64-48.96ZM271.56-8.64L271.56-36.96L271.56-36.96Q271.56-40.68 269.46-42.42L269.46-42.42L269.46-42.42Q267.36-44.16 263.76-44.16L263.76-44.16L263.76-44.16Q261.36-44.16 259.02-43.56L259.02-43.56L259.02-43.56Q256.68-42.96 255-41.76L255-41.76L255-0.12L255-0.12Q253.80 0.24 251.22 0.60L251.22 0.60L251.22 0.60Q248.64 0.96 245.88 0.96L245.88 0.96L245.88 0.96Q243.24 0.96 241.14 0.60L241.14 0.60L241.14 0.60Q239.04 0.24 237.60-0.84L237.60-0.84L237.60-0.84Q236.16-1.92 235.38-3.78L235.38-3.78L235.38-3.78Q234.60-5.64 234.60-8.64L234.60-8.64L234.60-44.64L234.60-44.64Q234.60-47.88 235.98-49.92L235.98-49.92L235.98-49.92Q237.36-51.96 239.76-53.64L239.76-53.64L239.76-53.64Q243.84-56.52 250.02-58.32L250.02-58.32L250.02-58.32Q256.20-60.12 263.76-60.12L263.76-60.12L263.76-60.12Q277.32-60.12 284.64-54.18L284.64-54.18L284.64-54.18Q291.96-48.24 291.96-37.68L291.96-37.68L291.96-0.12L291.96-0.12Q290.76 0.24 288.18 0.60L288.18 0.60L288.18 0.60Q285.60 0.96 282.84 0.96L282.84 0.96L282.84 0.96Q280.20 0.96 278.10 0.60L278.10 0.60L278.10 0.60Q276 0.24 274.56-0.84L274.56-0.84L274.56-0.84Q273.12-1.92 272.34-3.78L272.34-3.78L272.34-3.78Q271.56-5.64 271.56-8.64L271.56-8.64ZM333-60.12L333-60.12L333-60.12Q339.84-60.12 345.42-58.38L345.42-58.38L345.42-58.38Q351-56.64 354.84-53.88L354.84-53.88L354.84-53.88Q357.24-52.20 358.62-50.16L358.62-50.16L358.62-50.16Q360-48.12 360-44.88L360-44.88L360-2.88L360-2.88Q360 3.48 357.60 8.10L357.60 8.10L357.60 8.10Q355.20 12.72 351.06 15.78L351.06 15.78L351.06 15.78Q346.92 18.84 341.34 20.28L341.34 20.28L341.34 20.28Q335.76 21.72 329.40 21.72L329.40 21.72L329.40 21.72Q318.48 21.72 312.24 18.78L312.24 18.78L312.24 18.78Q306 15.84 306 9.24L306 9.24L306 9.24Q306 6.48 307.14 4.38L307.14 4.38L307.14 4.38Q308.28 2.28 309.72 1.20L309.72 1.20L309.72 1.20Q313.20 3.12 317.58 4.44L317.58 4.44L317.58 4.44Q321.96 5.76 326.64 5.76L326.64 5.76L326.64 5.76Q333.12 5.76 336.96 3.60L336.96 3.60L336.96 3.60Q340.80 1.44 340.80-3.36L340.80-3.36L340.80-5.28L340.80-5.28Q335.88-3.12 328.80-3.12L328.80-3.12L328.80-3.12Q323.40-3.12 318.54-4.74L318.54-4.74L318.54-4.74Q313.68-6.36 310.02-9.78L310.02-9.78L310.02-9.78Q306.36-13.20 304.14-18.60L304.14-18.60L304.14-18.60Q301.92-24 301.92-31.44L301.92-31.44L301.92-31.44Q301.92-38.76 304.26-44.16L304.26-44.16L304.26-44.16Q306.60-49.56 310.74-53.10L310.74-53.10L310.74-53.10Q314.88-56.64 320.58-58.38L320.58-58.38L320.58-58.38Q326.28-60.12 333-60.12ZM340.44-20.64L340.44-42.72L340.44-42.72Q339.60-43.20 337.98-43.68L337.98-43.68L337.98-43.68Q336.36-44.16 333.96-44.16L333.96-44.16L333.96-44.16Q328.08-44.16 325.14-40.86L325.14-40.86L325.14-40.86Q322.20-37.56 322.20-31.44L322.20-31.44L322.20-31.44Q322.20-24.48 325.14-21.42L325.14-21.42L325.14-21.42Q328.08-18.36 332.64-18.36L332.64-18.36L332.64-18.36Q337.56-18.36 340.44-20.64L340.44-20.64ZM441.48 0.36L409.32 0.36L409.32 0.36Q404.16 0.36 401.16-2.64L401.16-2.64L401.16-2.64Q398.16-5.64 398.16-10.80L398.16-10.80L398.16-72.84L398.16-72.84Q399.48-73.08 402.36-73.50L402.36-73.50L402.36-73.50Q405.24-73.92 407.88-73.92L407.88-73.92L407.88-73.92Q410.64-73.92 412.74-73.50L412.74-73.50L412.74-73.50Q414.84-73.08 416.28-72L416.28-72L416.28-72Q417.72-70.92 418.44-69L418.44-69L418.44-69Q419.16-67.08 419.16-63.96L419.16-63.96L419.16-16.56L446.64-16.56L446.64-16.56Q447.48-15.24 448.20-13.02L448.20-13.02L448.20-13.02Q448.92-10.80 448.92-8.40L448.92-8.40L448.92-8.40Q448.92-3.60 446.88-1.62L446.88-1.62L446.88-1.62Q444.84 0.36 441.48 0.36L441.48 0.36ZM487.80 1.92L487.80 1.92L487.80 1.92Q480.72 1.92 474.66-0.06L474.66-0.06L474.66-0.06Q468.60-2.04 464.10-6L464.10-6L464.10-6Q459.60-9.96 457.02-15.96L457.02-15.96L457.02-15.96Q454.44-21.96 454.44-30L454.44-30L454.44-30Q454.44-37.92 457.02-43.62L457.02-43.62L457.02-43.62Q459.60-49.32 463.80-52.98L463.80-52.98L463.80-52.98Q468-56.64 473.40-58.38L473.40-58.38L473.40-58.38Q478.80-60.12 484.44-60.12L484.44-60.12L484.44-60.12Q490.80-60.12 496.02-58.20L496.02-58.20L496.02-58.20Q501.24-56.28 505.02-52.92L505.02-52.92L505.02-52.92Q508.80-49.56 510.90-44.88L510.90-44.88L510.90-44.88Q513-40.20 513-34.68L513-34.68L513-34.68Q513-30.60 510.72-28.44L510.72-28.44L510.72-28.44Q508.44-26.28 504.36-25.68L504.36-25.68L474.72-21.24L474.72-21.24Q476.04-17.28 480.12-15.30L480.12-15.30L480.12-15.30Q484.20-13.32 489.48-13.32L489.48-13.32L489.48-13.32Q494.40-13.32 498.78-14.58L498.78-14.58L498.78-14.58Q503.16-15.84 505.92-17.52L505.92-17.52L505.92-17.52Q507.84-16.32 509.16-14.16L509.16-14.16L509.16-14.16Q510.48-12 510.48-9.60L510.48-9.60L510.48-9.60Q510.48-4.20 505.44-1.56L505.44-1.56L505.44-1.56Q501.60 0.48 496.80 1.20L496.80 1.20L496.80 1.20Q492 1.92 487.80 1.92ZM484.44-45.24L484.44-45.24L484.44-45.24Q481.56-45.24 479.46-44.28L479.46-44.28L479.46-44.28Q477.36-43.32 476.04-41.82L476.04-41.82L476.04-41.82Q474.72-40.32 474.06-38.46L474.06-38.46L474.06-38.46Q473.40-36.60 473.28-34.68L473.28-34.68L493.80-38.04L493.80-38.04Q493.44-40.44 491.16-42.84L491.16-42.84L491.16-42.84Q488.88-45.24 484.44-45.24ZM543.24-41.04L543.24-0.12L543.24-0.12Q542.04 0.24 539.46 0.60L539.46 0.60L539.46 0.60Q536.88 0.96 534.12 0.96L534.12 0.96L534.12 0.96Q531.48 0.96 529.38 0.60L529.38 0.60L529.38 0.60Q527.28 0.24 525.84-0.84L525.84-0.84L525.84-0.84Q524.40-1.92 523.62-3.78L523.62-3.78L523.62-3.78Q522.84-5.64 522.84-8.64L522.84-8.64L522.84-44.64L522.84-44.64Q522.84-47.40 523.86-49.38L523.86-49.38L523.86-49.38Q524.88-51.36 526.80-52.92L526.80-52.92L526.80-52.92Q528.72-54.48 531.54-55.74L531.54-55.74L531.54-55.74Q534.36-57 537.60-57.96L537.60-57.96L537.60-57.96Q540.84-58.92 544.32-59.46L544.32-59.46L544.32-59.46Q547.80-60 551.28-60L551.28-60L551.28-60Q557.04-60 560.40-57.78L560.40-57.78L560.40-57.78Q563.76-55.56 563.76-50.52L563.76-50.52L563.76-50.52Q563.76-48.84 563.28-47.22L563.28-47.22L563.28-47.22Q562.80-45.60 562.08-44.28L562.08-44.28L562.08-44.28Q559.56-44.28 556.92-44.04L556.92-44.04L556.92-44.04Q554.28-43.80 551.76-43.32L551.76-43.32L551.76-43.32Q549.24-42.84 547.02-42.30L547.02-42.30L547.02-42.30Q544.80-41.76 543.24-41.04L543.24-41.04ZM595.32-12.96L595.32-12.96L595.32-12.96Q597.36-12.96 599.82-13.38L599.82-13.38L599.82-13.38Q602.28-13.80 603.48-14.52L603.48-14.52L603.48-24.12L594.84-23.40L594.84-23.40Q591.48-23.16 589.32-21.96L589.32-21.96L589.32-21.96Q587.16-20.76 587.16-18.36L587.16-18.36L587.16-18.36Q587.16-15.96 589.02-14.46L589.02-14.46L589.02-14.46Q590.88-12.96 595.32-12.96ZM594.36-60.12L594.36-60.12L594.36-60.12Q600.84-60.12 606.18-58.80L606.18-58.80L606.18-58.80Q611.52-57.48 615.30-54.78L615.30-54.78L615.30-54.78Q619.08-52.08 621.12-47.94L621.12-47.94L621.12-47.94Q623.16-43.80 623.16-38.16L623.16-38.16L623.16-11.28L623.16-11.28Q623.16-8.16 621.42-6.18L621.42-6.18L621.42-6.18Q619.68-4.20 617.28-2.76L617.28-2.76L617.28-2.76Q609.48 1.92 595.32 1.92L595.32 1.92L595.32 1.92Q588.96 1.92 583.86 0.72L583.86 0.72L583.86 0.72Q578.76-0.48 575.10-2.88L575.10-2.88L575.10-2.88Q571.44-5.28 569.46-9L569.46-9L569.46-9Q567.48-12.72 567.48-17.64L567.48-17.64L567.48-17.64Q567.48-25.92 572.40-30.36L572.40-30.36L572.40-30.36Q577.32-34.80 587.64-35.88L587.64-35.88L603.36-37.56L603.36-38.40L603.36-38.40Q603.36-41.88 600.30-43.38L600.30-43.38L600.30-43.38Q597.24-44.88 591.48-44.88L591.48-44.88L591.48-44.88Q586.92-44.88 582.60-43.92L582.60-43.92L582.60-43.92Q578.28-42.96 574.80-41.52L574.80-41.52L574.80-41.52Q573.24-42.60 572.16-44.82L572.16-44.82L572.16-44.82Q571.08-47.04 571.08-49.44L571.08-49.44L571.08-49.44Q571.08-52.56 572.58-54.42L572.58-54.42L572.58-54.42Q574.08-56.28 577.20-57.60L577.20-57.60L577.20-57.60Q580.68-58.92 585.42-59.52L585.42-59.52L585.42-59.52Q590.16-60.12 594.36-60.12Z" fill="url(#editing-shiny-gradient)"></path></g></g><g filter="url(#editing-shiny2)"><g transform="translate(-65.47999286651611, 128.52000045776367)"><path d="M51.12 0.36L18.96 0.36L18.96 0.36Q13.80 0.36 10.80-2.64L10.80-2.64L10.80-2.64Q7.80-5.64 7.80-10.80L7.80-10.80L7.80-72.84L7.80-72.84Q9.12-73.08 12-73.50L12-73.50L12-73.50Q14.88-73.92 17.52-73.92L17.52-73.92L17.52-73.92Q20.28-73.92 22.38-73.50L22.38-73.50L22.38-73.50Q24.48-73.08 25.92-72L25.92-72L25.92-72Q27.36-70.92 28.08-69L28.08-69L28.08-69Q28.80-67.08 28.80-63.96L28.80-63.96L28.80-16.56L56.28-16.56L56.28-16.56Q57.12-15.24 57.84-13.02L57.84-13.02L57.84-13.02Q58.56-10.80 58.56-8.40L58.56-8.40L58.56-8.40Q58.56-3.60 56.52-1.62L56.52-1.62L56.52-1.62Q54.48 0.36 51.12 0.36L51.12 0.36ZM126.96-29.16L126.96-29.16L126.96-29.16Q126.96-21.72 124.68-15.90L124.68-15.90L124.68-15.90Q122.40-10.08 118.26-6.12L118.26-6.12L118.26-6.12Q114.12-2.16 108.36-0.12L108.36-0.12L108.36-0.12Q102.60 1.92 95.52 1.92L95.52 1.92L95.52 1.92Q88.44 1.92 82.68-0.24L82.68-0.24L82.68-0.24Q76.92-2.40 72.78-6.42L72.78-6.42L72.78-6.42Q68.64-10.44 66.36-16.20L66.36-16.20L66.36-16.20Q64.08-21.96 64.08-29.16L64.08-29.16L64.08-29.16Q64.08-36.24 66.36-42L66.36-42L66.36-42Q68.64-47.76 72.78-51.78L72.78-51.78L72.78-51.78Q76.92-55.80 82.68-57.96L82.68-57.96L82.68-57.96Q88.44-60.12 95.52-60.12L95.52-60.12L95.52-60.12Q102.60-60.12 108.36-57.90L108.36-57.90L108.36-57.90Q114.12-55.68 118.26-51.66L118.26-51.66L118.26-51.66Q122.40-47.64 124.68-41.88L124.68-41.88L124.68-41.88Q126.96-36.12 126.96-29.16ZM84.96-29.16L84.96-29.16L84.96-29.16Q84.96-21.84 87.78-17.94L87.78-17.94L87.78-17.94Q90.60-14.04 95.64-14.04L95.64-14.04L95.64-14.04Q100.68-14.04 103.38-18L103.38-18L103.38-18Q106.08-21.96 106.08-29.16L106.08-29.16L106.08-29.16Q106.08-36.36 103.32-40.26L103.32-40.26L103.32-40.26Q100.56-44.16 95.52-44.16L95.52-44.16L95.52-44.16Q90.48-44.16 87.72-40.26L87.72-40.26L87.72-40.26Q84.96-36.36 84.96-29.16ZM174.36-1.56L174.36-1.56L174.36-1.56Q172.68-0.24 169.44 0.60L169.44 0.60L169.44 0.60Q166.20 1.44 162.12 1.44L162.12 1.44L162.12 1.44Q157.44 1.44 154.02 0.24L154.02 0.24L154.02 0.24Q150.60-0.96 149.28-3.60L149.28-3.60L149.28-3.60Q148.20-5.64 146.70-9.30L146.70-9.30L146.70-9.30Q145.20-12.96 143.52-17.46L143.52-17.46L143.52-17.46Q141.84-21.96 140.04-27.12L140.04-27.12L140.04-27.12Q138.24-32.28 136.62-37.32L136.62-37.32L136.62-37.32Q135.00-42.36 133.68-47.04L133.68-47.04L133.68-47.04Q132.36-51.72 131.52-55.32L131.52-55.32L131.52-55.32Q133.20-57 136.02-58.26L136.02-58.26L136.02-58.26Q138.84-59.52 142.20-59.52L142.20-59.52L142.20-59.52Q146.40-59.52 149.10-57.78L149.10-57.78L149.10-57.78Q151.80-56.04 153.12-51.24L153.12-51.24L157.80-32.88L157.80-32.88Q159.12-27.48 160.32-23.10L160.32-23.10L160.32-23.10Q161.52-18.72 162.12-16.32L162.12-16.32L162.72-16.32L162.72-16.32Q165.00-25.20 167.52-36L167.52-36L167.52-36Q170.04-46.80 172.08-57.24L172.08-57.24L172.08-57.24Q174.12-58.32 176.70-58.92L176.70-58.92L176.70-58.92Q179.28-59.52 181.68-59.52L181.68-59.52L181.68-59.52Q185.88-59.52 188.76-57.72L188.76-57.72L188.76-57.72Q191.64-55.92 191.64-51.48L191.64-51.48L191.64-51.48Q191.64-49.56 190.74-45.90L190.74-45.90L190.74-45.90Q189.84-42.24 188.46-37.62L188.46-37.62L188.46-37.62Q187.08-33 185.22-27.84L185.22-27.84L185.22-27.84Q183.36-22.68 181.44-17.76L181.44-17.76L181.44-17.76Q179.52-12.84 177.66-8.58L177.66-8.58L177.66-8.58Q175.80-4.32 174.36-1.56ZM200.28-74.52L200.28-74.52L200.28-74.52Q200.28-79.08 203.34-82.20L203.34-82.20L203.34-82.20Q206.40-85.32 211.44-85.32L211.44-85.32L211.44-85.32Q216.48-85.32 219.54-82.20L219.54-82.20L219.54-82.20Q222.60-79.08 222.60-74.52L222.60-74.52L222.60-74.52Q222.60-69.96 219.54-66.84L219.54-66.84L219.54-66.84Q216.48-63.72 211.44-63.72L211.44-63.72L211.44-63.72Q206.40-63.72 203.34-66.84L203.34-66.84L203.34-66.84Q200.28-69.96 200.28-74.52ZM221.64-48.96L221.64-0.12L221.64-0.12Q220.32 0.12 217.74 0.54L217.74 0.54L217.74 0.54Q215.16 0.96 212.52 0.96L212.52 0.96L212.52 0.96Q209.88 0.96 207.78 0.60L207.78 0.60L207.78 0.60Q205.68 0.24 204.24-0.84L204.24-0.84L204.24-0.84Q202.80-1.92 202.02-3.78L202.02-3.78L202.02-3.78Q201.24-5.64 201.24-8.64L201.24-8.64L201.24-57.48L201.24-57.48Q202.56-57.72 205.14-58.14L205.14-58.14L205.14-58.14Q207.72-58.56 210.36-58.56L210.36-58.56L210.36-58.56Q213.00-58.56 215.10-58.20L215.10-58.20L215.10-58.20Q217.20-57.84 218.64-56.76L218.64-56.76L218.64-56.76Q220.08-55.68 220.86-53.82L220.86-53.82L220.86-53.82Q221.64-51.96 221.64-48.96L221.64-48.96ZM271.56-8.64L271.56-36.96L271.56-36.96Q271.56-40.68 269.46-42.42L269.46-42.42L269.46-42.42Q267.36-44.16 263.76-44.16L263.76-44.16L263.76-44.16Q261.36-44.16 259.02-43.56L259.02-43.56L259.02-43.56Q256.68-42.96 255-41.76L255-41.76L255-0.12L255-0.12Q253.80 0.24 251.22 0.60L251.22 0.60L251.22 0.60Q248.64 0.96 245.88 0.96L245.88 0.96L245.88 0.96Q243.24 0.96 241.14 0.60L241.14 0.60L241.14 0.60Q239.04 0.24 237.60-0.84L237.60-0.84L237.60-0.84Q236.16-1.92 235.38-3.78L235.38-3.78L235.38-3.78Q234.60-5.64 234.60-8.64L234.60-8.64L234.60-44.64L234.60-44.64Q234.60-47.88 235.98-49.92L235.98-49.92L235.98-49.92Q237.36-51.96 239.76-53.64L239.76-53.64L239.76-53.64Q243.84-56.52 250.02-58.32L250.02-58.32L250.02-58.32Q256.20-60.12 263.76-60.12L263.76-60.12L263.76-60.12Q277.32-60.12 284.64-54.18L284.64-54.18L284.64-54.18Q291.96-48.24 291.96-37.68L291.96-37.68L291.96-0.12L291.96-0.12Q290.76 0.24 288.18 0.60L288.18 0.60L288.18 0.60Q285.60 0.96 282.84 0.96L282.84 0.96L282.84 0.96Q280.20 0.96 278.10 0.60L278.10 0.60L278.10 0.60Q276 0.24 274.56-0.84L274.56-0.84L274.56-0.84Q273.12-1.92 272.34-3.78L272.34-3.78L272.34-3.78Q271.56-5.64 271.56-8.64L271.56-8.64ZM333-60.12L333-60.12L333-60.12Q339.84-60.12 345.42-58.38L345.42-58.38L345.42-58.38Q351-56.64 354.84-53.88L354.84-53.88L354.84-53.88Q357.24-52.20 358.62-50.16L358.62-50.16L358.62-50.16Q360-48.12 360-44.88L360-44.88L360-2.88L360-2.88Q360 3.48 357.60 8.10L357.60 8.10L357.60 8.10Q355.20 12.72 351.06 15.78L351.06 15.78L351.06 15.78Q346.92 18.84 341.34 20.28L341.34 20.28L341.34 20.28Q335.76 21.72 329.40 21.72L329.40 21.72L329.40 21.72Q318.48 21.72 312.24 18.78L312.24 18.78L312.24 18.78Q306 15.84 306 9.24L306 9.24L306 9.24Q306 6.48 307.14 4.38L307.14 4.38L307.14 4.38Q308.28 2.28 309.72 1.20L309.72 1.20L309.72 1.20Q313.20 3.12 317.58 4.44L317.58 4.44L317.58 4.44Q321.96 5.76 326.64 5.76L326.64 5.76L326.64 5.76Q333.12 5.76 336.96 3.60L336.96 3.60L336.96 3.60Q340.80 1.44 340.80-3.36L340.80-3.36L340.80-5.28L340.80-5.28Q335.88-3.12 328.80-3.12L328.80-3.12L328.80-3.12Q323.40-3.12 318.54-4.74L318.54-4.74L318.54-4.74Q313.68-6.36 310.02-9.78L310.02-9.78L310.02-9.78Q306.36-13.20 304.14-18.60L304.14-18.60L304.14-18.60Q301.92-24 301.92-31.44L301.92-31.44L301.92-31.44Q301.92-38.76 304.26-44.16L304.26-44.16L304.26-44.16Q306.60-49.56 310.74-53.10L310.74-53.10L310.74-53.10Q314.88-56.64 320.58-58.38L320.58-58.38L320.58-58.38Q326.28-60.12 333-60.12ZM340.44-20.64L340.44-42.72L340.44-42.72Q339.60-43.20 337.98-43.68L337.98-43.68L337.98-43.68Q336.36-44.16 333.96-44.16L333.96-44.16L333.96-44.16Q328.08-44.16 325.14-40.86L325.14-40.86L325.14-40.86Q322.20-37.56 322.20-31.44L322.20-31.44L322.20-31.44Q322.20-24.48 325.14-21.42L325.14-21.42L325.14-21.42Q328.08-18.36 332.64-18.36L332.64-18.36L332.64-18.36Q337.56-18.36 340.44-20.64L340.44-20.64ZM441.48 0.36L409.32 0.36L409.32 0.36Q404.16 0.36 401.16-2.64L401.16-2.64L401.16-2.64Q398.16-5.64 398.16-10.80L398.16-10.80L398.16-72.84L398.16-72.84Q399.48-73.08 402.36-73.50L402.36-73.50L402.36-73.50Q405.24-73.92 407.88-73.92L407.88-73.92L407.88-73.92Q410.64-73.92 412.74-73.50L412.74-73.50L412.74-73.50Q414.84-73.08 416.28-72L416.28-72L416.28-72Q417.72-70.92 418.44-69L418.44-69L418.44-69Q419.16-67.08 419.16-63.96L419.16-63.96L419.16-16.56L446.64-16.56L446.64-16.56Q447.48-15.24 448.20-13.02L448.20-13.02L448.20-13.02Q448.92-10.80 448.92-8.40L448.92-8.40L448.92-8.40Q448.92-3.60 446.88-1.62L446.88-1.62L446.88-1.62Q444.84 0.36 441.48 0.36L441.48 0.36ZM487.80 1.92L487.80 1.92L487.80 1.92Q480.72 1.92 474.66-0.06L474.66-0.06L474.66-0.06Q468.60-2.04 464.10-6L464.10-6L464.10-6Q459.60-9.96 457.02-15.96L457.02-15.96L457.02-15.96Q454.44-21.96 454.44-30L454.44-30L454.44-30Q454.44-37.92 457.02-43.62L457.02-43.62L457.02-43.62Q459.60-49.32 463.80-52.98L463.80-52.98L463.80-52.98Q468-56.64 473.40-58.38L473.40-58.38L473.40-58.38Q478.80-60.12 484.44-60.12L484.44-60.12L484.44-60.12Q490.80-60.12 496.02-58.20L496.02-58.20L496.02-58.20Q501.24-56.28 505.02-52.92L505.02-52.92L505.02-52.92Q508.80-49.56 510.90-44.88L510.90-44.88L510.90-44.88Q513-40.20 513-34.68L513-34.68L513-34.68Q513-30.60 510.72-28.44L510.72-28.44L510.72-28.44Q508.44-26.28 504.36-25.68L504.36-25.68L474.72-21.24L474.72-21.24Q476.04-17.28 480.12-15.30L480.12-15.30L480.12-15.30Q484.20-13.32 489.48-13.32L489.48-13.32L489.48-13.32Q494.40-13.32 498.78-14.58L498.78-14.58L498.78-14.58Q503.16-15.84 505.92-17.52L505.92-17.52L505.92-17.52Q507.84-16.32 509.16-14.16L509.16-14.16L509.16-14.16Q510.48-12 510.48-9.60L510.48-9.60L510.48-9.60Q510.48-4.20 505.44-1.56L505.44-1.56L505.44-1.56Q501.60 0.48 496.80 1.20L496.80 1.20L496.80 1.20Q492 1.92 487.80 1.92ZM484.44-45.24L484.44-45.24L484.44-45.24Q481.56-45.24 479.46-44.28L479.46-44.28L479.46-44.28Q477.36-43.32 476.04-41.82L476.04-41.82L476.04-41.82Q474.72-40.32 474.06-38.46L474.06-38.46L474.06-38.46Q473.40-36.60 473.28-34.68L473.28-34.68L493.80-38.04L493.80-38.04Q493.44-40.44 491.16-42.84L491.16-42.84L491.16-42.84Q488.88-45.24 484.44-45.24ZM543.24-41.04L543.24-0.12L543.24-0.12Q542.04 0.24 539.46 0.60L539.46 0.60L539.46 0.60Q536.88 0.96 534.12 0.96L534.12 0.96L534.12 0.96Q531.48 0.96 529.38 0.60L529.38 0.60L529.38 0.60Q527.28 0.24 525.84-0.84L525.84-0.84L525.84-0.84Q524.40-1.92 523.62-3.78L523.62-3.78L523.62-3.78Q522.84-5.64 522.84-8.64L522.84-8.64L522.84-44.64L522.84-44.64Q522.84-47.40 523.86-49.38L523.86-49.38L523.86-49.38Q524.88-51.36 526.80-52.92L526.80-52.92L526.80-52.92Q528.72-54.48 531.54-55.74L531.54-55.74L531.54-55.74Q534.36-57 537.60-57.96L537.60-57.96L537.60-57.96Q540.84-58.92 544.32-59.46L544.32-59.46L544.32-59.46Q547.80-60 551.28-60L551.28-60L551.28-60Q557.04-60 560.40-57.78L560.40-57.78L560.40-57.78Q563.76-55.56 563.76-50.52L563.76-50.52L563.76-50.52Q563.76-48.84 563.28-47.22L563.28-47.22L563.28-47.22Q562.80-45.60 562.08-44.28L562.08-44.28L562.08-44.28Q559.56-44.28 556.92-44.04L556.92-44.04L556.92-44.04Q554.28-43.80 551.76-43.32L551.76-43.32L551.76-43.32Q549.24-42.84 547.02-42.30L547.02-42.30L547.02-42.30Q544.80-41.76 543.24-41.04L543.24-41.04ZM595.32-12.96L595.32-12.96L595.32-12.96Q597.36-12.96 599.82-13.38L599.82-13.38L599.82-13.38Q602.28-13.80 603.48-14.52L603.48-14.52L603.48-24.12L594.84-23.40L594.84-23.40Q591.48-23.16 589.32-21.96L589.32-21.96L589.32-21.96Q587.16-20.76 587.16-18.36L587.16-18.36L587.16-18.36Q587.16-15.96 589.02-14.46L589.02-14.46L589.02-14.46Q590.88-12.96 595.32-12.96ZM594.36-60.12L594.36-60.12L594.36-60.12Q600.84-60.12 606.18-58.80L606.18-58.80L606.18-58.80Q611.52-57.48 615.30-54.78L615.30-54.78L615.30-54.78Q619.08-52.08 621.12-47.94L621.12-47.94L621.12-47.94Q623.16-43.80 623.16-38.16L623.16-38.16L623.16-11.28L623.16-11.28Q623.16-8.16 621.42-6.18L621.42-6.18L621.42-6.18Q619.68-4.20 617.28-2.76L617.28-2.76L617.28-2.76Q609.48 1.92 595.32 1.92L595.32 1.92L595.32 1.92Q588.96 1.92 583.86 0.72L583.86 0.72L583.86 0.72Q578.76-0.48 575.10-2.88L575.10-2.88L575.10-2.88Q571.44-5.28 569.46-9L569.46-9L569.46-9Q567.48-12.72 567.48-17.64L567.48-17.64L567.48-17.64Q567.48-25.92 572.40-30.36L572.40-30.36L572.40-30.36Q577.32-34.80 587.64-35.88L587.64-35.88L603.36-37.56L603.36-38.40L603.36-38.40Q603.36-41.88 600.30-43.38L600.30-43.38L600.30-43.38Q597.24-44.88 591.48-44.88L591.48-44.88L591.48-44.88Q586.92-44.88 582.60-43.92L582.60-43.92L582.60-43.92Q578.28-42.96 574.80-41.52L574.80-41.52L574.80-41.52Q573.24-42.60 572.16-44.82L572.16-44.82L572.16-44.82Q571.08-47.04 571.08-49.44L571.08-49.44L571.08-49.44Q571.08-52.56 572.58-54.42L572.58-54.42L572.58-54.42Q574.08-56.28 577.20-57.60L577.20-57.60L577.20-57.60Q580.68-58.92 585.42-59.52L585.42-59.52L585.42-59.52Q590.16-60.12 594.36-60.12Z" fill="url(#editing-shiny-gradient2)"></path></g></g><style>text {
  font-size: 64px;
  font-family: Arial Black;
  dominant-baseline: central;
  text-anchor: middle;
}</style></svg>