<svg width="918.91748046875px" height="270.835009765625px" xmlns="http://www.w3.org/2000/svg" viewBox="-209.458740234375 -60.417504882812494 918.91748046875 270.835009765625" style="background: none;" preserveAspectRatio="xMidYMid"><defs><linearGradient id="editing-shiny-gradient" x1="0.002739052315863355" x2="0.9972609476841366" y1="0.5522642316338267" y2="0.4477357683661733" gradientUnits="objectBoundingBox"><stop offset="0.0" stop-color="#1cc7d0"></stop><stop offset="0.5" stop-color="#00aeff"></stop><stop offset="1.0" stop-color="#2dde98"></stop></linearGradient><linearGradient id="editing-shiny-gradient2" x1="0" x2="0" y1="0" y2="1"><stop offset="0.2" stop-color="#fff" stop-opacity="0.8"></stop><stop offset="0.8" stop-color="#fff" stop-opacity="0"></stop></linearGradient><filter id="editing-shiny2" x="-100%" y="-100%" width="300%" height="300%"><feMorphology operator="erode" radius="2"></feMorphology></filter><filter id="editing-shiny" x="-100%" y="-100%" width="300%" height="300%"><feFlood flood-color="#fff" result="flood"></feFlood><feConvolveMatrix in="SourceGraphic" result="conv" order="8,8" divisor="1" kernelMatrix="0 0 0 0 0 0 0 0 0 0 0 1 1 0 0 0 0 0 0 1 1 0 0 0 0 0 1 0 0 1 0 0 0 0 1 0 0 1 0 0 0 1 0 0 0 0 1 0 0 1 1 0 0 1 1 0 0 0 0 1 1 0 0 0 "></feConvolveMatrix><feOffset dx="0" dy="4" in="conv" result="offset"></feOffset><feComposite operator="in" in="flood" in2="offset" result="comp"></feComposite><feGaussianBlur in="offset" stdDeviation="3" result="shadow"></feGaussianBlur><feColorMatrix in="shadow" type="matrix" values="0.7 0 0 0 0  0 0.7 0 0 0  0 0 0.7 0 0  0 0 0 0.3 0" result="dark-shadow"></feColorMatrix><feOffset dx="0" dy="4" in="dark-shadow" result="offset-shadow"></feOffset><feOffset dx="0" dy="2" in="conv" result="offset-2"></feOffset><feComposite operator="out" in="offset" in2="offset-2" result="edge-diff"></feComposite><feGaussianBlur in="edge-diff" stdDeviation="1" result="edge-blur"></feGaussianBlur><feColorMatrix in="edge-blur" result="edge-shadow" type="matrix" values="0 0 0 0 0  0 0 0 0 0  0 0 0 0 0  0 0 0 0.5 0"></feColorMatrix><feComposite operator="in" in="edge-shadow" in2="offset" result="edge-shadow-in"></feComposite><feOffset dx="0" dy="1" in="edge-shadow-in" result="edge-shadow-final"></feOffset><feMerge result="out"><feMergeNode in="offset-shadow"></feMergeNode><feMergeNode in="comp"></feMergeNode><feMergeNode in="edge-shadow-final"></feMergeNode><feMergeNode in="SourceGraphic"></feMergeNode></feMerge></filter></defs><g filter="url(#editing-shiny)"><g transform="translate(-79.69999408721924, 115.68000030517578)"><path d="M33.48-27.24L28.44-28.92L28.44-28.92Q23.16-30.72 18.84-32.58L18.84-32.58L18.84-32.58Q14.52-34.44 11.40-37.08L11.40-37.08L11.40-37.08Q8.28-39.72 6.54-43.38L6.54-43.38L6.54-43.38Q4.80-47.04 4.80-52.32L4.80-52.32L4.80-52.32Q4.80-62.52 12.66-68.64L12.66-68.64L12.66-68.64Q20.52-74.76 34.68-74.76L34.68-74.76L34.68-74.76Q39.84-74.76 44.28-74.04L44.28-74.04L44.28-74.04Q48.72-73.32 51.90-71.82L51.90-71.82L51.90-71.82Q55.08-70.32 56.88-67.98L56.88-67.98L56.88-67.98Q58.68-65.64 58.68-62.52L58.68-62.52L58.68-62.52Q58.68-59.40 57.24-57.18L57.24-57.18L57.24-57.18Q55.80-54.96 53.76-53.40L53.76-53.40L53.76-53.40Q51.12-55.08 46.68-56.34L46.68-56.34L46.68-56.34Q42.24-57.60 36.96-57.60L36.96-57.60L36.96-57.60Q31.56-57.60 29.04-56.10L29.04-56.10L29.04-56.10Q26.52-54.60 26.52-52.32L26.52-52.32L26.52-52.32Q26.52-50.52 28.08-49.38L28.08-49.38L28.08-49.38Q29.64-48.24 32.76-47.28L32.76-47.28L39.12-45.24L39.12-45.24Q50.40-41.64 56.46-36.06L56.46-36.06L56.46-36.06Q62.52-30.48 62.52-20.88L62.52-20.88L62.52-20.88Q62.52-10.68 54.48-4.38L54.48-4.38L54.48-4.38Q46.44 1.92 30.84 1.92L30.84 1.92L30.84 1.92Q25.32 1.92 20.58 1.02L20.58 1.02L20.58 1.02Q15.84 0.12 12.30-1.62L12.30-1.62L12.30-1.62Q8.76-3.36 6.78-5.94L6.78-5.94L6.78-5.94Q4.80-8.52 4.80-11.88L4.80-11.88L4.80-11.88Q4.80-15.36 6.84-17.82L6.84-17.82L6.84-17.82Q8.88-20.28 11.28-21.60L11.28-21.60L11.28-21.60Q14.64-18.96 19.50-17.04L19.50-17.04L19.50-17.04Q24.36-15.12 30.12-15.12L30.12-15.12L30.12-15.12Q36-15.12 38.40-16.92L38.40-16.92L38.40-16.92Q40.80-18.72 40.80-21.12L40.80-21.12L40.80-21.12Q40.80-23.52 38.88-24.78L38.88-24.78L38.88-24.78Q36.96-26.04 33.48-27.24L33.48-27.24ZM98.52-12.96L98.52-12.96L98.52-12.96Q100.56-12.96 103.02-13.38L103.02-13.38L103.02-13.38Q105.48-13.80 106.68-14.52L106.68-14.52L106.68-24.12L98.04-23.40L98.04-23.40Q94.68-23.16 92.52-21.96L92.52-21.96L92.52-21.96Q90.36-20.76 90.36-18.36L90.36-18.36L90.36-18.36Q90.36-15.96 92.22-14.46L92.22-14.46L92.22-14.46Q94.08-12.96 98.52-12.96ZM97.56-60.12L97.56-60.12L97.56-60.12Q104.04-60.12 109.38-58.80L109.38-58.80L109.38-58.80Q114.72-57.48 118.50-54.78L118.50-54.78L118.50-54.78Q122.28-52.08 124.32-47.94L124.32-47.94L124.32-47.94Q126.36-43.80 126.36-38.16L126.36-38.16L126.36-11.28L126.36-11.28Q126.36-8.16 124.62-6.18L124.62-6.18L124.62-6.18Q122.88-4.20 120.48-2.76L120.48-2.76L120.48-2.76Q112.68 1.92 98.52 1.92L98.52 1.92L98.52 1.92Q92.16 1.92 87.06 0.72L87.06 0.72L87.06 0.72Q81.96-0.48 78.30-2.88L78.30-2.88L78.30-2.88Q74.64-5.28 72.66-9L72.66-9L72.66-9Q70.68-12.72 70.68-17.64L70.68-17.64L70.68-17.64Q70.68-25.92 75.60-30.36L75.60-30.36L75.60-30.36Q80.52-34.80 90.84-35.88L90.84-35.88L106.56-37.56L106.56-38.40L106.56-38.40Q106.56-41.88 103.50-43.38L103.50-43.38L103.50-43.38Q100.44-44.88 94.68-44.88L94.68-44.88L94.68-44.88Q90.12-44.88 85.80-43.92L85.80-43.92L85.80-43.92Q81.48-42.96 78-41.52L78-41.52L78-41.52Q76.44-42.60 75.36-44.82L75.36-44.82L75.36-44.82Q74.28-47.04 74.28-49.44L74.28-49.44L74.28-49.44Q74.28-52.56 75.78-54.42L75.78-54.42L75.78-54.42Q77.28-56.28 80.40-57.60L80.40-57.60L80.40-57.60Q83.88-58.92 88.62-59.52L88.62-59.52L88.62-59.52Q93.36-60.12 97.56-60.12ZM136.32-29.16L136.32-29.16L136.32-29.16Q136.32-37.08 138.72-42.90L138.72-42.90L138.72-42.90Q141.12-48.72 145.38-52.56L145.38-52.56L145.38-52.56Q149.64-56.40 155.34-58.26L155.34-58.26L155.34-58.26Q161.04-60.12 167.64-60.12L167.64-60.12L167.64-60.12Q170.04-60.12 172.32-59.70L172.32-59.70L172.32-59.70Q174.60-59.28 176.04-58.68L176.04-58.68L176.04-78.12L176.04-78.12Q177.24-78.48 179.88-78.90L179.88-78.90L179.88-78.90Q182.52-79.32 185.28-79.32L185.28-79.32L185.28-79.32Q187.92-79.32 190.02-78.96L190.02-78.96L190.02-78.96Q192.12-78.60 193.56-77.52L193.56-77.52L193.56-77.52Q195.00-76.44 195.72-74.58L195.72-74.58L195.72-74.58Q196.44-72.72 196.44-69.72L196.44-69.72L196.44-12.84L196.44-12.84Q196.44-7.20 191.16-3.84L191.16-3.84L191.16-3.84Q187.68-1.56 182.16 0.18L182.16 0.18L182.16 0.18Q176.64 1.92 169.44 1.92L169.44 1.92L169.44 1.92Q161.64 1.92 155.46-0.24L155.46-0.24L155.46-0.24Q149.28-2.40 145.02-6.48L145.02-6.48L145.02-6.48Q140.76-10.56 138.54-16.26L138.54-16.26L138.54-16.26Q136.32-21.96 136.32-29.16ZM170.40-44.16L170.40-44.16L170.40-44.16Q163.92-44.16 160.44-40.44L160.44-40.44L160.44-40.44Q156.96-36.72 156.96-29.16L156.96-29.16L156.96-29.16Q156.96-21.72 160.20-17.94L160.20-17.94L160.20-17.94Q163.44-14.16 169.56-14.16L169.56-14.16L169.56-14.16Q171.72-14.16 173.46-14.82L173.46-14.82L173.46-14.82Q175.20-15.48 176.16-16.32L176.16-16.32L176.16-42.72L176.16-42.72Q173.76-44.16 170.40-44.16ZM260.40-27.24L255.36-28.92L255.36-28.92Q250.08-30.72 245.76-32.58L245.76-32.58L245.76-32.58Q241.44-34.44 238.32-37.08L238.32-37.08L238.32-37.08Q235.20-39.72 233.46-43.38L233.46-43.38L233.46-43.38Q231.72-47.04 231.72-52.32L231.72-52.32L231.72-52.32Q231.72-62.52 239.58-68.64L239.58-68.64L239.58-68.64Q247.44-74.76 261.60-74.76L261.60-74.76L261.60-74.76Q266.76-74.76 271.20-74.04L271.20-74.04L271.20-74.04Q275.64-73.32 278.82-71.82L278.82-71.82L278.82-71.82Q282-70.32 283.80-67.98L283.80-67.98L283.80-67.98Q285.60-65.64 285.60-62.52L285.60-62.52L285.60-62.52Q285.60-59.40 284.16-57.18L284.16-57.18L284.16-57.18Q282.72-54.96 280.68-53.40L280.68-53.40L280.68-53.40Q278.04-55.08 273.60-56.34L273.60-56.34L273.60-56.34Q269.16-57.60 263.88-57.60L263.88-57.60L263.88-57.60Q258.48-57.60 255.96-56.10L255.96-56.10L255.96-56.10Q253.44-54.60 253.44-52.32L253.44-52.32L253.44-52.32Q253.44-50.52 255-49.38L255-49.38L255-49.38Q256.56-48.24 259.68-47.28L259.68-47.28L266.04-45.24L266.04-45.24Q277.32-41.64 283.38-36.06L283.38-36.06L283.38-36.06Q289.44-30.48 289.44-20.88L289.44-20.88L289.44-20.88Q289.44-10.68 281.40-4.38L281.40-4.38L281.40-4.38Q273.36 1.92 257.76 1.92L257.76 1.92L257.76 1.92Q252.24 1.92 247.50 1.02L247.50 1.02L247.50 1.02Q242.76 0.12 239.22-1.62L239.22-1.62L239.22-1.62Q235.68-3.36 233.70-5.94L233.70-5.94L233.70-5.94Q231.72-8.52 231.72-11.88L231.72-11.88L231.72-11.88Q231.72-15.36 233.76-17.82L233.76-17.82L233.76-17.82Q235.80-20.28 238.20-21.60L238.20-21.60L238.20-21.60Q241.56-18.96 246.42-17.04L246.42-17.04L246.42-17.04Q251.28-15.12 257.04-15.12L257.04-15.12L257.04-15.12Q262.92-15.12 265.32-16.92L265.32-16.92L265.32-16.92Q267.72-18.72 267.72-21.12L267.72-21.12L267.72-21.12Q267.72-23.52 265.80-24.78L265.80-24.78L265.80-24.78Q263.88-26.04 260.40-27.24L260.40-27.24ZM325.44-12.96L325.44-12.96L325.44-12.96Q327.48-12.96 329.94-13.38L329.94-13.38L329.94-13.38Q332.40-13.80 333.60-14.52L333.60-14.52L333.60-24.12L324.96-23.40L324.96-23.40Q321.60-23.16 319.44-21.96L319.44-21.96L319.44-21.96Q317.28-20.76 317.28-18.36L317.28-18.36L317.28-18.36Q317.28-15.96 319.14-14.46L319.14-14.46L319.14-14.46Q321-12.96 325.44-12.96ZM324.48-60.12L324.48-60.12L324.48-60.12Q330.96-60.12 336.30-58.80L336.30-58.80L336.30-58.80Q341.64-57.48 345.42-54.78L345.42-54.78L345.42-54.78Q349.20-52.08 351.24-47.94L351.24-47.94L351.24-47.94Q353.28-43.80 353.28-38.16L353.28-38.16L353.28-11.28L353.28-11.28Q353.28-8.16 351.54-6.18L351.54-6.18L351.54-6.18Q349.80-4.20 347.40-2.76L347.40-2.76L347.40-2.76Q339.60 1.92 325.44 1.92L325.44 1.92L325.44 1.92Q319.08 1.92 313.98 0.72L313.98 0.72L313.98 0.72Q308.88-0.48 305.22-2.88L305.22-2.88L305.22-2.88Q301.56-5.28 299.58-9L299.58-9L299.58-9Q297.60-12.72 297.60-17.64L297.60-17.64L297.60-17.64Q297.60-25.92 302.52-30.36L302.52-30.36L302.52-30.36Q307.44-34.80 317.76-35.88L317.76-35.88L333.48-37.56L333.48-38.40L333.48-38.40Q333.48-41.88 330.42-43.38L330.42-43.38L330.42-43.38Q327.36-44.88 321.60-44.88L321.60-44.88L321.60-44.88Q317.04-44.88 312.72-43.92L312.72-43.92L312.72-43.92Q308.40-42.96 304.92-41.52L304.92-41.52L304.92-41.52Q303.36-42.60 302.28-44.82L302.28-44.82L302.28-44.82Q301.20-47.04 301.20-49.44L301.20-49.44L301.20-49.44Q301.20-52.56 302.70-54.42L302.70-54.42L302.70-54.42Q304.20-56.28 307.32-57.60L307.32-57.60L307.32-57.60Q310.80-58.92 315.54-59.52L315.54-59.52L315.54-59.52Q320.28-60.12 324.48-60.12ZM393.72-60.12L393.72-60.12L393.72-60.12Q398.64-60.12 403.38-58.74L403.38-58.74L403.38-58.74Q408.12-57.36 411.60-54.60L411.60-54.60L411.60-54.60Q415.20-57 419.70-58.56L419.70-58.56L419.70-58.56Q424.20-60.12 430.56-60.12L430.56-60.12L430.56-60.12Q435.12-60.12 439.50-58.92L439.50-58.92L439.50-58.92Q443.88-57.72 447.30-55.14L447.30-55.14L447.30-55.14Q450.72-52.56 452.76-48.30L452.76-48.30L452.76-48.30Q454.80-44.04 454.80-37.92L454.80-37.92L454.80-0.12L454.80-0.12Q453.60 0.24 451.02 0.60L451.02 0.60L451.02 0.60Q448.44 0.96 445.68 0.96L445.68 0.96L445.68 0.96Q443.04 0.96 440.94 0.60L440.94 0.60L440.94 0.60Q438.84 0.24 437.40-0.84L437.40-0.84L437.40-0.84Q435.96-1.92 435.18-3.78L435.18-3.78L435.18-3.78Q434.40-5.64 434.40-8.64L434.40-8.64L434.40-37.32L434.40-37.32Q434.40-40.92 432.36-42.54L432.36-42.54L432.36-42.54Q430.32-44.16 426.84-44.16L426.84-44.16L426.84-44.16Q425.16-44.16 423.24-43.38L423.24-43.38L423.24-43.38Q421.32-42.60 420.36-41.76L420.36-41.76L420.36-41.76Q420.48-41.28 420.48-40.86L420.48-40.86L420.48-40.86Q420.48-40.44 420.48-40.08L420.48-40.08L420.48-0.12L420.48-0.12Q419.16 0.24 416.58 0.60L416.58 0.60L416.58 0.60Q414 0.96 411.36 0.96L411.36 0.96L411.36 0.96Q408.72 0.96 406.62 0.60L406.62 0.60L406.62 0.60Q404.52 0.24 403.08-0.84L403.08-0.84L403.08-0.84Q401.64-1.92 400.86-3.78L400.86-3.78L400.86-3.78Q400.08-5.64 400.08-8.64L400.08-8.64L400.08-37.32L400.08-37.32Q400.08-40.92 397.86-42.54L397.86-42.54L397.86-42.54Q395.64-44.16 392.52-44.16L392.52-44.16L392.52-44.16Q390.36-44.16 388.80-43.50L388.80-43.50L388.80-43.50Q387.24-42.84 386.16-42.24L386.16-42.24L386.16-0.12L386.16-0.12Q384.96 0.24 382.38 0.60L382.38 0.60L382.38 0.60Q379.80 0.96 377.04 0.96L377.04 0.96L377.04 0.96Q374.40 0.96 372.30 0.60L372.30 0.60L372.30 0.60Q370.20 0.24 368.76-0.84L368.76-0.84L368.76-0.84Q367.32-1.92 366.54-3.78L366.54-3.78L366.54-3.78Q365.76-5.64 365.76-8.64L365.76-8.64L365.76-44.88L365.76-44.88Q365.76-48.12 367.14-50.04L367.14-50.04L367.14-50.04Q368.52-51.96 370.92-53.64L370.92-53.64L370.92-53.64Q375-56.52 381.06-58.32L381.06-58.32L381.06-58.32Q387.12-60.12 393.72-60.12ZM516.48-17.40L516.48-17.40L516.48-17.40Q516.48-8.28 509.64-3.12L509.64-3.12L509.64-3.12Q502.80 2.04 489.48 2.04L489.48 2.04L489.48 2.04Q484.44 2.04 480.12 1.32L480.12 1.32L480.12 1.32Q475.80 0.60 472.74-0.90L472.74-0.90L472.74-0.90Q469.68-2.40 467.94-4.68L467.94-4.68L467.94-4.68Q466.20-6.96 466.20-10.08L466.20-10.08L466.20-10.08Q466.20-12.96 467.40-14.94L467.40-14.94L467.40-14.94Q468.60-16.92 470.28-18.24L470.28-18.24L470.28-18.24Q473.76-16.32 478.26-14.82L478.26-14.82L478.26-14.82Q482.76-13.32 488.64-13.32L488.64-13.32L488.64-13.32Q492.36-13.32 494.34-14.40L494.34-14.40L494.34-14.40Q496.32-15.48 496.32-17.28L496.32-17.28L496.32-17.28Q496.32-18.96 494.88-19.92L494.88-19.92L494.88-19.92Q493.44-20.88 490.08-21.48L490.08-21.48L486.48-22.20L486.48-22.20Q476.04-24.24 470.94-28.62L470.94-28.62L470.94-28.62Q465.84-33 465.84-41.16L465.84-41.16L465.84-41.16Q465.84-45.60 467.76-49.20L467.76-49.20L467.76-49.20Q469.68-52.80 473.16-55.20L473.16-55.20L473.16-55.20Q476.64-57.60 481.50-58.92L481.50-58.92L481.50-58.92Q486.36-60.24 492.24-60.24L492.24-60.24L492.24-60.24Q496.68-60.24 500.58-59.58L500.58-59.58L500.58-59.58Q504.48-58.92 507.36-57.60L507.36-57.60L507.36-57.60Q510.24-56.28 511.92-54.18L511.92-54.18L511.92-54.18Q513.60-52.08 513.60-49.20L513.60-49.20L513.60-49.20Q513.60-46.44 512.58-44.46L512.58-44.46L512.58-44.46Q511.56-42.48 510.00-41.16L510.00-41.16L510.00-41.16Q509.04-41.76 507.12-42.42L507.12-42.42L507.12-42.42Q505.20-43.08 502.92-43.62L502.92-43.62L502.92-43.62Q500.64-44.16 498.30-44.52L498.30-44.52L498.30-44.52Q495.96-44.88 494.04-44.88L494.04-44.88L494.04-44.88Q490.08-44.88 487.92-43.98L487.92-43.98L487.92-43.98Q485.76-43.08 485.76-41.16L485.76-41.16L485.76-41.16Q485.76-39.84 486.96-39L486.96-39L486.96-39Q488.16-38.16 491.52-37.44L491.52-37.44L495.24-36.60L495.24-36.60Q506.76-33.96 511.62-29.34L511.62-29.34L511.62-29.34Q516.48-24.72 516.48-17.40ZM587.28-29.16L587.28-29.16L587.28-29.16Q587.28-21.72 585-15.90L585-15.90L585-15.90Q582.72-10.08 578.58-6.12L578.58-6.12L578.58-6.12Q574.44-2.16 568.68-0.12L568.68-0.12L568.68-0.12Q562.92 1.92 555.84 1.92L555.84 1.92L555.84 1.92Q548.76 1.92 543-0.24L543-0.24L543-0.24Q537.24-2.40 533.10-6.42L533.10-6.42L533.10-6.42Q528.96-10.44 526.68-16.20L526.68-16.20L526.68-16.20Q524.40-21.96 524.40-29.16L524.40-29.16L524.40-29.16Q524.40-36.24 526.68-42L526.68-42L526.68-42Q528.96-47.76 533.10-51.78L533.10-51.78L533.10-51.78Q537.24-55.80 543-57.96L543-57.96L543-57.96Q548.76-60.12 555.84-60.12L555.84-60.12L555.84-60.12Q562.92-60.12 568.68-57.90L568.68-57.90L568.68-57.90Q574.44-55.68 578.58-51.66L578.58-51.66L578.58-51.66Q582.72-47.64 585-41.88L585-41.88L585-41.88Q587.28-36.12 587.28-29.16ZM545.28-29.16L545.28-29.16L545.28-29.16Q545.28-21.84 548.10-17.94L548.10-17.94L548.10-17.94Q550.92-14.04 555.96-14.04L555.96-14.04L555.96-14.04Q561-14.04 563.70-18L563.70-18L563.70-18Q566.40-21.96 566.40-29.16L566.40-29.16L566.40-29.16Q566.40-36.36 563.64-40.26L563.64-40.26L563.64-40.26Q560.88-44.16 555.84-44.16L555.84-44.16L555.84-44.16Q550.80-44.16 548.04-40.26L548.04-40.26L548.04-40.26Q545.28-36.36 545.28-29.16ZM634.20-8.64L634.20-36.96L634.20-36.96Q634.20-40.68 632.10-42.42L632.10-42.42L632.10-42.42Q630-44.16 626.40-44.16L626.40-44.16L626.40-44.16Q624-44.16 621.66-43.56L621.66-43.56L621.66-43.56Q619.32-42.96 617.64-41.76L617.64-41.76L617.64-0.12L617.64-0.12Q616.44 0.24 613.86 0.60L613.86 0.60L613.86 0.60Q611.28 0.96 608.52 0.96L608.52 0.96L608.52 0.96Q605.88 0.96 603.78 0.60L603.78 0.60L603.78 0.60Q601.68 0.24 600.24-0.84L600.24-0.84L600.24-0.84Q598.80-1.92 598.02-3.78L598.02-3.78L598.02-3.78Q597.24-5.64 597.24-8.64L597.24-8.64L597.24-44.64L597.24-44.64Q597.24-47.88 598.62-49.92L598.62-49.92L598.62-49.92Q600-51.96 602.40-53.64L602.40-53.64L602.40-53.64Q606.48-56.52 612.66-58.32L612.66-58.32L612.66-58.32Q618.84-60.12 626.40-60.12L626.40-60.12L626.40-60.12Q639.96-60.12 647.28-54.18L647.28-54.18L647.28-54.18Q654.60-48.24 654.60-37.68L654.60-37.68L654.60-0.12L654.60-0.12Q653.40 0.24 650.82 0.60L650.82 0.60L650.82 0.60Q648.24 0.96 645.48 0.96L645.48 0.96L645.48 0.96Q642.84 0.96 640.74 0.60L640.74 0.60L640.74 0.60Q638.64 0.24 637.20-0.84L637.20-0.84L637.20-0.84Q635.76-1.92 634.98-3.78L634.98-3.78L634.98-3.78Q634.20-5.64 634.20-8.64L634.20-8.64Z" fill="url(#editing-shiny-gradient)"></path></g></g><g filter="url(#editing-shiny2)"><g transform="translate(-79.69999408721924, 115.68000030517578)"><path d="M33.48-27.24L28.44-28.92L28.44-28.92Q23.16-30.72 18.84-32.58L18.84-32.58L18.84-32.58Q14.52-34.44 11.40-37.08L11.40-37.08L11.40-37.08Q8.28-39.72 6.54-43.38L6.54-43.38L6.54-43.38Q4.80-47.04 4.80-52.32L4.80-52.32L4.80-52.32Q4.80-62.52 12.66-68.64L12.66-68.64L12.66-68.64Q20.52-74.76 34.68-74.76L34.68-74.76L34.68-74.76Q39.84-74.76 44.28-74.04L44.28-74.04L44.28-74.04Q48.72-73.32 51.90-71.82L51.90-71.82L51.90-71.82Q55.08-70.32 56.88-67.98L56.88-67.98L56.88-67.98Q58.68-65.64 58.68-62.52L58.68-62.52L58.68-62.52Q58.68-59.40 57.24-57.18L57.24-57.18L57.24-57.18Q55.80-54.96 53.76-53.40L53.76-53.40L53.76-53.40Q51.12-55.08 46.68-56.34L46.68-56.34L46.68-56.34Q42.24-57.60 36.96-57.60L36.96-57.60L36.96-57.60Q31.56-57.60 29.04-56.10L29.04-56.10L29.04-56.10Q26.52-54.60 26.52-52.32L26.52-52.32L26.52-52.32Q26.52-50.52 28.08-49.38L28.08-49.38L28.08-49.38Q29.64-48.24 32.76-47.28L32.76-47.28L39.12-45.24L39.12-45.24Q50.40-41.64 56.46-36.06L56.46-36.06L56.46-36.06Q62.52-30.48 62.52-20.88L62.52-20.88L62.52-20.88Q62.52-10.68 54.48-4.38L54.48-4.38L54.48-4.38Q46.44 1.92 30.84 1.92L30.84 1.92L30.84 1.92Q25.32 1.92 20.58 1.02L20.58 1.02L20.58 1.02Q15.84 0.12 12.30-1.62L12.30-1.62L12.30-1.62Q8.76-3.36 6.78-5.94L6.78-5.94L6.78-5.94Q4.80-8.52 4.80-11.88L4.80-11.88L4.80-11.88Q4.80-15.36 6.84-17.82L6.84-17.82L6.84-17.82Q8.88-20.28 11.28-21.60L11.28-21.60L11.28-21.60Q14.64-18.96 19.50-17.04L19.50-17.04L19.50-17.04Q24.36-15.12 30.12-15.12L30.12-15.12L30.12-15.12Q36-15.12 38.40-16.92L38.40-16.92L38.40-16.92Q40.80-18.72 40.80-21.12L40.80-21.12L40.80-21.12Q40.80-23.52 38.88-24.78L38.88-24.78L38.88-24.78Q36.96-26.04 33.48-27.24L33.48-27.24ZM98.52-12.96L98.52-12.96L98.52-12.96Q100.56-12.96 103.02-13.38L103.02-13.38L103.02-13.38Q105.48-13.80 106.68-14.52L106.68-14.52L106.68-24.12L98.04-23.40L98.04-23.40Q94.68-23.16 92.52-21.96L92.52-21.96L92.52-21.96Q90.36-20.76 90.36-18.36L90.36-18.36L90.36-18.36Q90.36-15.96 92.22-14.46L92.22-14.46L92.22-14.46Q94.08-12.96 98.52-12.96ZM97.56-60.12L97.56-60.12L97.56-60.12Q104.04-60.12 109.38-58.80L109.38-58.80L109.38-58.80Q114.72-57.48 118.50-54.78L118.50-54.78L118.50-54.78Q122.28-52.08 124.32-47.94L124.32-47.94L124.32-47.94Q126.36-43.80 126.36-38.16L126.36-38.16L126.36-11.28L126.36-11.28Q126.36-8.16 124.62-6.18L124.62-6.18L124.62-6.18Q122.88-4.20 120.48-2.76L120.48-2.76L120.48-2.76Q112.68 1.92 98.52 1.92L98.52 1.92L98.52 1.92Q92.16 1.92 87.06 0.72L87.06 0.72L87.06 0.72Q81.96-0.48 78.30-2.88L78.30-2.88L78.30-2.88Q74.64-5.28 72.66-9L72.66-9L72.66-9Q70.68-12.72 70.68-17.64L70.68-17.64L70.68-17.64Q70.68-25.92 75.60-30.36L75.60-30.36L75.60-30.36Q80.52-34.80 90.84-35.88L90.84-35.88L106.56-37.56L106.56-38.40L106.56-38.40Q106.56-41.88 103.50-43.38L103.50-43.38L103.50-43.38Q100.44-44.88 94.68-44.88L94.68-44.88L94.68-44.88Q90.12-44.88 85.80-43.92L85.80-43.92L85.80-43.92Q81.48-42.96 78-41.52L78-41.52L78-41.52Q76.44-42.60 75.36-44.82L75.36-44.82L75.36-44.82Q74.28-47.04 74.28-49.44L74.28-49.44L74.28-49.44Q74.28-52.56 75.78-54.42L75.78-54.42L75.78-54.42Q77.28-56.28 80.40-57.60L80.40-57.60L80.40-57.60Q83.88-58.92 88.62-59.52L88.62-59.52L88.62-59.52Q93.36-60.12 97.56-60.12ZM136.32-29.16L136.32-29.16L136.32-29.16Q136.32-37.08 138.72-42.90L138.72-42.90L138.72-42.90Q141.12-48.72 145.38-52.56L145.38-52.56L145.38-52.56Q149.64-56.40 155.34-58.26L155.34-58.26L155.34-58.26Q161.04-60.12 167.64-60.12L167.64-60.12L167.64-60.12Q170.04-60.12 172.32-59.70L172.32-59.70L172.32-59.70Q174.60-59.28 176.04-58.68L176.04-58.68L176.04-78.12L176.04-78.12Q177.24-78.48 179.88-78.90L179.88-78.90L179.88-78.90Q182.52-79.32 185.28-79.32L185.28-79.32L185.28-79.32Q187.92-79.32 190.02-78.96L190.02-78.96L190.02-78.96Q192.12-78.60 193.56-77.52L193.56-77.52L193.56-77.52Q195.00-76.44 195.72-74.58L195.72-74.58L195.72-74.58Q196.44-72.72 196.44-69.72L196.44-69.72L196.44-12.84L196.44-12.84Q196.44-7.20 191.16-3.84L191.16-3.84L191.16-3.84Q187.68-1.56 182.16 0.18L182.16 0.18L182.16 0.18Q176.64 1.92 169.44 1.92L169.44 1.92L169.44 1.92Q161.64 1.92 155.46-0.24L155.46-0.24L155.46-0.24Q149.28-2.40 145.02-6.48L145.02-6.48L145.02-6.48Q140.76-10.56 138.54-16.26L138.54-16.26L138.54-16.26Q136.32-21.96 136.32-29.16ZM170.40-44.16L170.40-44.16L170.40-44.16Q163.92-44.16 160.44-40.44L160.44-40.44L160.44-40.44Q156.96-36.72 156.96-29.16L156.96-29.16L156.96-29.16Q156.96-21.72 160.20-17.94L160.20-17.94L160.20-17.94Q163.44-14.16 169.56-14.16L169.56-14.16L169.56-14.16Q171.72-14.16 173.46-14.82L173.46-14.82L173.46-14.82Q175.20-15.48 176.16-16.32L176.16-16.32L176.16-42.72L176.16-42.72Q173.76-44.16 170.40-44.16ZM260.40-27.24L255.36-28.92L255.36-28.92Q250.08-30.72 245.76-32.58L245.76-32.58L245.76-32.58Q241.44-34.44 238.32-37.08L238.32-37.08L238.32-37.08Q235.20-39.72 233.46-43.38L233.46-43.38L233.46-43.38Q231.72-47.04 231.72-52.32L231.72-52.32L231.72-52.32Q231.72-62.52 239.58-68.64L239.58-68.64L239.58-68.64Q247.44-74.76 261.60-74.76L261.60-74.76L261.60-74.76Q266.76-74.76 271.20-74.04L271.20-74.04L271.20-74.04Q275.64-73.32 278.82-71.82L278.82-71.82L278.82-71.82Q282-70.32 283.80-67.98L283.80-67.98L283.80-67.98Q285.60-65.64 285.60-62.52L285.60-62.52L285.60-62.52Q285.60-59.40 284.16-57.18L284.16-57.18L284.16-57.18Q282.72-54.96 280.68-53.40L280.68-53.40L280.68-53.40Q278.04-55.08 273.60-56.34L273.60-56.34L273.60-56.34Q269.16-57.60 263.88-57.60L263.88-57.60L263.88-57.60Q258.48-57.60 255.96-56.10L255.96-56.10L255.96-56.10Q253.44-54.60 253.44-52.32L253.44-52.32L253.44-52.32Q253.44-50.52 255-49.38L255-49.38L255-49.38Q256.56-48.24 259.68-47.28L259.68-47.28L266.04-45.24L266.04-45.24Q277.32-41.64 283.38-36.06L283.38-36.06L283.38-36.06Q289.44-30.48 289.44-20.88L289.44-20.88L289.44-20.88Q289.44-10.68 281.40-4.38L281.40-4.38L281.40-4.38Q273.36 1.92 257.76 1.92L257.76 1.92L257.76 1.92Q252.24 1.92 247.50 1.02L247.50 1.02L247.50 1.02Q242.76 0.12 239.22-1.62L239.22-1.62L239.22-1.62Q235.68-3.36 233.70-5.94L233.70-5.94L233.70-5.94Q231.72-8.52 231.72-11.88L231.72-11.88L231.72-11.88Q231.72-15.36 233.76-17.82L233.76-17.82L233.76-17.82Q235.80-20.28 238.20-21.60L238.20-21.60L238.20-21.60Q241.56-18.96 246.42-17.04L246.42-17.04L246.42-17.04Q251.28-15.12 257.04-15.12L257.04-15.12L257.04-15.12Q262.92-15.12 265.32-16.92L265.32-16.92L265.32-16.92Q267.72-18.72 267.72-21.12L267.72-21.12L267.72-21.12Q267.72-23.52 265.80-24.78L265.80-24.78L265.80-24.78Q263.88-26.04 260.40-27.24L260.40-27.24ZM325.44-12.96L325.44-12.96L325.44-12.96Q327.48-12.96 329.94-13.38L329.94-13.38L329.94-13.38Q332.40-13.80 333.60-14.52L333.60-14.52L333.60-24.12L324.96-23.40L324.96-23.40Q321.60-23.16 319.44-21.96L319.44-21.96L319.44-21.96Q317.28-20.76 317.28-18.36L317.28-18.36L317.28-18.36Q317.28-15.96 319.14-14.46L319.14-14.46L319.14-14.46Q321-12.96 325.44-12.96ZM324.48-60.12L324.48-60.12L324.48-60.12Q330.96-60.12 336.30-58.80L336.30-58.80L336.30-58.80Q341.64-57.48 345.42-54.78L345.42-54.78L345.42-54.78Q349.20-52.08 351.24-47.94L351.24-47.94L351.24-47.94Q353.28-43.80 353.28-38.16L353.28-38.16L353.28-11.28L353.28-11.28Q353.28-8.16 351.54-6.18L351.54-6.18L351.54-6.18Q349.80-4.20 347.40-2.76L347.40-2.76L347.40-2.76Q339.60 1.92 325.44 1.92L325.44 1.92L325.44 1.92Q319.08 1.92 313.98 0.72L313.98 0.72L313.98 0.72Q308.88-0.48 305.22-2.88L305.22-2.88L305.22-2.88Q301.56-5.28 299.58-9L299.58-9L299.58-9Q297.60-12.72 297.60-17.64L297.60-17.64L297.60-17.64Q297.60-25.92 302.52-30.36L302.52-30.36L302.52-30.36Q307.44-34.80 317.76-35.88L317.76-35.88L333.48-37.56L333.48-38.40L333.48-38.40Q333.48-41.88 330.42-43.38L330.42-43.38L330.42-43.38Q327.36-44.88 321.60-44.88L321.60-44.88L321.60-44.88Q317.04-44.88 312.72-43.92L312.72-43.92L312.72-43.92Q308.40-42.96 304.92-41.52L304.92-41.52L304.92-41.52Q303.36-42.60 302.28-44.82L302.28-44.82L302.28-44.82Q301.20-47.04 301.20-49.44L301.20-49.44L301.20-49.44Q301.20-52.56 302.70-54.42L302.70-54.42L302.70-54.42Q304.20-56.28 307.32-57.60L307.32-57.60L307.32-57.60Q310.80-58.92 315.54-59.52L315.54-59.52L315.54-59.52Q320.28-60.12 324.48-60.12ZM393.72-60.12L393.72-60.12L393.72-60.12Q398.64-60.12 403.38-58.74L403.38-58.74L403.38-58.74Q408.12-57.36 411.60-54.60L411.60-54.60L411.60-54.60Q415.20-57 419.70-58.56L419.70-58.56L419.70-58.56Q424.20-60.12 430.56-60.12L430.56-60.12L430.56-60.12Q435.12-60.12 439.50-58.92L439.50-58.92L439.50-58.92Q443.88-57.72 447.30-55.14L447.30-55.14L447.30-55.14Q450.72-52.56 452.76-48.30L452.76-48.30L452.76-48.30Q454.80-44.04 454.80-37.92L454.80-37.92L454.80-0.12L454.80-0.12Q453.60 0.24 451.02 0.60L451.02 0.60L451.02 0.60Q448.44 0.96 445.68 0.96L445.68 0.96L445.68 0.96Q443.04 0.96 440.94 0.60L440.94 0.60L440.94 0.60Q438.84 0.24 437.40-0.84L437.40-0.84L437.40-0.84Q435.96-1.92 435.18-3.78L435.18-3.78L435.18-3.78Q434.40-5.64 434.40-8.64L434.40-8.64L434.40-37.32L434.40-37.32Q434.40-40.92 432.36-42.54L432.36-42.54L432.36-42.54Q430.32-44.16 426.84-44.16L426.84-44.16L426.84-44.16Q425.16-44.16 423.24-43.38L423.24-43.38L423.24-43.38Q421.32-42.60 420.36-41.76L420.36-41.76L420.36-41.76Q420.48-41.28 420.48-40.86L420.48-40.86L420.48-40.86Q420.48-40.44 420.48-40.08L420.48-40.08L420.48-0.12L420.48-0.12Q419.16 0.24 416.58 0.60L416.58 0.60L416.58 0.60Q414 0.96 411.36 0.96L411.36 0.96L411.36 0.96Q408.72 0.96 406.62 0.60L406.62 0.60L406.62 0.60Q404.52 0.24 403.08-0.84L403.08-0.84L403.08-0.84Q401.64-1.92 400.86-3.78L400.86-3.78L400.86-3.78Q400.08-5.64 400.08-8.64L400.08-8.64L400.08-37.32L400.08-37.32Q400.08-40.92 397.86-42.54L397.86-42.54L397.86-42.54Q395.64-44.16 392.52-44.16L392.52-44.16L392.52-44.16Q390.36-44.16 388.80-43.50L388.80-43.50L388.80-43.50Q387.24-42.84 386.16-42.24L386.16-42.24L386.16-0.12L386.16-0.12Q384.96 0.24 382.38 0.60L382.38 0.60L382.38 0.60Q379.80 0.96 377.04 0.96L377.04 0.96L377.04 0.96Q374.40 0.96 372.30 0.60L372.30 0.60L372.30 0.60Q370.20 0.24 368.76-0.84L368.76-0.84L368.76-0.84Q367.32-1.92 366.54-3.78L366.54-3.78L366.54-3.78Q365.76-5.64 365.76-8.64L365.76-8.64L365.76-44.88L365.76-44.88Q365.76-48.12 367.14-50.04L367.14-50.04L367.14-50.04Q368.52-51.96 370.92-53.64L370.92-53.64L370.92-53.64Q375-56.52 381.06-58.32L381.06-58.32L381.06-58.32Q387.12-60.12 393.72-60.12ZM516.48-17.40L516.48-17.40L516.48-17.40Q516.48-8.28 509.64-3.12L509.64-3.12L509.64-3.12Q502.80 2.04 489.48 2.04L489.48 2.04L489.48 2.04Q484.44 2.04 480.12 1.32L480.12 1.32L480.12 1.32Q475.80 0.60 472.74-0.90L472.74-0.90L472.74-0.90Q469.68-2.40 467.94-4.68L467.94-4.68L467.94-4.68Q466.20-6.96 466.20-10.08L466.20-10.08L466.20-10.08Q466.20-12.96 467.40-14.94L467.40-14.94L467.40-14.94Q468.60-16.92 470.28-18.24L470.28-18.24L470.28-18.24Q473.76-16.32 478.26-14.82L478.26-14.82L478.26-14.82Q482.76-13.32 488.64-13.32L488.64-13.32L488.64-13.32Q492.36-13.32 494.34-14.40L494.34-14.40L494.34-14.40Q496.32-15.48 496.32-17.28L496.32-17.28L496.32-17.28Q496.32-18.96 494.88-19.92L494.88-19.92L494.88-19.92Q493.44-20.88 490.08-21.48L490.08-21.48L486.48-22.20L486.48-22.20Q476.04-24.24 470.94-28.62L470.94-28.62L470.94-28.62Q465.84-33 465.84-41.16L465.84-41.16L465.84-41.16Q465.84-45.60 467.76-49.20L467.76-49.20L467.76-49.20Q469.68-52.80 473.16-55.20L473.16-55.20L473.16-55.20Q476.64-57.60 481.50-58.92L481.50-58.92L481.50-58.92Q486.36-60.24 492.24-60.24L492.24-60.24L492.24-60.24Q496.68-60.24 500.58-59.58L500.58-59.58L500.58-59.58Q504.48-58.92 507.36-57.60L507.36-57.60L507.36-57.60Q510.24-56.28 511.92-54.18L511.92-54.18L511.92-54.18Q513.60-52.08 513.60-49.20L513.60-49.20L513.60-49.20Q513.60-46.44 512.58-44.46L512.58-44.46L512.58-44.46Q511.56-42.48 510.00-41.16L510.00-41.16L510.00-41.16Q509.04-41.76 507.12-42.42L507.12-42.42L507.12-42.42Q505.20-43.08 502.92-43.62L502.92-43.62L502.92-43.62Q500.64-44.16 498.30-44.52L498.30-44.52L498.30-44.52Q495.96-44.88 494.04-44.88L494.04-44.88L494.04-44.88Q490.08-44.88 487.92-43.98L487.92-43.98L487.92-43.98Q485.76-43.08 485.76-41.16L485.76-41.16L485.76-41.16Q485.76-39.84 486.96-39L486.96-39L486.96-39Q488.16-38.16 491.52-37.44L491.52-37.44L495.24-36.60L495.24-36.60Q506.76-33.96 511.62-29.34L511.62-29.34L511.62-29.34Q516.48-24.72 516.48-17.40ZM587.28-29.16L587.28-29.16L587.28-29.16Q587.28-21.72 585-15.90L585-15.90L585-15.90Q582.72-10.08 578.58-6.12L578.58-6.12L578.58-6.12Q574.44-2.16 568.68-0.12L568.68-0.12L568.68-0.12Q562.92 1.92 555.84 1.92L555.84 1.92L555.84 1.92Q548.76 1.92 543-0.24L543-0.24L543-0.24Q537.24-2.40 533.10-6.42L533.10-6.42L533.10-6.42Q528.96-10.44 526.68-16.20L526.68-16.20L526.68-16.20Q524.40-21.96 524.40-29.16L524.40-29.16L524.40-29.16Q524.40-36.24 526.68-42L526.68-42L526.68-42Q528.96-47.76 533.10-51.78L533.10-51.78L533.10-51.78Q537.24-55.80 543-57.96L543-57.96L543-57.96Q548.76-60.12 555.84-60.12L555.84-60.12L555.84-60.12Q562.92-60.12 568.68-57.90L568.68-57.90L568.68-57.90Q574.44-55.68 578.58-51.66L578.58-51.66L578.58-51.66Q582.72-47.64 585-41.88L585-41.88L585-41.88Q587.28-36.12 587.28-29.16ZM545.28-29.16L545.28-29.16L545.28-29.16Q545.28-21.84 548.10-17.94L548.10-17.94L548.10-17.94Q550.92-14.04 555.96-14.04L555.96-14.04L555.96-14.04Q561-14.04 563.70-18L563.70-18L563.70-18Q566.40-21.96 566.40-29.16L566.40-29.16L566.40-29.16Q566.40-36.36 563.64-40.26L563.64-40.26L563.64-40.26Q560.88-44.16 555.84-44.16L555.84-44.16L555.84-44.16Q550.80-44.16 548.04-40.26L548.04-40.26L548.04-40.26Q545.28-36.36 545.28-29.16ZM634.20-8.64L634.20-36.96L634.20-36.96Q634.20-40.68 632.10-42.42L632.10-42.42L632.10-42.42Q630-44.16 626.40-44.16L626.40-44.16L626.40-44.16Q624-44.16 621.66-43.56L621.66-43.56L621.66-43.56Q619.32-42.96 617.64-41.76L617.64-41.76L617.64-0.12L617.64-0.12Q616.44 0.24 613.86 0.60L613.86 0.60L613.86 0.60Q611.28 0.96 608.52 0.96L608.52 0.96L608.52 0.96Q605.88 0.96 603.78 0.60L603.78 0.60L603.78 0.60Q601.68 0.24 600.24-0.84L600.24-0.84L600.24-0.84Q598.80-1.92 598.02-3.78L598.02-3.78L598.02-3.78Q597.24-5.64 597.24-8.64L597.24-8.64L597.24-44.64L597.24-44.64Q597.24-47.88 598.62-49.92L598.62-49.92L598.62-49.92Q600-51.96 602.40-53.64L602.40-53.64L602.40-53.64Q606.48-56.52 612.66-58.32L612.66-58.32L612.66-58.32Q618.84-60.12 626.40-60.12L626.40-60.12L626.40-60.12Q639.96-60.12 647.28-54.18L647.28-54.18L647.28-54.18Q654.60-48.24 654.60-37.68L654.60-37.68L654.60-0.12L654.60-0.12Q653.40 0.24 650.82 0.60L650.82 0.60L650.82 0.60Q648.24 0.96 645.48 0.96L645.48 0.96L645.48 0.96Q642.84 0.96 640.74 0.60L640.74 0.60L640.74 0.60Q638.64 0.24 637.20-0.84L637.20-0.84L637.20-0.84Q635.76-1.92 634.98-3.78L634.98-3.78L634.98-3.78Q634.20-5.64 634.20-8.64L634.20-8.64Z" fill="url(#editing-shiny-gradient2)"></path></g></g><style>text {
  font-size: 64px;
  font-family: Arial Black;
  dominant-baseline: central;
  text-anchor: middle;
}</style></svg>