<svg width="1309.62001953125px" height="429.23251953125px" xmlns="http://www.w3.org/2000/svg" viewBox="-404.81000976562495 -139.616259765625 1309.62001953125 429.23251953125" style="background: rgba(0, 0, 0, 0);" preserveAspectRatio="xMidYMid"><defs><linearGradient id="editing-shiny-gradient" x1="0.04322727117869957" x2="0.9567727288213004" y1="0.2966316784620999" y2="0.7033683215379001" gradientUnits="objectBoundingBox"><stop offset="0.0" stop-color="#ffb200"></stop><stop offset="0.5" stop-color="#e10057"></stop><stop offset="1.0" stop-color="#5A1A80"></stop></linearGradient><linearGradient id="editing-shiny-gradient2" x1="0" x2="0" y1="0" y2="1"><stop offset="0.2" stop-color="#fff" stop-opacity="0.8"></stop><stop offset="0.8" stop-color="#fff" stop-opacity="0"></stop></linearGradient><filter id="editing-shiny2" x="-100%" y="-100%" width="300%" height="300%"><feMorphology operator="erode" radius="2"></feMorphology></filter><filter id="editing-shiny" x="-100%" y="-100%" width="300%" height="300%"><feFlood flood-color="#fff" result="flood"></feFlood><feConvolveMatrix in="SourceGraphic" result="conv" order="8,8" divisor="1" kernelMatrix="0 0 0 0 0 0 0 0 0 0 0 1 1 0 0 0 0 0 0 1 1 0 0 0 0 0 1 0 0 1 0 0 0 0 1 0 0 1 0 0 0 1 0 0 0 0 1 0 0 1 1 0 0 1 1 0 0 0 0 1 1 0 0 0 "></feConvolveMatrix><feOffset dx="0" dy="4" in="conv" result="offset"></feOffset><feComposite operator="in" in="flood" in2="offset" result="comp"></feComposite><feGaussianBlur in="offset" stdDeviation="3" result="shadow"></feGaussianBlur><feColorMatrix in="shadow" type="matrix" values="0.7 0 0 0 0  0 0.7 0 0 0  0 0 0.7 0 0  0 0 0 0.3 0" result="dark-shadow"></feColorMatrix><feOffset dx="0" dy="4" in="dark-shadow" result="offset-shadow"></feOffset><feOffset dx="0" dy="2" in="conv" result="offset-2"></feOffset><feComposite operator="out" in="offset" in2="offset-2" result="edge-diff"></feComposite><feGaussianBlur in="edge-diff" stdDeviation="1" result="edge-blur"></feGaussianBlur><feColorMatrix in="edge-blur" result="edge-shadow" type="matrix" values="0 0 0 0 0  0 0 0 0 0  0 0 0 0 0  0 0 0 0.5 0"></feColorMatrix><feComposite operator="in" in="edge-shadow" in2="offset" result="edge-shadow-in"></feComposite><feOffset dx="0" dy="1" in="edge-shadow-in" result="edge-shadow-final"></feOffset><feMerge result="out"><feMergeNode in="offset-shadow"></feMergeNode><feMergeNode in="comp"></feMergeNode><feMergeNode in="edge-shadow-final"></feMergeNode><feMergeNode in="SourceGraphic"></feMergeNode></feMerge></filter></defs><g filter="url(#editing-shiny)"><g transform="translate(-225.1999912261963, 141.3499984741211)"><path d="M46.84-63.70L57.23-63.70L57.23-63.70Q65.46-63.70 69.87-67.52L69.87-67.52L69.87-67.52Q74.28-71.34 74.28-79.18L74.28-79.18L74.28-79.18Q74.28-86.63 69.68-90.65L69.68-90.65L69.68-90.65Q65.07-94.67 56.25-94.67L56.25-94.67L56.25-94.67Q53.12-94.67 51.06-94.57L51.06-94.57L51.06-94.57Q49-94.47 46.84-94.08L46.84-94.08L46.84-63.70ZM47.04-36.85L47.04-0.78L47.04-0.78Q44.88-0.20 40.28 0.39L40.28 0.39L40.28 0.39Q35.67 0.98 31.16 0.98L31.16 0.98L31.16 0.98Q26.66 0.98 23.23 0.29L23.23 0.29L23.23 0.29Q19.80-0.39 17.44-2.16L17.44-2.16L17.44-2.16Q15.09-3.92 13.92-7.06L13.92-7.06L13.92-7.06Q12.74-10.19 12.74-15.29L12.74-15.29L12.74-107.60L12.74-107.60Q12.74-111.72 14.99-113.97L14.99-113.97L14.99-113.97Q17.25-116.23 21.17-117.60L21.17-117.60L21.17-117.60Q27.83-119.95 36.36-121.03L36.36-121.03L36.36-121.03Q44.88-122.11 53.51-122.11L53.51-122.11L53.51-122.11Q80.56-122.11 94.86-110.54L94.86-110.54L94.86-110.54Q109.17-98.98 109.17-79.18L109.17-79.18L109.17-79.18Q109.17-69.58 106.13-61.84L106.13-61.84L106.13-61.84Q103.10-54.10 97.12-48.51L97.12-48.51L97.12-48.51Q91.14-42.92 82.03-39.89L82.03-39.89L82.03-39.89Q72.91-36.85 60.96-36.85L60.96-36.85L47.04-36.85ZM219.72-47.63L219.72-47.63L219.72-47.63Q219.72-35.48 215.99-25.97L215.99-25.97L215.99-25.97Q212.27-16.46 205.51-10.00L205.51-10.00L205.51-10.00Q198.74-3.53 189.34-0.20L189.34-0.20L189.34-0.20Q179.93 3.14 168.36 3.14L168.36 3.14L168.36 3.14Q156.80 3.14 147.39-0.39L147.39-0.39L147.39-0.39Q137.98-3.92 131.22-10.49L131.22-10.49L131.22-10.49Q124.46-17.05 120.74-26.46L120.74-26.46L120.74-26.46Q117.01-35.87 117.01-47.63L117.01-47.63L117.01-47.63Q117.01-59.19 120.74-68.60L120.74-68.60L120.74-68.60Q124.46-78.01 131.22-84.57L131.22-84.57L131.22-84.57Q137.98-91.14 147.39-94.67L147.39-94.67L147.39-94.67Q156.80-98.20 168.36-98.20L168.36-98.20L168.36-98.20Q179.93-98.20 189.34-94.57L189.34-94.57L189.34-94.57Q198.74-90.94 205.51-84.38L205.51-84.38L205.51-84.38Q212.27-77.81 215.99-68.40L215.99-68.40L215.99-68.40Q219.72-59.00 219.72-47.63ZM151.12-47.63L151.12-47.63L151.12-47.63Q151.12-35.67 155.72-29.30L155.72-29.30L155.72-29.30Q160.33-22.93 168.56-22.93L168.56-22.93L168.56-22.93Q176.79-22.93 181.20-29.40L181.20-29.40L181.20-29.40Q185.61-35.87 185.61-47.63L185.61-47.63L185.61-47.63Q185.61-59.39 181.10-65.76L181.10-65.76L181.10-65.76Q176.60-72.13 168.36-72.13L168.36-72.13L168.36-72.13Q160.13-72.13 155.62-65.76L155.62-65.76L155.62-65.76Q151.12-59.39 151.12-47.63ZM297.72-48.61L329.08-17.25L329.08-17.25Q328.10-8.04 323.69-3.14L323.69-3.14L323.69-3.14Q319.28 1.76 310.86 1.76L310.86 1.76L310.86 1.76Q304.58 1.76 299.68-1.27L299.68-1.27L299.68-1.27Q294.78-4.31 289.10-11.56L289.10-11.56L269.70-35.87L269.70-0.20L269.70-0.20Q267.54 0.20 263.33 0.88L263.33 0.88L263.33 0.88Q259.11 1.57 254.80 1.57L254.80 1.57L254.80 1.57Q250.49 1.57 247.06 0.98L247.06 0.98L247.06 0.98Q243.63 0.39 241.28-1.37L241.28-1.37L241.28-1.37Q238.92-3.14 237.65-6.17L237.65-6.17L237.65-6.17Q236.38-9.21 236.38-14.11L236.38-14.11L236.38-127.60L236.38-127.60Q238.53-128.18 242.75-128.87L242.75-128.87L242.75-128.87Q246.96-129.56 251.27-129.56L251.27-129.56L251.27-129.56Q255.58-129.56 259.01-128.97L259.01-128.97L259.01-128.97Q262.44-128.38 264.80-126.62L264.80-126.62L264.80-126.62Q267.15-124.85 268.42-121.81L268.42-121.81L268.42-121.81Q269.70-118.78 269.70-113.88L269.70-113.88L269.70-62.13L303.41-96.63L303.41-96.63Q313.60-96.63 319.77-92.12L319.77-92.12L319.77-92.12Q325.95-87.61 325.95-80.75L325.95-80.75L325.95-80.75Q325.95-77.81 324.97-75.36L324.97-75.36L324.97-75.36Q323.99-72.91 321.93-70.36L321.93-70.36L321.93-70.36Q319.87-67.82 316.64-64.97L316.64-64.97L316.64-64.97Q313.40-62.13 309.09-58.41L309.09-58.41L297.72-48.61ZM390.82 3.14L390.82 3.14L390.82 3.14Q379.26 3.14 369.36-0.10L369.36-0.10L369.36-0.10Q359.46-3.33 352.11-9.80L352.11-9.80L352.11-9.80Q344.76-16.27 340.55-26.07L340.55-26.07L340.55-26.07Q336.34-35.87 336.34-49L336.34-49L336.34-49Q336.34-61.94 340.55-71.25L340.55-71.25L340.55-71.25Q344.76-80.56 351.62-86.53L351.62-86.53L351.62-86.53Q358.48-92.51 367.30-95.35L367.30-95.35L367.30-95.35Q376.12-98.20 385.34-98.20L385.34-98.20L385.34-98.20Q395.72-98.20 404.25-95.06L404.25-95.06L404.25-95.06Q412.78-91.92 418.95-86.44L418.95-86.44L418.95-86.44Q425.12-80.95 428.55-73.30L428.55-73.30L428.55-73.30Q431.98-65.66 431.98-56.64L431.98-56.64L431.98-56.64Q431.98-49.98 428.26-46.45L428.26-46.45L428.26-46.45Q424.54-42.92 417.87-41.94L417.87-41.94L369.46-34.69L369.46-34.69Q371.62-28.22 378.28-24.99L378.28-24.99L378.28-24.99Q384.94-21.76 393.57-21.76L393.57-21.76L393.57-21.76Q401.60-21.76 408.76-23.81L408.76-23.81L408.76-23.81Q415.91-25.87 420.42-28.62L420.42-28.62L420.42-28.62Q423.56-26.66 425.71-23.13L425.71-23.13L425.71-23.13Q427.87-19.60 427.87-15.68L427.87-15.68L427.87-15.68Q427.87-6.86 419.64-2.55L419.64-2.55L419.64-2.55Q413.36 0.78 405.52 1.96L405.52 1.96L405.52 1.96Q397.68 3.14 390.82 3.14ZM385.34-73.89L385.34-73.89L385.34-73.89Q380.63-73.89 377.20-72.32L377.20-72.32L377.20-72.32Q373.77-70.76 371.62-68.31L371.62-68.31L371.62-68.31Q369.46-65.86 368.38-62.82L368.38-62.82L368.38-62.82Q367.30-59.78 367.11-56.64L367.11-56.64L400.62-62.13L400.62-62.13Q400.04-66.05 396.31-69.97L396.31-69.97L396.31-69.97Q392.59-73.89 385.34-73.89ZM493.72-98.20L493.72-98.20L493.72-98.20Q501.76-98.20 509.50-95.94L509.50-95.94L509.50-95.94Q517.24-93.69 522.93-89.18L522.93-89.18L522.93-89.18Q528.81-93.10 536.16-95.65L536.16-95.65L536.16-95.65Q543.51-98.20 553.90-98.20L553.90-98.20L553.90-98.20Q561.34-98.20 568.50-96.24L568.50-96.24L568.50-96.24Q575.65-94.28 581.24-90.06L581.24-90.06L581.24-90.06Q586.82-85.85 590.16-78.89L590.16-78.89L590.16-78.89Q593.49-71.93 593.49-61.94L593.49-61.94L593.49-0.20L593.49-0.20Q591.53 0.39 587.31 0.98L587.31 0.98L587.31 0.98Q583.10 1.57 578.59 1.57L578.59 1.57L578.59 1.57Q574.28 1.57 570.85 0.98L570.85 0.98L570.85 0.98Q567.42 0.39 565.07-1.37L565.07-1.37L565.07-1.37Q562.72-3.14 561.44-6.17L561.44-6.17L561.44-6.17Q560.17-9.21 560.17-14.11L560.17-14.11L560.17-60.96L560.17-60.96Q560.17-66.84 556.84-69.48L556.84-69.48L556.84-69.48Q553.50-72.13 547.82-72.13L547.82-72.13L547.82-72.13Q545.08-72.13 541.94-70.85L541.94-70.85L541.94-70.85Q538.80-69.58 537.24-68.21L537.24-68.21L537.24-68.21Q537.43-67.42 537.43-66.74L537.43-66.74L537.43-66.74Q537.43-66.05 537.43-65.46L537.43-65.46L537.43-0.20L537.43-0.20Q535.28 0.39 531.06 0.98L531.06 0.98L531.06 0.98Q526.85 1.57 522.54 1.57L522.54 1.57L522.54 1.57Q518.22 1.57 514.79 0.98L514.79 0.98L514.79 0.98Q511.36 0.39 509.01-1.37L509.01-1.37L509.01-1.37Q506.66-3.14 505.39-6.17L505.39-6.17L505.39-6.17Q504.11-9.21 504.11-14.11L504.11-14.11L504.11-60.96L504.11-60.96Q504.11-66.84 500.49-69.48L500.49-69.48L500.49-69.48Q496.86-72.13 491.76-72.13L491.76-72.13L491.76-72.13Q488.24-72.13 485.69-71.05L485.69-71.05L485.69-71.05Q483.14-69.97 481.38-68.99L481.38-68.99L481.38-0.20L481.38-0.20Q479.42 0.39 475.20 0.98L475.20 0.98L475.20 0.98Q470.99 1.57 466.48 1.57L466.48 1.57L466.48 1.57Q462.17 1.57 458.74 0.98L458.74 0.98L458.74 0.98Q455.31 0.39 452.96-1.37L452.96-1.37L452.96-1.37Q450.60-3.14 449.33-6.17L449.33-6.17L449.33-6.17Q448.06-9.21 448.06-14.11L448.06-14.11L448.06-73.30L448.06-73.30Q448.06-78.60 450.31-81.73L450.31-81.73L450.31-81.73Q452.56-84.87 456.48-87.61L456.48-87.61L456.48-87.61Q463.15-92.32 473.05-95.26L473.05-95.26L473.05-95.26Q482.94-98.20 493.72-98.20ZM712.46-47.63L712.46-47.63L712.46-47.63Q712.46-35.48 708.74-25.97L708.74-25.97L708.74-25.97Q705.01-16.46 698.25-10.00L698.25-10.00L698.25-10.00Q691.49-3.53 682.08-0.20L682.08-0.20L682.08-0.20Q672.67 3.14 661.11 3.14L661.11 3.14L661.11 3.14Q649.54 3.14 640.14-0.39L640.14-0.39L640.14-0.39Q630.73-3.92 623.97-10.49L623.97-10.49L623.97-10.49Q617.20-17.05 613.48-26.46L613.48-26.46L613.48-26.46Q609.76-35.87 609.76-47.63L609.76-47.63L609.76-47.63Q609.76-59.19 613.48-68.60L613.48-68.60L613.48-68.60Q617.20-78.01 623.97-84.57L623.97-84.57L623.97-84.57Q630.73-91.14 640.14-94.67L640.14-94.67L640.14-94.67Q649.54-98.20 661.11-98.20L661.11-98.20L661.11-98.20Q672.67-98.20 682.08-94.57L682.08-94.57L682.08-94.57Q691.49-90.94 698.25-84.38L698.25-84.38L698.25-84.38Q705.01-77.81 708.74-68.40L708.74-68.40L708.74-68.40Q712.46-59.00 712.46-47.63ZM643.86-47.63L643.86-47.63L643.86-47.63Q643.86-35.67 648.47-29.30L648.47-29.30L648.47-29.30Q653.07-22.93 661.30-22.93L661.30-22.93L661.30-22.93Q669.54-22.93 673.95-29.40L673.95-29.40L673.95-29.40Q678.36-35.87 678.36-47.63L678.36-47.63L678.36-47.63Q678.36-59.39 673.85-65.76L673.85-65.76L673.85-65.76Q669.34-72.13 661.11-72.13L661.11-72.13L661.11-72.13Q652.88-72.13 648.37-65.76L648.37-65.76L648.37-65.76Q643.86-59.39 643.86-47.63ZM827.32-47.63L827.32-47.63L827.32-47.63Q827.32-35.48 823.59-25.97L823.59-25.97L823.59-25.97Q819.87-16.46 813.11-10.00L813.11-10.00L813.11-10.00Q806.34-3.53 796.94-0.20L796.94-0.20L796.94-0.20Q787.53 3.14 775.96 3.14L775.96 3.14L775.96 3.14Q764.40 3.14 754.99-0.39L754.99-0.39L754.99-0.39Q745.58-3.92 738.82-10.49L738.82-10.49L738.82-10.49Q732.06-17.05 728.34-26.46L728.34-26.46L728.34-26.46Q724.61-35.87 724.61-47.63L724.61-47.63L724.61-47.63Q724.61-59.19 728.34-68.60L728.34-68.60L728.34-68.60Q732.06-78.01 738.82-84.57L738.82-84.57L738.82-84.57Q745.58-91.14 754.99-94.67L754.99-94.67L754.99-94.67Q764.40-98.20 775.96-98.20L775.96-98.20L775.96-98.20Q787.53-98.20 796.94-94.57L796.94-94.57L796.94-94.57Q806.34-90.94 813.11-84.38L813.11-84.38L813.11-84.38Q819.87-77.81 823.59-68.40L823.59-68.40L823.59-68.40Q827.32-59.00 827.32-47.63ZM758.72-47.63L758.72-47.63L758.72-47.63Q758.72-35.67 763.32-29.30L763.32-29.30L763.32-29.30Q767.93-22.93 776.16-22.93L776.16-22.93L776.16-22.93Q784.39-22.93 788.80-29.40L788.80-29.40L788.80-29.40Q793.21-35.87 793.21-47.63L793.21-47.63L793.21-47.63Q793.21-59.39 788.70-65.76L788.70-65.76L788.70-65.76Q784.20-72.13 775.96-72.13L775.96-72.13L775.96-72.13Q767.73-72.13 763.22-65.76L763.22-65.76L763.22-65.76Q758.72-59.39 758.72-47.63ZM839.47-47.63L839.47-47.63L839.47-47.63Q839.47-60.56 843.39-70.07L843.39-70.07L843.39-70.07Q847.31-79.58 854.27-85.85L854.27-85.85L854.27-85.85Q861.22-92.12 870.53-95.16L870.53-95.16L870.53-95.16Q879.84-98.20 890.62-98.20L890.62-98.20L890.62-98.20Q894.54-98.20 898.27-97.51L898.27-97.51L898.27-97.51Q901.99-96.82 904.34-95.84L904.34-95.84L904.34-127.60L904.34-127.60Q906.30-128.18 910.62-128.87L910.62-128.87L910.62-128.87Q914.93-129.56 919.44-129.56L919.44-129.56L919.44-129.56Q923.75-129.56 927.18-128.97L927.18-128.97L927.18-128.97Q930.61-128.38 932.96-126.62L932.96-126.62L932.96-126.62Q935.31-124.85 936.49-121.81L936.49-121.81L936.49-121.81Q937.66-118.78 937.66-113.88L937.66-113.88L937.66-20.97L937.66-20.97Q937.66-11.76 929.04-6.27L929.04-6.27L929.04-6.27Q923.36-2.55 914.34 0.29L914.34 0.29L914.34 0.29Q905.32 3.14 893.56 3.14L893.56 3.14L893.56 3.14Q880.82 3.14 870.73-0.39L870.73-0.39L870.73-0.39Q860.64-3.92 853.68-10.58L853.68-10.58L853.68-10.58Q846.72-17.25 843.09-26.56L843.09-26.56L843.09-26.56Q839.47-35.87 839.47-47.63ZM895.13-72.13L895.13-72.13L895.13-72.13Q884.55-72.13 878.86-66.05L878.86-66.05L878.86-66.05Q873.18-59.98 873.18-47.63L873.18-47.63L873.18-47.63Q873.18-35.48 878.47-29.30L878.47-29.30L878.47-29.30Q883.76-23.13 893.76-23.13L893.76-23.13L893.76-23.13Q897.29-23.13 900.13-24.21L900.13-24.21L900.13-24.21Q902.97-25.28 904.54-26.66L904.54-26.66L904.54-69.78L904.54-69.78Q900.62-72.13 895.13-72.13Z" fill="url(#editing-shiny-gradient)"></path></g></g><g filter="url(#editing-shiny2)"><g transform="translate(-225.1999912261963, 141.3499984741211)"><path d="M46.84-63.70L57.23-63.70L57.23-63.70Q65.46-63.70 69.87-67.52L69.87-67.52L69.87-67.52Q74.28-71.34 74.28-79.18L74.28-79.18L74.28-79.18Q74.28-86.63 69.68-90.65L69.68-90.65L69.68-90.65Q65.07-94.67 56.25-94.67L56.25-94.67L56.25-94.67Q53.12-94.67 51.06-94.57L51.06-94.57L51.06-94.57Q49-94.47 46.84-94.08L46.84-94.08L46.84-63.70ZM47.04-36.85L47.04-0.78L47.04-0.78Q44.88-0.20 40.28 0.39L40.28 0.39L40.28 0.39Q35.67 0.98 31.16 0.98L31.16 0.98L31.16 0.98Q26.66 0.98 23.23 0.29L23.23 0.29L23.23 0.29Q19.80-0.39 17.44-2.16L17.44-2.16L17.44-2.16Q15.09-3.92 13.92-7.06L13.92-7.06L13.92-7.06Q12.74-10.19 12.74-15.29L12.74-15.29L12.74-107.60L12.74-107.60Q12.74-111.72 14.99-113.97L14.99-113.97L14.99-113.97Q17.25-116.23 21.17-117.60L21.17-117.60L21.17-117.60Q27.83-119.95 36.36-121.03L36.36-121.03L36.36-121.03Q44.88-122.11 53.51-122.11L53.51-122.11L53.51-122.11Q80.56-122.11 94.86-110.54L94.86-110.54L94.86-110.54Q109.17-98.98 109.17-79.18L109.17-79.18L109.17-79.18Q109.17-69.58 106.13-61.84L106.13-61.84L106.13-61.84Q103.10-54.10 97.12-48.51L97.12-48.51L97.12-48.51Q91.14-42.92 82.03-39.89L82.03-39.89L82.03-39.89Q72.91-36.85 60.96-36.85L60.96-36.85L47.04-36.85ZM219.72-47.63L219.72-47.63L219.72-47.63Q219.72-35.48 215.99-25.97L215.99-25.97L215.99-25.97Q212.27-16.46 205.51-10.00L205.51-10.00L205.51-10.00Q198.74-3.53 189.34-0.20L189.34-0.20L189.34-0.20Q179.93 3.14 168.36 3.14L168.36 3.14L168.36 3.14Q156.80 3.14 147.39-0.39L147.39-0.39L147.39-0.39Q137.98-3.92 131.22-10.49L131.22-10.49L131.22-10.49Q124.46-17.05 120.74-26.46L120.74-26.46L120.74-26.46Q117.01-35.87 117.01-47.63L117.01-47.63L117.01-47.63Q117.01-59.19 120.74-68.60L120.74-68.60L120.74-68.60Q124.46-78.01 131.22-84.57L131.22-84.57L131.22-84.57Q137.98-91.14 147.39-94.67L147.39-94.67L147.39-94.67Q156.80-98.20 168.36-98.20L168.36-98.20L168.36-98.20Q179.93-98.20 189.34-94.57L189.34-94.57L189.34-94.57Q198.74-90.94 205.51-84.38L205.51-84.38L205.51-84.38Q212.27-77.81 215.99-68.40L215.99-68.40L215.99-68.40Q219.72-59.00 219.72-47.63ZM151.12-47.63L151.12-47.63L151.12-47.63Q151.12-35.67 155.72-29.30L155.72-29.30L155.72-29.30Q160.33-22.93 168.56-22.93L168.56-22.93L168.56-22.93Q176.79-22.93 181.20-29.40L181.20-29.40L181.20-29.40Q185.61-35.87 185.61-47.63L185.61-47.63L185.61-47.63Q185.61-59.39 181.10-65.76L181.10-65.76L181.10-65.76Q176.60-72.13 168.36-72.13L168.36-72.13L168.36-72.13Q160.13-72.13 155.62-65.76L155.62-65.76L155.62-65.76Q151.12-59.39 151.12-47.63ZM297.72-48.61L329.08-17.25L329.08-17.25Q328.10-8.04 323.69-3.14L323.69-3.14L323.69-3.14Q319.28 1.76 310.86 1.76L310.86 1.76L310.86 1.76Q304.58 1.76 299.68-1.27L299.68-1.27L299.68-1.27Q294.78-4.31 289.10-11.56L289.10-11.56L269.70-35.87L269.70-0.20L269.70-0.20Q267.54 0.20 263.33 0.88L263.33 0.88L263.33 0.88Q259.11 1.57 254.80 1.57L254.80 1.57L254.80 1.57Q250.49 1.57 247.06 0.98L247.06 0.98L247.06 0.98Q243.63 0.39 241.28-1.37L241.28-1.37L241.28-1.37Q238.92-3.14 237.65-6.17L237.65-6.17L237.65-6.17Q236.38-9.21 236.38-14.11L236.38-14.11L236.38-127.60L236.38-127.60Q238.53-128.18 242.75-128.87L242.75-128.87L242.75-128.87Q246.96-129.56 251.27-129.56L251.27-129.56L251.27-129.56Q255.58-129.56 259.01-128.97L259.01-128.97L259.01-128.97Q262.44-128.38 264.80-126.62L264.80-126.62L264.80-126.62Q267.15-124.85 268.42-121.81L268.42-121.81L268.42-121.81Q269.70-118.78 269.70-113.88L269.70-113.88L269.70-62.13L303.41-96.63L303.41-96.63Q313.60-96.63 319.77-92.12L319.77-92.12L319.77-92.12Q325.95-87.61 325.95-80.75L325.95-80.75L325.95-80.75Q325.95-77.81 324.97-75.36L324.97-75.36L324.97-75.36Q323.99-72.91 321.93-70.36L321.93-70.36L321.93-70.36Q319.87-67.82 316.64-64.97L316.64-64.97L316.64-64.97Q313.40-62.13 309.09-58.41L309.09-58.41L297.72-48.61ZM390.82 3.14L390.82 3.14L390.82 3.14Q379.26 3.14 369.36-0.10L369.36-0.10L369.36-0.10Q359.46-3.33 352.11-9.80L352.11-9.80L352.11-9.80Q344.76-16.27 340.55-26.07L340.55-26.07L340.55-26.07Q336.34-35.87 336.34-49L336.34-49L336.34-49Q336.34-61.94 340.55-71.25L340.55-71.25L340.55-71.25Q344.76-80.56 351.62-86.53L351.62-86.53L351.62-86.53Q358.48-92.51 367.30-95.35L367.30-95.35L367.30-95.35Q376.12-98.20 385.34-98.20L385.34-98.20L385.34-98.20Q395.72-98.20 404.25-95.06L404.25-95.06L404.25-95.06Q412.78-91.92 418.95-86.44L418.95-86.44L418.95-86.44Q425.12-80.95 428.55-73.30L428.55-73.30L428.55-73.30Q431.98-65.66 431.98-56.64L431.98-56.64L431.98-56.64Q431.98-49.98 428.26-46.45L428.26-46.45L428.26-46.45Q424.54-42.92 417.87-41.94L417.87-41.94L369.46-34.69L369.46-34.69Q371.62-28.22 378.28-24.99L378.28-24.99L378.28-24.99Q384.94-21.76 393.57-21.76L393.57-21.76L393.57-21.76Q401.60-21.76 408.76-23.81L408.76-23.81L408.76-23.81Q415.91-25.87 420.42-28.62L420.42-28.62L420.42-28.62Q423.56-26.66 425.71-23.13L425.71-23.13L425.71-23.13Q427.87-19.60 427.87-15.68L427.87-15.68L427.87-15.68Q427.87-6.86 419.64-2.55L419.64-2.55L419.64-2.55Q413.36 0.78 405.52 1.96L405.52 1.96L405.52 1.96Q397.68 3.14 390.82 3.14ZM385.34-73.89L385.34-73.89L385.34-73.89Q380.63-73.89 377.20-72.32L377.20-72.32L377.20-72.32Q373.77-70.76 371.62-68.31L371.62-68.31L371.62-68.31Q369.46-65.86 368.38-62.82L368.38-62.82L368.38-62.82Q367.30-59.78 367.11-56.64L367.11-56.64L400.62-62.13L400.62-62.13Q400.04-66.05 396.31-69.97L396.31-69.97L396.31-69.97Q392.59-73.89 385.34-73.89ZM493.72-98.20L493.72-98.20L493.72-98.20Q501.76-98.20 509.50-95.94L509.50-95.94L509.50-95.94Q517.24-93.69 522.93-89.18L522.93-89.18L522.93-89.18Q528.81-93.10 536.16-95.65L536.16-95.65L536.16-95.65Q543.51-98.20 553.90-98.20L553.90-98.20L553.90-98.20Q561.34-98.20 568.50-96.24L568.50-96.24L568.50-96.24Q575.65-94.28 581.24-90.06L581.24-90.06L581.24-90.06Q586.82-85.85 590.16-78.89L590.16-78.89L590.16-78.89Q593.49-71.93 593.49-61.94L593.49-61.94L593.49-0.20L593.49-0.20Q591.53 0.39 587.31 0.98L587.31 0.98L587.31 0.98Q583.10 1.57 578.59 1.57L578.59 1.57L578.59 1.57Q574.28 1.57 570.85 0.98L570.85 0.98L570.85 0.98Q567.42 0.39 565.07-1.37L565.07-1.37L565.07-1.37Q562.72-3.14 561.44-6.17L561.44-6.17L561.44-6.17Q560.17-9.21 560.17-14.11L560.17-14.11L560.17-60.96L560.17-60.96Q560.17-66.84 556.84-69.48L556.84-69.48L556.84-69.48Q553.50-72.13 547.82-72.13L547.82-72.13L547.82-72.13Q545.08-72.13 541.94-70.85L541.94-70.85L541.94-70.85Q538.80-69.58 537.24-68.21L537.24-68.21L537.24-68.21Q537.43-67.42 537.43-66.74L537.43-66.74L537.43-66.74Q537.43-66.05 537.43-65.46L537.43-65.46L537.43-0.20L537.43-0.20Q535.28 0.39 531.06 0.98L531.06 0.98L531.06 0.98Q526.85 1.57 522.54 1.57L522.54 1.57L522.54 1.57Q518.22 1.57 514.79 0.98L514.79 0.98L514.79 0.98Q511.36 0.39 509.01-1.37L509.01-1.37L509.01-1.37Q506.66-3.14 505.39-6.17L505.39-6.17L505.39-6.17Q504.11-9.21 504.11-14.11L504.11-14.11L504.11-60.96L504.11-60.96Q504.11-66.84 500.49-69.48L500.49-69.48L500.49-69.48Q496.86-72.13 491.76-72.13L491.76-72.13L491.76-72.13Q488.24-72.13 485.69-71.05L485.69-71.05L485.69-71.05Q483.14-69.97 481.38-68.99L481.38-68.99L481.38-0.20L481.38-0.20Q479.42 0.39 475.20 0.98L475.20 0.98L475.20 0.98Q470.99 1.57 466.48 1.57L466.48 1.57L466.48 1.57Q462.17 1.57 458.74 0.98L458.74 0.98L458.74 0.98Q455.31 0.39 452.96-1.37L452.96-1.37L452.96-1.37Q450.60-3.14 449.33-6.17L449.33-6.17L449.33-6.17Q448.06-9.21 448.06-14.11L448.06-14.11L448.06-73.30L448.06-73.30Q448.06-78.60 450.31-81.73L450.31-81.73L450.31-81.73Q452.56-84.87 456.48-87.61L456.48-87.61L456.48-87.61Q463.15-92.32 473.05-95.26L473.05-95.26L473.05-95.26Q482.94-98.20 493.72-98.20ZM712.46-47.63L712.46-47.63L712.46-47.63Q712.46-35.48 708.74-25.97L708.74-25.97L708.74-25.97Q705.01-16.46 698.25-10.00L698.25-10.00L698.25-10.00Q691.49-3.53 682.08-0.20L682.08-0.20L682.08-0.20Q672.67 3.14 661.11 3.14L661.11 3.14L661.11 3.14Q649.54 3.14 640.14-0.39L640.14-0.39L640.14-0.39Q630.73-3.92 623.97-10.49L623.97-10.49L623.97-10.49Q617.20-17.05 613.48-26.46L613.48-26.46L613.48-26.46Q609.76-35.87 609.76-47.63L609.76-47.63L609.76-47.63Q609.76-59.19 613.48-68.60L613.48-68.60L613.48-68.60Q617.20-78.01 623.97-84.57L623.97-84.57L623.97-84.57Q630.73-91.14 640.14-94.67L640.14-94.67L640.14-94.67Q649.54-98.20 661.11-98.20L661.11-98.20L661.11-98.20Q672.67-98.20 682.08-94.57L682.08-94.57L682.08-94.57Q691.49-90.94 698.25-84.38L698.25-84.38L698.25-84.38Q705.01-77.81 708.74-68.40L708.74-68.40L708.74-68.40Q712.46-59.00 712.46-47.63ZM643.86-47.63L643.86-47.63L643.86-47.63Q643.86-35.67 648.47-29.30L648.47-29.30L648.47-29.30Q653.07-22.93 661.30-22.93L661.30-22.93L661.30-22.93Q669.54-22.93 673.95-29.40L673.95-29.40L673.95-29.40Q678.36-35.87 678.36-47.63L678.36-47.63L678.36-47.63Q678.36-59.39 673.85-65.76L673.85-65.76L673.85-65.76Q669.34-72.13 661.11-72.13L661.11-72.13L661.11-72.13Q652.88-72.13 648.37-65.76L648.37-65.76L648.37-65.76Q643.86-59.39 643.86-47.63ZM827.32-47.63L827.32-47.63L827.32-47.63Q827.32-35.48 823.59-25.97L823.59-25.97L823.59-25.97Q819.87-16.46 813.11-10.00L813.11-10.00L813.11-10.00Q806.34-3.53 796.94-0.20L796.94-0.20L796.94-0.20Q787.53 3.14 775.96 3.14L775.96 3.14L775.96 3.14Q764.40 3.14 754.99-0.39L754.99-0.39L754.99-0.39Q745.58-3.92 738.82-10.49L738.82-10.49L738.82-10.49Q732.06-17.05 728.34-26.46L728.34-26.46L728.34-26.46Q724.61-35.87 724.61-47.63L724.61-47.63L724.61-47.63Q724.61-59.19 728.34-68.60L728.34-68.60L728.34-68.60Q732.06-78.01 738.82-84.57L738.82-84.57L738.82-84.57Q745.58-91.14 754.99-94.67L754.99-94.67L754.99-94.67Q764.40-98.20 775.96-98.20L775.96-98.20L775.96-98.20Q787.53-98.20 796.94-94.57L796.94-94.57L796.94-94.57Q806.34-90.94 813.11-84.38L813.11-84.38L813.11-84.38Q819.87-77.81 823.59-68.40L823.59-68.40L823.59-68.40Q827.32-59.00 827.32-47.63ZM758.72-47.63L758.72-47.63L758.72-47.63Q758.72-35.67 763.32-29.30L763.32-29.30L763.32-29.30Q767.93-22.93 776.16-22.93L776.16-22.93L776.16-22.93Q784.39-22.93 788.80-29.40L788.80-29.40L788.80-29.40Q793.21-35.87 793.21-47.63L793.21-47.63L793.21-47.63Q793.21-59.39 788.70-65.76L788.70-65.76L788.70-65.76Q784.20-72.13 775.96-72.13L775.96-72.13L775.96-72.13Q767.73-72.13 763.22-65.76L763.22-65.76L763.22-65.76Q758.72-59.39 758.72-47.63ZM839.47-47.63L839.47-47.63L839.47-47.63Q839.47-60.56 843.39-70.07L843.39-70.07L843.39-70.07Q847.31-79.58 854.27-85.85L854.27-85.85L854.27-85.85Q861.22-92.12 870.53-95.16L870.53-95.16L870.53-95.16Q879.84-98.20 890.62-98.20L890.62-98.20L890.62-98.20Q894.54-98.20 898.27-97.51L898.27-97.51L898.27-97.51Q901.99-96.82 904.34-95.84L904.34-95.84L904.34-127.60L904.34-127.60Q906.30-128.18 910.62-128.87L910.62-128.87L910.62-128.87Q914.93-129.56 919.44-129.56L919.44-129.56L919.44-129.56Q923.75-129.56 927.18-128.97L927.18-128.97L927.18-128.97Q930.61-128.38 932.96-126.62L932.96-126.62L932.96-126.62Q935.31-124.85 936.49-121.81L936.49-121.81L936.49-121.81Q937.66-118.78 937.66-113.88L937.66-113.88L937.66-20.97L937.66-20.97Q937.66-11.76 929.04-6.27L929.04-6.27L929.04-6.27Q923.36-2.55 914.34 0.29L914.34 0.29L914.34 0.29Q905.32 3.14 893.56 3.14L893.56 3.14L893.56 3.14Q880.82 3.14 870.73-0.39L870.73-0.39L870.73-0.39Q860.64-3.92 853.68-10.58L853.68-10.58L853.68-10.58Q846.72-17.25 843.09-26.56L843.09-26.56L843.09-26.56Q839.47-35.87 839.47-47.63ZM895.13-72.13L895.13-72.13L895.13-72.13Q884.55-72.13 878.86-66.05L878.86-66.05L878.86-66.05Q873.18-59.98 873.18-47.63L873.18-47.63L873.18-47.63Q873.18-35.48 878.47-29.30L878.47-29.30L878.47-29.30Q883.76-23.13 893.76-23.13L893.76-23.13L893.76-23.13Q897.29-23.13 900.13-24.21L900.13-24.21L900.13-24.21Q902.97-25.28 904.54-26.66L904.54-26.66L904.54-69.78L904.54-69.78Q900.62-72.13 895.13-72.13Z" fill="url(#editing-shiny-gradient2)"></path></g></g><style>text {
  font-size: 64px;
  font-family: Arial Black;
  dominant-baseline: central;
  text-anchor: middle;
}</style></svg>