<svg width="337.219970703125px" height="429.23251953125px" xmlns="http://www.w3.org/2000/svg" viewBox="81.3900146484375 -139.616259765625 337.219970703125 429.23251953125" style="background: rgba(0, 0, 0, 0);" preserveAspectRatio="xMidYMid"><defs><linearGradient id="editing-shiny-gradient" x1="0.04322727117869957" x2="0.9567727288213004" y1="0.2966316784620999" y2="0.7033683215379001" gradientUnits="objectBoundingBox"><stop offset="0.0" stop-color="#ffb200"></stop><stop offset="0.5" stop-color="#e10057"></stop><stop offset="1.0" stop-color="#5A1A80"></stop></linearGradient><linearGradient id="editing-shiny-gradient2" x1="0" x2="0" y1="0" y2="1"><stop offset="0.2" stop-color="#fff" stop-opacity="0.8"></stop><stop offset="0.8" stop-color="#fff" stop-opacity="0"></stop></linearGradient><filter id="editing-shiny2" x="-100%" y="-100%" width="300%" height="300%"><feMorphology operator="erode" radius="2"></feMorphology></filter><filter id="editing-shiny" x="-100%" y="-100%" width="300%" height="300%"><feFlood flood-color="#fff" result="flood"></feFlood><feConvolveMatrix in="SourceGraphic" result="conv" order="8,8" divisor="1" kernelMatrix="0 0 0 0 0 0 0 0 0 0 0 1 1 0 0 0 0 0 0 1 1 0 0 0 0 0 1 0 0 1 0 0 0 0 1 0 0 1 0 0 0 1 0 0 0 0 1 0 0 1 1 0 0 1 1 0 0 0 0 1 1 0 0 0 "></feConvolveMatrix><feOffset dx="0" dy="4" in="conv" result="offset"></feOffset><feComposite operator="in" in="flood" in2="offset" result="comp"></feComposite><feGaussianBlur in="offset" stdDeviation="3" result="shadow"></feGaussianBlur><feColorMatrix in="shadow" type="matrix" values="0.7 0 0 0 0  0 0.7 0 0 0  0 0 0.7 0 0  0 0 0 0.3 0" result="dark-shadow"></feColorMatrix><feOffset dx="0" dy="4" in="dark-shadow" result="offset-shadow"></feOffset><feOffset dx="0" dy="2" in="conv" result="offset-2"></feOffset><feComposite operator="out" in="offset" in2="offset-2" result="edge-diff"></feComposite><feGaussianBlur in="edge-diff" stdDeviation="1" result="edge-blur"></feGaussianBlur><feColorMatrix in="edge-blur" result="edge-shadow" type="matrix" values="0 0 0 0 0  0 0 0 0 0  0 0 0 0 0  0 0 0 0.5 0"></feColorMatrix><feComposite operator="in" in="edge-shadow" in2="offset" result="edge-shadow-in"></feComposite><feOffset dx="0" dy="1" in="edge-shadow-in" result="edge-shadow-final"></feOffset><feMerge result="out"><feMergeNode in="offset-shadow"></feMergeNode><feMergeNode in="comp"></feMergeNode><feMergeNode in="edge-shadow-final"></feMergeNode><feMergeNode in="SourceGraphic"></feMergeNode></feMerge></filter></defs><g filter="url(#editing-shiny)"><g transform="translate(134.6550006866455, 137.625)"><path d="M83.89-3.92L83.89-3.92L83.89-3.92Q81.14-1.57 75.36 0.20L75.36 0.20L75.36 0.20Q69.58 1.96 62.72 1.96L62.72 1.96L62.72 1.96Q54.49 1.96 48.61-0.49L48.61-0.49L48.61-0.49Q42.73-2.94 40.57-7.25L40.57-7.25L40.57-7.25Q38.42-11.76 35.28-18.91L35.28-18.91L35.28-18.91Q32.14-26.07 28.71-34.89L28.71-34.89L28.71-34.89Q25.28-43.71 21.66-53.61L21.66-53.61L21.66-53.61Q18.03-63.50 14.70-73.70L14.70-73.70L14.70-73.70Q11.37-83.89 8.43-93.69L8.43-93.69L8.43-93.69Q5.49-103.49 3.33-112.11L3.33-112.11L3.33-112.11Q6.08-114.86 11.27-117.11L11.27-117.11L11.27-117.11Q16.46-119.36 22.34-119.36L22.34-119.36L22.34-119.36Q29.60-119.36 34.20-116.33L34.20-116.33L34.20-116.33Q38.81-113.29 40.96-105.06L40.96-105.06L40.96-105.06Q46.26-85.85 51.65-68.31L51.65-68.31L51.65-68.31Q57.04-50.76 62.92-31.75L62.92-31.75L64.09-31.75L64.09-31.75Q69.38-50.18 74.97-71.93L74.97-71.93L74.97-71.93Q80.56-93.69 85.65-115.25L85.65-115.25L85.65-115.25Q89.18-117.01 93.20-118.19L93.20-118.19L93.20-118.19Q97.22-119.36 102.31-119.36L102.31-119.36L102.31-119.36Q109.56-119.36 114.66-116.13L114.66-116.13L114.66-116.13Q119.76-112.90 119.76-105.45L119.76-105.45L119.76-105.45Q119.76-101.14 117.70-92.90L117.70-92.90L117.70-92.90Q115.64-84.67 112.41-74.38L112.41-74.38L112.41-74.38Q109.17-64.09 105.15-52.92L105.15-52.92L105.15-52.92Q101.14-41.75 97.12-31.85L97.12-31.85L97.12-31.85Q93.10-21.95 89.57-14.41L89.57-14.41L89.57-14.41Q86.04-6.86 83.89-3.92ZM179.93-44.49L171.70-47.24L171.70-47.24Q163.07-50.18 156.02-53.21L156.02-53.21L156.02-53.21Q148.96-56.25 143.86-60.56L143.86-60.56L143.86-60.56Q138.77-64.88 135.93-70.85L135.93-70.85L135.93-70.85Q133.08-76.83 133.08-85.46L133.08-85.46L133.08-85.46Q133.08-102.12 145.92-112.11L145.92-112.11L145.92-112.11Q158.76-122.11 181.89-122.11L181.89-122.11L181.89-122.11Q190.32-122.11 197.57-120.93L197.57-120.93L197.57-120.93Q204.82-119.76 210.01-117.31L210.01-117.31L210.01-117.31Q215.21-114.86 218.15-111.03L218.15-111.03L218.15-111.03Q221.09-107.21 221.09-102.12L221.09-102.12L221.09-102.12Q221.09-97.02 218.74-93.39L218.74-93.39L218.74-93.39Q216.38-89.77 213.05-87.22L213.05-87.22L213.05-87.22Q208.74-89.96 201.49-92.02L201.49-92.02L201.49-92.02Q194.24-94.08 185.61-94.08L185.61-94.08L185.61-94.08Q176.79-94.08 172.68-91.63L172.68-91.63L172.68-91.63Q168.56-89.18 168.56-85.46L168.56-85.46L168.56-85.46Q168.56-82.52 171.11-80.65L171.11-80.65L171.11-80.65Q173.66-78.79 178.75-77.22L178.75-77.22L189.14-73.89L189.14-73.89Q207.56-68.01 217.46-58.90L217.46-58.90L217.46-58.90Q227.36-49.78 227.36-34.10L227.36-34.10L227.36-34.10Q227.36-17.44 214.23-7.15L214.23-7.15L214.23-7.15Q201.10 3.14 175.62 3.14L175.62 3.14L175.62 3.14Q166.60 3.14 158.86 1.67L158.86 1.67L158.86 1.67Q151.12 0.20 145.33-2.65L145.33-2.65L145.33-2.65Q139.55-5.49 136.32-9.70L136.32-9.70L136.32-9.70Q133.08-13.92 133.08-19.40L133.08-19.40L133.08-19.40Q133.08-25.09 136.42-29.11L136.42-29.11L136.42-29.11Q139.75-33.12 143.67-35.28L143.67-35.28L143.67-35.28Q149.16-30.97 157.09-27.83L157.09-27.83L157.09-27.83Q165.03-24.70 174.44-24.70L174.44-24.70L174.44-24.70Q184.04-24.70 187.96-27.64L187.96-27.64L187.96-27.64Q191.88-30.58 191.88-34.50L191.88-34.50L191.88-34.50Q191.88-38.42 188.75-40.47L188.75-40.47L188.75-40.47Q185.61-42.53 179.93-44.49L179.93-44.49Z" fill="url(#editing-shiny-gradient)"></path></g></g><g filter="url(#editing-shiny2)"><g transform="translate(134.6550006866455, 137.625)"><path d="M83.89-3.92L83.89-3.92L83.89-3.92Q81.14-1.57 75.36 0.20L75.36 0.20L75.36 0.20Q69.58 1.96 62.72 1.96L62.72 1.96L62.72 1.96Q54.49 1.96 48.61-0.49L48.61-0.49L48.61-0.49Q42.73-2.94 40.57-7.25L40.57-7.25L40.57-7.25Q38.42-11.76 35.28-18.91L35.28-18.91L35.28-18.91Q32.14-26.07 28.71-34.89L28.71-34.89L28.71-34.89Q25.28-43.71 21.66-53.61L21.66-53.61L21.66-53.61Q18.03-63.50 14.70-73.70L14.70-73.70L14.70-73.70Q11.37-83.89 8.43-93.69L8.43-93.69L8.43-93.69Q5.49-103.49 3.33-112.11L3.33-112.11L3.33-112.11Q6.08-114.86 11.27-117.11L11.27-117.11L11.27-117.11Q16.46-119.36 22.34-119.36L22.34-119.36L22.34-119.36Q29.60-119.36 34.20-116.33L34.20-116.33L34.20-116.33Q38.81-113.29 40.96-105.06L40.96-105.06L40.96-105.06Q46.26-85.85 51.65-68.31L51.65-68.31L51.65-68.31Q57.04-50.76 62.92-31.75L62.92-31.75L64.09-31.75L64.09-31.75Q69.38-50.18 74.97-71.93L74.97-71.93L74.97-71.93Q80.56-93.69 85.65-115.25L85.65-115.25L85.65-115.25Q89.18-117.01 93.20-118.19L93.20-118.19L93.20-118.19Q97.22-119.36 102.31-119.36L102.31-119.36L102.31-119.36Q109.56-119.36 114.66-116.13L114.66-116.13L114.66-116.13Q119.76-112.90 119.76-105.45L119.76-105.45L119.76-105.45Q119.76-101.14 117.70-92.90L117.70-92.90L117.70-92.90Q115.64-84.67 112.41-74.38L112.41-74.38L112.41-74.38Q109.17-64.09 105.15-52.92L105.15-52.92L105.15-52.92Q101.14-41.75 97.12-31.85L97.12-31.85L97.12-31.85Q93.10-21.95 89.57-14.41L89.57-14.41L89.57-14.41Q86.04-6.86 83.89-3.92ZM179.93-44.49L171.70-47.24L171.70-47.24Q163.07-50.18 156.02-53.21L156.02-53.21L156.02-53.21Q148.96-56.25 143.86-60.56L143.86-60.56L143.86-60.56Q138.77-64.88 135.93-70.85L135.93-70.85L135.93-70.85Q133.08-76.83 133.08-85.46L133.08-85.46L133.08-85.46Q133.08-102.12 145.92-112.11L145.92-112.11L145.92-112.11Q158.76-122.11 181.89-122.11L181.89-122.11L181.89-122.11Q190.32-122.11 197.57-120.93L197.57-120.93L197.57-120.93Q204.82-119.76 210.01-117.31L210.01-117.31L210.01-117.31Q215.21-114.86 218.15-111.03L218.15-111.03L218.15-111.03Q221.09-107.21 221.09-102.12L221.09-102.12L221.09-102.12Q221.09-97.02 218.74-93.39L218.74-93.39L218.74-93.39Q216.38-89.77 213.05-87.22L213.05-87.22L213.05-87.22Q208.74-89.96 201.49-92.02L201.49-92.02L201.49-92.02Q194.24-94.08 185.61-94.08L185.61-94.08L185.61-94.08Q176.79-94.08 172.68-91.63L172.68-91.63L172.68-91.63Q168.56-89.18 168.56-85.46L168.56-85.46L168.56-85.46Q168.56-82.52 171.11-80.65L171.11-80.65L171.11-80.65Q173.66-78.79 178.75-77.22L178.75-77.22L189.14-73.89L189.14-73.89Q207.56-68.01 217.46-58.90L217.46-58.90L217.46-58.90Q227.36-49.78 227.36-34.10L227.36-34.10L227.36-34.10Q227.36-17.44 214.23-7.15L214.23-7.15L214.23-7.15Q201.10 3.14 175.62 3.14L175.62 3.14L175.62 3.14Q166.60 3.14 158.86 1.67L158.86 1.67L158.86 1.67Q151.12 0.20 145.33-2.65L145.33-2.65L145.33-2.65Q139.55-5.49 136.32-9.70L136.32-9.70L136.32-9.70Q133.08-13.92 133.08-19.40L133.08-19.40L133.08-19.40Q133.08-25.09 136.42-29.11L136.42-29.11L136.42-29.11Q139.75-33.12 143.67-35.28L143.67-35.28L143.67-35.28Q149.16-30.97 157.09-27.83L157.09-27.83L157.09-27.83Q165.03-24.70 174.44-24.70L174.44-24.70L174.44-24.70Q184.04-24.70 187.96-27.64L187.96-27.64L187.96-27.64Q191.88-30.58 191.88-34.50L191.88-34.50L191.88-34.50Q191.88-38.42 188.75-40.47L188.75-40.47L188.75-40.47Q185.61-42.53 179.93-44.49L179.93-44.49Z" fill="url(#editing-shiny-gradient2)"></path></g></g><style>text {
  font-size: 64px;
  font-family: Arial Black;
  dominant-baseline: central;
  text-anchor: middle;
}</style></svg>